<svg width="192" height="60" viewBox="0 0 192 60" fill="none" xmlns="http://www.w3.org/2000/svg">
<path d="M55.3096 4.16458C55.3096 4.16458 55.3389 4.14989 55.383 4.10583C55.3536 4.13521 55.3243 4.1499 55.3096 4.16458Z" fill="#F8F8F8"/>
<path d="M29.6377 50.5003C29.6524 50.5003 29.6524 50.5003 29.6377 50.5003C29.6524 50.5003 29.6524 50.5003 29.6524 50.5003C29.6524 50.4856 29.6377 50.4856 29.6377 50.5003Z" fill="#F8F8F8"/>
<path d="M191.218 36.46C191.232 36.3426 191.129 36.2691 191.056 36.2104C190.645 35.9313 189.984 35.7698 189.529 36.1516C189.279 36.3866 188.398 36.9741 187.752 37.2237C186.606 37.6643 185.402 37.9434 184.212 38.0315C182.846 38.0902 181.495 38.1931 180.129 38.3693C178.014 38.5602 175.929 38.9714 173.873 39.6911C172.61 40.0582 171.347 40.5576 170.289 41.4534C168.879 42.6137 167.807 44.1704 166.456 45.4041C166.104 45.7272 165.722 46.0062 165.325 46.2559C163.636 46.7699 161.947 47.3868 160.214 47.6364C159.392 47.7833 158.863 47.9302 158.437 47.9742C157.674 48.0477 156.837 48.2092 156.102 48.2533C156.073 48.2533 156.058 48.2533 156.029 48.2533C157.028 48.1064 158.041 47.9449 159.04 47.7539C158.951 47.7686 158.878 47.7686 158.79 47.7686C157.292 47.8861 155.75 48.033 154.369 48.0623C151.917 47.7539 149.508 47.2546 147.129 46.6378C144.192 45.8447 141.298 44.8901 138.508 43.7152C136.848 42.9368 135.218 42.1143 133.573 41.3066C134.689 41.3653 135.82 41.38 136.951 41.3947C140.05 41.4534 143.178 41.145 146.277 40.5576C147.687 40.3373 148.818 39.3092 149.963 38.4134C150.595 37.9728 152.269 36.651 153.121 35.7404C153.973 34.8739 154.883 34.0662 155.794 33.2584C156.499 32.5681 157.101 31.7751 157.835 31.1142C158.819 30.2477 160.112 29.5134 161.228 28.3678C161.316 28.2063 161.448 28.0007 161.316 27.8538C161.008 27.5013 160.494 27.5013 160.053 27.5454C158.246 27.5454 156.587 28.735 155.045 29.7337C153.635 30.6295 151.799 31.9807 150.786 32.7591C149.376 33.7724 147.893 34.7124 146.644 35.9607C146.16 36.4013 145.704 36.886 145.132 37.1944C144.309 37.6937 143.398 37.9434 142.517 38.2518C141.151 38.7071 139.786 39.2358 138.405 39.603C137.583 39.7645 136.966 39.8673 136.099 40.0435C135.262 40.2638 134.073 40.4254 133.118 40.4841C132.883 40.4841 132.648 40.4694 132.428 40.4401C137.201 36.46 142.268 32.1716 142.855 25.504C142.987 23.9178 142.855 22.2876 142.135 20.9218C141.945 20.4812 141.71 20.0259 141.254 19.835C140.887 19.6294 140.123 19.3797 139.844 19.9084C139.345 20.6428 139.095 21.4946 138.919 22.3611C138.714 23.2716 138.376 24.1381 138.053 25.0193C137.274 26.9579 136.261 28.7937 135.277 30.6295C134.499 31.966 134.337 33.5081 133.808 34.918C133.133 36.46 132.002 37.7965 131.591 39.4414C131.517 39.7058 131.444 39.9848 131.385 40.2638C130.651 39.9114 129.916 39.5736 129.182 39.2505C123.44 36.6216 117.638 34.1396 111.72 31.9073C109.326 30.9967 106.932 30.0568 104.538 29.1462C102.321 28.4412 100.088 27.7363 97.8705 27.0314C96.1228 26.5761 94.3605 26.1795 92.5834 25.8271C92.7302 25.7977 92.8624 25.7683 93.0093 25.7389C92.9212 25.783 92.8331 25.8124 92.7449 25.8564C92.9359 25.7977 93.1268 25.7389 93.3177 25.6802C96.2991 25.0193 99.251 24.1381 102.203 23.3597C104.274 22.8017 106.345 22.1995 108.386 21.4799C113.335 19.7762 117.859 16.6627 121.648 12.7855C123.851 10.5532 125.848 8.10052 127.581 5.47164C128.477 4.04706 129.49 2.63716 129.916 0.992277C130.093 0.448878 129.975 0.169832 129.432 0.0523407C129.079 -0.0651509 128.697 0.0376507 128.345 0.140456C126.685 0.53699 125.378 1.85878 123.866 2.65185C122.191 3.66522 120.473 4.56108 118.755 5.50101C116.728 6.88154 114.584 8.0124 112.498 9.29012C109.326 11.2581 106.873 14.2835 104.45 17.1621C103.011 18.9097 101.66 20.6574 99.8972 22.082C98.737 22.9338 97.4446 23.5066 96.1963 24.1675C95.4179 24.6081 94.6395 25.0193 93.8317 25.3865C93.3618 25.5333 92.8771 25.6802 92.4071 25.8124C88.2509 25.0046 84.0065 24.5053 79.7181 24.4025C78.3082 24.3584 76.8836 24.4465 75.4737 24.564C78.6753 23.4625 81.7448 21.8323 84.7261 20.0993C86.7822 18.8363 88.9705 17.7495 90.7769 16.0753C92.1722 14.6213 93.3177 12.9177 94.4779 11.2581C95.2563 10.0098 96.1228 8.67328 96.2403 7.18995C96.1669 6.86685 95.8291 6.72 95.55 6.63188C94.4045 6.20597 93.538 7.33683 92.7156 8.08584C91.3791 9.43699 90.072 10.8175 88.6474 12.0659C88.0893 12.5505 87.5606 13.0939 86.9879 13.5492C86.5326 13.8429 84.873 14.7975 84.0946 15.4437C81.8916 17.2208 79.9383 19.365 77.8676 21.3183C76.5898 22.4932 75.3268 23.7269 73.8288 24.5787C75.1065 24.0206 76.5017 23.0807 77.4857 22.2876C81.0692 19.7469 84.0946 16.2955 88.0012 14.3129C90.2482 12.7121 92.6128 10.0832 94.4779 8.2327C93.9639 9.71603 93.1268 10.8175 92.1575 12.2127C91.2616 13.4023 90.4392 14.6654 89.3671 15.6934C88.5005 16.5159 87.5753 17.1327 86.5766 17.7789C84.7555 18.9685 82.9344 20.1728 81.0839 21.3036C79.4537 22.2876 77.8235 23.2569 76.1199 24.0794C75.6352 24.285 75.1506 24.4759 74.6659 24.6521C74.2547 24.6962 73.8435 24.7403 73.4323 24.7843C73.7994 24.3878 74.1078 23.9178 74.3281 23.4185C74.7834 22.8163 75.2387 22.2142 75.6352 21.568C76.0611 20.7749 76.4724 19.9672 76.8689 19.1594C77.9997 16.7949 79.0131 14.2835 79.1747 11.6987C79.2628 10.1126 79.16 8.37955 78.2494 7.11652C77.2507 5.80943 75.7821 5.04573 74.2106 4.69325C73.0798 4.38484 72.4923 5.00167 72.4629 6.22065C72.786 8.93764 73.0651 11.684 73.5204 14.3863C73.8728 16.3543 74.1959 18.2635 74.1225 20.1728C74.1372 20.9071 74.2694 21.6121 74.1959 22.3611C74.1666 22.8457 74.0491 23.3157 73.8728 23.771C73.6819 24.0941 73.4763 24.4319 73.2854 24.755C73.3882 24.6228 73.4763 24.4906 73.5791 24.3584C73.491 24.5053 73.3882 24.6521 73.2854 24.799C72.5951 24.8724 71.9196 24.9459 71.2293 25.0046C68.2039 25.2983 65.1638 25.6068 62.1384 25.9592C59.0689 26.297 55.9847 26.6789 52.9593 27.5454C46.0861 29.484 39.4772 32.5388 32.8683 35.432C32.6333 35.5348 32.413 35.6523 32.178 35.7551C33.397 34.7564 34.616 33.7431 35.8203 32.715C38.9191 30.1596 41.8711 27.3985 44.6468 24.4465C47.1288 21.803 49.508 19.0566 51.7697 16.2074C53.8112 13.4904 56.1904 10.7735 56.8659 7.35152C57.0128 6.36752 57.3065 5.35415 57.1597 4.38484C56.9541 3.48897 56.0729 3.00432 55.2211 2.97495C53.5027 3.01901 52.3572 4.98698 51.2998 6.23533C50.213 7.68929 49.1409 9.14326 48.0541 10.5972C47.4666 11.3903 46.8498 12.1687 46.2329 12.9324C45.4986 13.7401 44.7496 14.5479 44.1034 15.4437C43.516 16.2368 43.0607 17.1327 42.5466 17.9698C41.9592 18.9097 41.357 19.8497 40.7843 20.7896C38.8163 24.05 36.9511 27.3838 34.8216 30.5414C33.8523 31.9072 32.9564 33.3465 31.8843 34.6242C31.1793 35.3879 30.3569 36.0048 29.5198 36.5922C30.4156 36.0929 31.2968 35.5642 32.1046 34.9033C32.7802 34.3599 33.3382 33.6696 33.9257 33.0234C38.5226 27.9419 41.9739 21.9498 45.5574 16.1193C46.2329 15.15 47.026 14.2982 47.8044 13.4317C48.7296 12.2568 49.6402 11.0819 50.5214 9.87758C51.4466 8.6586 52.3131 7.41025 53.2678 6.22065C53.8258 5.53039 54.3546 4.78137 55.0595 4.25266C55.0889 4.22329 55.1183 4.2086 55.1476 4.17923C55.1329 4.17923 55.1623 4.14987 55.2211 4.1205C55.2211 4.1205 55.2357 4.12048 55.2357 4.1058C55.2357 4.1058 55.2357 4.10581 55.2211 4.1205C55.2211 4.1205 55.2211 4.1205 55.2357 4.1205C55.2945 4.07644 55.3385 4.04705 55.3973 4.01768C55.4707 4.19392 55.5295 4.38485 55.5295 4.57577C55.5001 5.32478 55.2798 7.08715 54.9273 8.20332C54.472 9.59853 53.8846 10.6853 53.2531 11.7281C52.0782 13.4317 50.8151 15.0766 49.5521 16.7068C47.4372 19.3357 45.249 21.8911 42.9432 24.3437C41.3717 25.9739 39.7562 27.5601 38.1995 29.2049C35.6293 31.6135 33.1033 34.0808 30.5625 36.5188C26.6559 38.3546 22.7787 40.2785 18.9455 42.2906C19.3127 41.7765 19.6505 41.2478 19.8855 40.6751C20.3554 40.2491 20.8107 39.8232 21.2366 39.3533C22.0297 38.4133 22.7493 37.4147 23.4543 36.4013C24.4529 34.9327 25.3782 33.4053 26.2594 31.8485C27.0671 30.4092 27.9043 28.97 28.433 27.3985C28.7708 26.3705 28.9029 25.2984 29.1232 24.2409C29.2848 23.2863 29.5051 22.2289 29.2113 21.3183C28.9176 21.0099 28.4623 20.9071 28.0364 20.9658C27.7133 21.0246 27.4343 21.2596 27.1699 21.4652C26.6118 21.9939 26.0978 23.1982 25.9069 23.5066C25.4076 24.4025 24.5264 26.062 24.3942 26.3117C23.3955 28.0447 22.4115 29.763 21.4128 31.496C20.6345 32.8472 19.7239 34.1543 19.2539 35.6523C18.9455 36.5922 18.6224 37.5468 18.4756 38.5162C18.4021 39.2505 18.4168 40.0289 18.0056 40.7044C17.9175 40.8954 16.9482 42.364 16.5957 42.9515C16.7426 42.7165 16.4782 43.0249 16.5516 43.1277C16.6104 43.2599 16.7132 43.3627 16.8307 43.4214C16.4488 43.627 16.0817 43.818 15.6998 44.0236C10.3539 46.9902 5.14026 50.2213 0 53.5698C5.99207 50.4709 11.9254 47.2252 17.8881 44.0676C17.9909 44.1704 18.0937 44.2732 18.1818 44.3907C18.9749 45.2132 19.5477 46.2559 20.5463 46.8434C20.9429 47.1077 21.4128 47.2105 21.8241 47.4455C23.6746 48.3267 25.3929 49.4429 27.2581 50.3094C28.0658 50.7206 28.8442 51.2199 29.7841 51.2493C30.2835 51.264 30.9444 51.1465 31.2528 50.6472C31.3996 50.1478 30.9884 49.5897 30.7241 49.2079C29.7107 47.9595 28.2861 47.1958 27.0084 46.2853C25.9069 45.5216 24.776 44.7873 23.5718 44.1851C22.4703 43.583 21.31 43.0543 20.047 42.9221C22.485 41.6444 24.9376 40.3813 27.4049 39.177C27.3902 39.1917 27.3609 39.2064 27.3315 39.2358C27.1846 39.368 27.0084 39.4708 26.8615 39.603C26.8615 39.6176 26.8615 39.6323 26.8615 39.6323C27.684 40.2051 28.8001 39.8526 29.7547 39.8967C30.9003 40.0142 32.0752 40.3373 33.0592 40.8219C34.381 41.5269 35.5559 42.599 36.8042 43.5095C37.7882 44.2879 39.0806 45.1397 39.815 45.9475C40.5933 46.6378 41.7095 48.268 41.9445 48.8114C42.341 49.5897 42.7523 50.3975 42.8404 51.308C42.8551 51.4402 42.8551 51.543 42.8697 51.6312C42.3117 50.8821 41.7389 49.9569 41.1074 49.2666C40.608 48.7379 40.2702 48.033 39.6681 47.6364C39.0513 47.284 38.5372 47.3133 38.0967 47.093C36.7896 46.5643 34.9684 45.5803 33.4704 44.8166C32.3542 44.1851 31.15 43.7005 30.1072 42.9515C29.1232 42.2759 28.3448 41.3359 27.5371 40.4548C27.4196 40.3079 27.3021 40.161 27.1993 40.0142C27.214 40.0435 27.2287 40.0729 27.2581 40.1023C27.8455 41.0422 28.477 41.9675 29.2554 42.7312C30.2981 43.7592 31.6199 44.376 32.8242 45.1544C34.5425 46.1972 37.3476 47.842 38.6401 48.0623C38.8457 48.2973 39.8297 49.6191 40.3437 50.2359C40.8136 50.8381 41.1808 51.5283 41.6801 52.1158C42.0767 52.6005 42.576 52.9529 43.1488 53.1439C43.1488 53.1439 43.1488 53.1439 43.1635 53.1439C43.1782 53.1439 43.1929 53.1586 43.2222 53.1732C43.56 53.3348 43.9712 53.4082 44.3531 53.2467C44.4265 53.2173 44.4853 53.1585 44.5146 53.0704C44.4999 52.2333 44.5146 51.3668 44.2796 50.5884C43.7803 49.1491 43.0313 47.798 42.0767 46.6671C40.6815 44.9635 38.8016 43.8473 37.0539 42.5843C35.7174 41.6737 34.425 40.6457 32.8683 40.1317C31.5906 39.7351 30.2394 39.412 28.8589 39.5883C28.3155 39.6617 27.7427 39.7645 27.2434 39.5883C27.2727 39.5589 27.3168 39.5148 27.3609 39.4855C27.5665 39.3092 27.7574 39.1183 27.963 38.9421C27.9924 38.9127 28.0364 38.898 28.0805 38.8686C27.8308 39.1036 27.5958 39.3386 27.3462 39.5736C27.8015 39.2211 28.242 38.8686 28.6973 38.5162C31.7815 37.0181 34.895 35.5789 38.0379 34.2424C39.5065 33.6109 40.9899 32.9647 42.4732 32.3478C42.2529 33.1997 42.3851 34.0955 42.4732 34.9327C42.7669 37.635 43.7216 40.1317 44.779 42.5256C45.0874 43.2746 45.3518 44.0676 45.8217 44.7285C46.556 45.6831 47.54 46.3734 48.48 47.093C50.6389 48.7967 53.1943 49.8688 55.8526 50.5297C57.9821 51.1318 60.1116 51.6752 62.2852 52.1158C65.7072 52.8354 69.1438 53.5698 72.6539 53.8635C73.0798 53.8929 73.5351 54.0691 73.961 53.8782C74.0344 53.8194 74.1372 53.746 74.1225 53.6432C74.1225 53.5257 74.0344 53.4376 73.961 53.3788C73.3441 52.997 72.5511 53.0557 71.9049 52.7914C68.4682 51.6458 65.1638 50.001 62.344 47.6952C60.7285 46.4175 58.9955 45.2866 57.4828 43.8767C54.8245 41.2772 52.3131 38.5308 49.5227 36.0782C49.4199 35.9754 49.3171 35.8873 49.1996 35.7992C50.5508 36.2985 51.9019 36.7832 53.2384 37.2678C55.8819 38.2077 58.6136 39.0742 60.7138 40.161C61.8887 40.8072 62.9902 41.5856 64.2238 42.129C65.9128 42.8487 67.7192 43.3186 69.4816 43.8473C71.3321 44.3173 73.1385 44.9341 75.0331 45.2719C76.2667 45.4775 77.5298 45.4335 78.7928 45.36C81.7301 45.0516 84.6968 44.6991 87.5019 45.36C88.6621 45.551 89.7342 45.8006 90.7769 46.3293C90.9679 46.4321 91.1735 46.5496 91.3497 46.6818C89.8076 46.7699 88.2656 46.7406 86.7235 46.8581C84.5205 47.0049 82.6994 47.1518 80.6286 47.0784C79.7327 46.9902 78.9544 46.7406 78.1172 46.535C76.7073 46.1531 75.4737 45.8447 74.0344 45.4188C76.0464 46.1825 78.0585 46.9755 80.144 47.4896C81.7741 47.7686 83.654 47.6805 85.343 47.6805C87.7956 47.5483 89.3377 47.5483 91.6434 47.5043C92.2897 47.4161 93.9345 47.5924 92.7449 46.535C91.6581 45.6538 90.2923 45.2132 88.9558 44.8754C85.9598 44.1704 82.8463 44.0236 79.7181 44.4495C78.3228 44.611 76.9129 44.7285 75.5324 44.5963C74.475 44.4789 73.4763 44.1704 72.4776 43.9061C69.8488 43.1717 67.1611 42.5549 64.6644 41.4828C63.6364 40.9688 62.6818 40.352 61.6831 39.7792C60.4788 39.1624 59.2158 38.6777 57.9527 38.1784C54.5602 36.9888 51.1676 35.8139 47.8044 34.5214C47.5841 34.4333 47.3785 34.3452 47.1729 34.2571C47.1288 34.213 47.0701 34.169 47.026 34.1396C46.512 33.6843 45.9392 33.3172 45.3371 32.9794C45.4399 32.9941 45.5427 33.0087 45.6455 33.0087C45.807 33.0381 45.807 33.0234 45.9098 33.0675C46.042 33.1115 46.1742 33.1556 46.3064 33.1997C46.3798 33.229 46.3945 33.229 46.277 33.185C48.1128 33.934 50.9179 34.6389 53.209 34.8886C55.5882 35.3292 57.9821 35.7404 60.3172 36.3279C62.6377 36.886 64.7379 37.6497 67.5283 38.0462C69.4669 38.3987 71.4496 38.5602 73.3735 39.0155C74.5631 39.2652 75.7674 39.5589 76.7808 40.2198C77.1773 40.5576 78.6606 40.9394 78.2788 39.9114C78.0144 39.368 77.4857 39.0302 77.1185 38.5602C76.1786 37.5615 75.2093 36.5922 74.0785 35.8285C71.6405 34.3011 68.806 33.5668 66.045 32.7884C63.2252 31.9513 60.3613 31.2317 57.424 30.8058C54.5895 30.3505 51.6522 30.5561 48.7443 30.9673C47.1141 31.1729 45.4839 31.4667 43.8537 31.8338C43.8244 31.8338 43.795 31.8191 43.7656 31.8191C47.2463 30.3799 50.7564 29.0728 54.3399 28.1035C57.2184 27.3251 60.141 26.9873 63.0489 26.6642C67.5283 26.1502 72.0224 25.7243 76.5017 25.269C79.8209 24.9753 83.0959 25.269 86.3416 25.6214C87.3403 25.7096 88.3243 25.8418 89.3083 26.0033C89.4258 26.0327 89.558 26.0621 89.6755 26.0767C90.7769 26.3117 91.8638 26.6495 92.8037 27.237C94.1402 28.1916 95.3885 29.3224 96.299 30.7617C97.3858 32.436 98.6048 33.9927 99.7944 35.5789C101.116 37.3119 102.409 39.1036 103.98 40.6016C105.596 42.1584 107.358 43.6564 109.15 44.9782C110.457 45.9328 111.955 46.5937 113.291 47.5043C116.17 49.2666 118.446 50.8528 121.428 52.7767C122.191 53.232 122.896 53.7754 123.66 54.216C124.321 54.5244 125.011 54.7594 125.731 54.8915C125.951 54.9062 126.245 54.8916 126.348 54.6419C126.377 54.4363 126.421 54.216 126.45 54.0104C126.524 53.1879 126.01 52.527 125.672 51.8661C124.996 50.6618 123.924 48.547 122.911 47.093C120.238 43.4949 116.522 40.9835 113.056 38.2959C111.22 36.9006 109.399 35.4907 107.431 34.2864C104.876 32.6856 102.159 31.3785 99.4713 30.0274C96.9159 28.7643 94.3898 27.4573 91.7316 26.4145C92.8624 26.6348 93.9933 26.8845 95.1095 27.1635C97.0187 27.5601 98.1202 27.9272 100.088 28.5587C103.907 29.6749 107.564 31.1876 111.25 32.6122C117.227 34.8886 122.309 37.0769 127.978 39.6617C128.536 39.9114 129.079 40.161 129.637 40.4107C129.902 40.5869 130.181 40.7485 130.46 40.8954C130.269 40.8807 130.078 40.8513 129.902 40.8366C130.122 40.8807 130.342 40.9247 130.563 40.9541C130.592 40.9688 130.636 40.9982 130.68 41.0128C130.739 41.1303 130.856 41.2331 131.018 41.3066C131.047 41.336 131.091 41.3506 131.15 41.38C131.091 41.4388 131.033 41.5122 130.959 41.5709C131.033 41.5122 131.106 41.4534 131.179 41.3947C131.297 41.4388 131.458 41.4828 131.635 41.4975C132.237 41.7766 132.868 42.0409 133.485 42.2759C134.748 42.9074 136.026 43.5242 137.289 44.1411C138.728 44.7579 140.197 45.316 141.695 45.83C141.577 46.0062 141.959 46.1678 142.106 46.1825C142.15 46.1825 142.209 46.1972 142.268 46.2119C142.503 46.3587 142.738 46.5203 142.973 46.6818C143.56 47.0784 144.148 47.5189 144.662 48.0183C144.647 48.0183 144.632 48.0183 144.603 48.0036C144.617 48.0036 144.647 48.0183 144.662 48.0183C144.823 48.1798 144.985 48.3414 145.132 48.5176C145.704 49.1785 146.306 49.7953 146.967 50.3387C147.085 50.4122 147.202 50.4709 147.32 50.5444C148.612 51.499 150.066 52.2186 151.491 52.9529C152.181 53.2907 152.71 53.8929 153.429 54.3188C154.648 55.0971 155.941 55.758 157.218 56.4336C159.275 57.4176 161.61 57.961 163.534 58.5191C164.43 58.8275 165.325 59.1212 166.207 59.4297C167.102 59.7234 167.94 60.1052 168.703 59.9731C168.865 59.9584 169.085 59.7674 168.968 59.5912C168.6 59.1506 168.101 58.7981 167.675 58.4016C166.295 57.2267 164.914 56.0518 163.46 54.9943C162.785 54.4509 162.124 53.8635 161.36 53.4376C157.204 51.2346 152.71 49.7366 148.083 48.6939C148.363 48.7379 148.627 48.7673 148.906 48.7967C148.01 48.6351 147.114 48.4148 146.233 48.2092C146.541 48.3267 146.865 48.4148 147.173 48.5029C146.688 48.4001 146.189 48.2973 145.704 48.2092C145.543 47.9742 145.381 47.7392 145.176 47.5483C144.955 47.3574 144.691 47.2399 144.427 47.1224C144.25 46.9609 144.074 46.7993 143.854 46.6818C143.722 46.579 143.589 46.4909 143.457 46.3881C144.544 46.7259 145.631 47.049 146.732 47.3427C152.431 48.826 158.408 49.6044 164.429 49.0463C166.765 48.8113 169.085 48.3854 171.376 47.7245C173.888 47.1371 176.37 46.3587 178.763 45.3013C182.053 43.7886 185.314 42.0115 188.104 39.5442C188.868 38.8686 189.587 38.1637 190.307 37.444C190.571 37.1797 190.836 36.9007 191.041 36.5775C191.203 36.5629 191.218 36.5188 191.218 36.46ZM134.41 40.9688C135.615 40.8072 136.775 40.4401 137.965 40.1757C138.2 40.1023 138.434 40.0289 138.655 39.9701C138.875 39.9261 139.081 39.8967 139.301 39.8673C139.183 39.8673 139.066 39.882 138.934 39.8967C139.316 39.7792 139.698 39.6617 140.079 39.4855C140.667 39.2945 141.284 39.2798 141.856 39.0595C142.033 39.0008 142.649 38.7658 142.253 38.8833C141.871 39.0008 141.489 39.0596 141.107 39.1036C142.884 38.5749 144.75 38.3105 146.395 37.3412C147.364 36.695 148.172 35.8285 149.141 35.197C150.433 34.3011 151.77 33.4934 153.033 32.5388C154.736 31.3198 156.455 30.1008 158.261 29.0875C158.481 28.97 158.716 28.8525 158.937 28.7497C157.938 29.5574 157.307 29.9393 156.337 30.7764C155.618 31.452 155.001 32.2597 154.281 32.9353C152.431 34.5214 150.492 36.651 148.803 37.7965C147.76 38.5602 147.055 39.3092 146.057 39.6911C142.87 40.5135 139.771 40.8366 136.511 40.9835C135.688 41.0275 134.866 41.0569 134.043 41.0716C134.161 41.0422 134.278 41.0128 134.41 40.9688ZM98.1789 23.7416C99.0601 23.3597 99.9413 22.9926 100.764 22.4639C101.762 21.7883 102.688 20.9659 103.584 20.1434C105.331 18.2929 107.035 16.3837 108.738 14.4744C110.442 12.6533 112.043 11.0084 113.923 9.89226C116.008 8.62923 118.167 7.46899 120.194 6.08847C121.486 5.36883 122.808 4.72263 124.071 3.94425C124.761 3.53303 125.466 3.15118 126.142 2.71058C126.818 2.26999 127.522 1.74129 128.227 1.34476C127.948 2.12314 127.581 2.78402 127.199 3.43022C126.406 4.73732 125.554 6.02972 124.644 7.26338C120.165 13.1967 114.877 17.9551 108.224 20.5399C105.008 21.8177 101.718 22.7723 98.458 23.8591C97.5327 24.1528 96.6221 24.4759 95.7116 24.7843C96.5487 24.4465 97.3565 24.0941 98.1789 23.7416ZM74.2106 7.41025C74.1225 6.76404 74.0491 6.58781 74.1666 6.00035C74.2547 5.72131 74.2694 5.61852 74.3428 5.51571C74.475 5.55977 74.6219 5.60382 74.6806 5.61851C75.1065 5.736 75.4149 5.88287 75.5471 5.97099C76.3108 6.51439 76.8689 6.9256 77.3242 7.74804C78.4844 10.2007 77.9557 14.2101 76.8542 17.3677C76.3549 18.8216 75.8261 20.2756 75.2093 21.7002C75.0624 21.9939 74.9009 22.2876 74.7247 22.5667C74.8568 21.9645 74.8715 21.3477 74.8862 20.7309C74.9303 19.8644 75.0771 19.0126 75.0771 18.1461C75.0184 15.2088 74.5631 12.3449 74.4309 9.4223C74.3428 8.74673 74.3134 8.07114 74.2106 7.41025ZM20.8254 36.9153C21.501 34.3158 22.8962 32.5975 24.1886 30.1742C25.3488 28.1475 26.4944 26.1061 27.5812 24.0206C27.5958 23.9913 27.6252 23.9325 27.6546 23.8738C27.493 24.8724 27.2581 25.9445 27.0671 26.8698C26.6265 28.4559 25.8628 29.954 25.1579 31.4373C23.8802 34.0809 22.5584 36.7244 20.9282 39.1624C20.7079 39.4561 20.4729 39.7498 20.2232 40.0435C20.3701 38.8686 20.4142 38.1784 20.8254 36.9153ZM22.4409 44.5523C24.1739 45.4188 25.246 46.1825 26.979 47.3721C28.1833 48.2092 29.931 49.3254 29.9163 50.3681C29.8722 50.3975 29.7694 50.4562 29.7254 50.4709C29.6666 50.4856 29.696 50.4709 29.7254 50.4709C29.7107 50.4709 29.696 50.4856 29.6813 50.4856C29.6813 50.4856 29.6813 50.4856 29.6666 50.4856C29.6666 50.4856 29.6666 50.4856 29.6519 50.4856C29.6519 50.4856 29.6519 50.4856 29.6373 50.4856C29.6226 50.4856 29.6079 50.4856 29.5932 50.4856C29.6079 50.4856 29.6079 50.4856 29.6226 50.4856C29.6079 50.4856 29.5932 50.4856 29.5638 50.4856C29.5932 50.4856 29.6079 50.4856 29.6226 50.4856C29.5785 50.4856 29.5051 50.4709 29.461 50.4562C28.6533 50.0597 26.3181 49.017 24.9523 48.312C24.027 47.8567 23.1018 47.4308 22.1472 47.049C21.6772 46.8581 21.1779 46.7699 20.752 46.4615C19.7973 45.8594 19.1071 44.9048 18.2259 44.2292C18.1525 44.1704 18.0937 44.1117 18.0203 44.0529C18.2846 43.9061 18.5637 43.7739 18.828 43.627C20.1498 43.6858 21.2072 43.8326 22.4409 44.5523ZM55.0301 31.2464C58.8192 31.5401 62.4909 32.5094 66.089 33.5521C68.8207 34.3746 71.758 35.0208 73.9903 36.8713C74.754 37.5469 75.5031 38.2518 76.1933 39.0155C75.3415 38.6924 74.4603 38.4721 73.5497 38.2959C71.1705 37.7671 68.7179 37.5615 66.3093 37.0769C64.5616 36.7685 63.2545 36.2691 61.2278 35.7698C58.2171 35.0061 55.1329 34.4039 52.0341 33.9487C50.0808 33.6256 49.273 33.3172 47.9659 32.9206C47.0554 32.5828 46.0273 32.2157 45.1021 32.1863C44.8818 32.1569 44.6468 32.0688 44.4265 31.9954C47.9659 31.452 51.5201 31.1436 55.0301 31.2464ZM43.8831 33.2731C44.544 33.8018 45.293 34.213 46.0861 34.5655C46.512 34.8886 46.9232 35.2264 47.3638 35.5201C49.8164 37.5762 51.9607 39.7498 53.9874 41.8206C55.9554 44.0236 58.2318 45.8741 60.6257 47.5483C63.1958 49.7072 66.1184 51.4109 69.2026 52.6739C65.7219 51.9836 62.2118 51.3521 58.7752 50.4856C56.8953 49.9716 54.8686 49.5016 53.0181 48.7379C51.6816 48.1651 50.4773 47.3427 49.3171 46.4468C48.5387 45.83 47.6869 45.2572 47.1435 44.3907C46.7763 43.8326 46.3945 42.6431 45.9539 41.7178C45.0287 39.6617 44.2943 37.4734 44.0006 35.1676C43.9272 34.5214 43.8391 33.8312 43.8831 33.2731ZM101.704 31.8632C103.965 33.0822 106.198 34.3893 108.327 35.8432C110.295 37.2384 112.175 38.7365 114.099 40.1904C117.536 42.8046 121.075 45.5656 123.102 49.6044C123.851 51.0143 124.497 51.9836 124.982 53.1145C125.114 53.4816 125.114 53.6432 125.07 53.9222C124.967 53.8929 124.864 53.8488 124.776 53.8047C121.516 51.778 118.373 49.5751 115.112 47.5483C113.761 46.6378 112.322 45.8888 110.956 45.0369C109.678 44.1998 108.548 43.1718 107.373 42.1878C104.318 39.7498 102.1 36.416 99.5888 33.42C98.2964 31.9513 97.2537 30.233 95.7997 28.9259C95.3004 28.4853 94.7717 28.0741 94.2283 27.7069C96.7396 29.0581 99.1923 30.5267 101.704 31.8632ZM91.8784 26.532C91.5406 26.4292 91.2029 26.3411 90.8504 26.253C91.1 26.297 91.3497 26.3411 91.5847 26.3852C91.6875 26.4439 91.7903 26.488 91.8784 26.532ZM131.517 40.2932C131.517 40.2932 131.502 40.2932 131.502 40.2785C131.591 40.0289 131.693 39.7645 131.796 39.5295C132.296 38.2665 133.177 37.2237 133.955 36.1223C135.086 34.7564 135.321 32.95 136.173 31.4373C137.715 28.9259 139.36 26.4145 140.27 23.58C140.549 22.8163 140.623 21.9939 140.902 21.2302C141.93 23.6535 141.46 27.1782 140.27 30.0568C139.374 32.1863 138.038 34.1102 136.452 36.0048C135.571 37.0035 134.645 37.9434 133.705 38.898C133.382 39.0889 133.059 39.2798 132.751 39.5001C133.001 39.3826 133.25 39.2505 133.485 39.1183C133.338 39.2652 133.191 39.4267 133.045 39.5736C132.663 39.8379 132.281 40.1023 131.884 40.3373C131.752 40.3373 131.635 40.3226 131.517 40.2932ZM132.031 40.3813C132.193 40.3079 132.354 40.2198 132.516 40.1317C132.428 40.2198 132.325 40.3226 132.237 40.4107C132.163 40.4107 132.105 40.396 132.031 40.3813ZM160.626 53.9957C162.506 55.3468 164.562 56.9917 166.471 58.6513C163.93 57.6967 161.624 57.3001 159.172 56.3308C158.041 55.9049 156.719 55.1118 155.441 54.4656C154.501 53.981 153.826 53.3935 152.915 52.8061C151.006 51.8368 148.891 50.9849 147.261 49.7513C146.82 49.3988 146.395 49.0023 146.042 48.547C145.983 48.4736 145.939 48.4148 145.895 48.3414C150.977 49.6632 155.999 51.4402 160.626 53.9957ZM187.252 38.6924C185.446 40.4107 183.581 41.5709 181.304 42.8633C177.985 44.7579 174.431 46.1237 170.803 46.9462C168.527 47.5924 166.221 48.0623 163.915 48.2826C162.285 48.4295 160.655 48.4736 159.04 48.4295C159.172 48.4001 159.319 48.3708 159.451 48.3561C160.332 48.1064 161.228 47.9155 162.124 47.6658C163.093 47.3133 164.048 46.8874 165.002 46.4615C164.562 46.7259 164.106 46.9609 163.666 47.1812C163.049 47.4896 162.417 47.7686 161.786 48.0477C163.387 47.5043 165.002 46.9755 166.486 46.0944C168.336 44.9341 169.731 43.113 171.523 41.8353C172.757 40.9541 174.196 40.6016 175.591 40.2051C177.897 39.4561 180.276 39.2799 182.641 39.0008C183.845 38.8833 185.049 38.9274 186.254 38.663C186.724 38.5749 187.193 38.4574 187.663 38.3252C187.517 38.4427 187.384 38.5602 187.252 38.6924Z" fill="#F8F8F8"/>
</svg>
