<svg width="220" height="166" viewBox="0 0 220 166" fill="none" xmlns="http://www.w3.org/2000/svg">
<circle cx="98.715" cy="88.2887" r="63.173" fill="#DFEDE3"/>
<path d="M158.623 101.865C157.44 102.45 156.047 102.353 154.827 102.247C153.366 102.188 151.964 101.919 150.465 101.793C148.966 101.667 147.515 101.782 146.035 102.002C144.315 102.269 142.633 102.604 140.961 103.112C137.857 104.08 134.954 105.556 132.051 107.033C129.148 108.509 126.217 110.091 123.506 111.904C121.064 113.563 118.738 115.424 116.959 117.774C115.372 119.837 114.266 122.428 114.965 125.058C115.359 126.527 116.155 127.766 116.952 129.004C117.72 130.349 118.209 131.674 118.122 133.238C118.034 136.05 117.427 138.891 118.031 141.665C118.28 143.038 118.942 144.354 120.066 145.228C120.978 146.044 122.073 146.4 123.197 146.65C125.83 147.199 128.559 146.98 131.221 146.799C133.883 146.618 136.496 146.821 139.119 146.573C140.359 146.401 141.666 146.19 142.743 145.577C143.685 145.04 144.54 144.196 144.935 143.169C145.695 141.221 144.812 139.051 143.852 137.371C143.276 136.363 142.672 135.46 142.096 134.452C141.251 132.973 140.608 131.379 140.1 129.709C139.016 126.407 138.48 122.97 137.569 119.658C136.821 116.788 135.823 113.792 133.826 111.545C133.01 110.585 132.001 109.912 130.8 109.528C129.494 109.114 128.043 109.228 126.678 109.65C125.688 109.947 124.823 110.618 124.496 111.607C124.168 112.595 124.264 113.699 124.321 114.736C124.321 115.36 124.388 115.945 124.349 116.502C124.291 117.337 124.127 118.143 124.136 118.94C124.145 119.737 124.327 120.524 124.442 121.349C124.557 122.175 124.604 123.039 124.585 123.941C124.468 126.235 123.851 128.903 125.08 131.054C125.771 132.263 126.933 133.205 128.019 134.012C128.307 134.204 128.98 133.82 128.653 133.561C127.501 132.792 126.338 131.851 125.676 130.536C125.177 129.662 125.082 128.558 125.063 127.589C125.093 126.235 125.228 124.911 125.296 123.625C125.354 122.79 125.278 122.031 125.163 121.206C125.086 120.447 124.904 119.66 124.895 118.864C124.886 118.067 125.021 117.366 125.117 116.598C125.185 115.936 125.118 115.351 125.118 114.727C125.1 113.757 124.937 112.692 125.264 111.703C125.553 110.648 126.428 110.149 127.389 109.958C128.725 109.642 130.051 109.777 131.3 110.401C133.586 111.593 134.91 114.224 135.803 116.566C136.983 119.725 137.615 123.017 138.382 126.233C139.11 129.382 140.079 132.483 141.759 135.267C142.824 136.977 144.034 138.782 144.388 140.807C144.542 141.7 144.493 142.708 143.983 143.533C143.445 144.464 142.512 145.174 141.455 145.509C140.196 145.959 138.812 146.035 137.496 146.073C136.179 146.111 134.825 146.081 133.575 146.08C131.115 146.146 128.703 146.452 126.234 146.345C123.765 146.238 121.036 145.833 119.557 143.557C118.041 141.214 118.359 138.181 118.63 135.532C118.727 134.141 118.997 132.739 118.68 131.405C118.431 130.032 117.711 128.928 117.059 127.786C116.3 126.614 115.638 125.299 115.456 123.888C115.284 122.649 115.592 121.315 116.083 120.145C117.199 117.726 119.237 115.674 121.266 114.072C123.727 112.134 126.447 110.495 129.177 109.028C130.522 108.26 131.974 107.522 133.396 106.89C134.713 106.228 136.03 105.566 137.452 104.934C140.499 103.553 143.786 102.749 147.101 102.463C148.552 102.349 149.869 102.311 151.233 102.513C152.597 102.716 154.029 102.88 155.384 102.909C156.566 102.948 157.777 102.882 158.824 102.374C159.228 102.144 159.065 101.702 158.623 101.865Z" fill="#727272"/>
<path d="M123.267 110.704C120.777 112.123 118.509 113.773 116.058 115.259C113.674 116.707 111.011 118.136 108.224 118.566C102.41 119.474 97.2239 115.392 93.7672 111.215C93.2102 110.552 92.7206 109.851 92.2982 109.112C91.8374 108.305 91.5113 107.422 91.358 106.529C90.9075 104.648 90.9375 102.67 91.0059 100.76C90.977 100.866 90.9097 100.904 90.8808 101.01C92.1113 100.041 93.9942 100.839 95.368 101.214C96.9533 101.647 98.7309 101.792 99.9807 100.545C100.308 100.18 99.7025 99.9015 99.4044 100.16C98.4526 101.149 97.1266 101.013 95.9257 100.629C94.6575 100.283 93.3798 99.7634 92.0345 99.9066C91.4483 99.9735 90.6603 100.155 90.3045 100.626C90.141 100.808 90.2273 101.115 90.1695 101.326C90.1502 101.604 90.1692 101.95 90.1498 102.228C90.1494 102.852 90.178 103.371 90.1776 103.995C90.3012 106.241 90.8092 108.535 92.1629 110.436C94.4865 113.567 97.454 116.419 101.085 118.091C102.795 118.899 104.659 119.351 106.6 119.314C108.541 119.276 110.386 118.759 112.116 118.04C115.845 116.449 119.114 114.051 122.469 111.961C122.872 111.731 123.276 111.501 123.68 111.27C124.045 110.973 123.603 110.512 123.267 110.704Z" fill="#727272"/>
<path d="M118.01 109.156C118.376 107.61 118.608 106.142 118.589 104.549C118.513 103.166 118.226 101.726 117.977 100.354C117.824 99.461 117.67 98.5682 117.69 97.666C117.681 96.8693 117.739 96.0343 117.624 95.2087C117.576 94.9688 117.567 94.796 117.519 94.556C117.442 94.4216 117.385 94.0088 117.308 93.8744C117.202 93.8455 116.962 93.8933 116.789 93.9028C116.616 93.9123 116.405 93.8546 116.232 93.8641C115.463 93.7677 114.723 93.5657 114.022 93.4309C112.475 93.0653 110.611 92.6131 109.093 93.3897C108.958 93.4664 108.862 93.6103 108.727 93.687C108.66 93.7254 108.497 93.9077 108.564 93.8693C109.948 93.1694 111.524 93.4295 112.965 93.7663C113.705 93.9682 114.512 94.1319 115.28 94.2283C115.597 94.3149 115.943 94.2959 116.328 94.3441C116.433 94.373 116.741 94.2868 116.847 94.3156C116.991 94.4117 117.086 94.8917 117.058 94.9972C117.46 96.6388 117.036 98.3951 117.333 100.008C117.621 101.448 117.975 102.849 118.09 104.299C118.223 106.094 117.973 107.841 117.578 109.491C117.616 109.558 117.779 109.376 117.847 109.338C117.712 109.415 117.981 109.261 118.01 109.156Z" fill="#727272"/>
<path d="M118.906 108.378C116.214 109.913 113.359 112.253 109.996 111.675C108.805 111.463 107.671 111.04 106.605 110.579C105.327 110.06 104.079 109.435 102.964 108.734C101.956 108.061 100.842 107.36 100.16 106.323C100.006 106.054 99.4872 106.707 99.6696 106.87C100.274 107.773 101.216 108.483 102.119 109.127C103.271 109.896 104.52 110.52 105.836 111.106C107.008 111.597 108.18 112.087 109.371 112.299C110.88 112.597 112.36 112.377 113.715 111.783C115.551 111.093 117.118 109.932 118.8 108.974C118.934 108.897 119.098 108.715 119.088 108.542C119.184 108.398 119.108 108.263 118.906 108.378Z" fill="#727272"/>
<path d="M114.584 120.643C108.529 124.095 102.415 128.382 95.3424 129.117C93.4782 129.288 91.6333 129.182 89.7117 128.941C87.7516 128.632 85.7916 128.324 83.7931 127.949C81.7947 127.573 79.7579 127.13 77.7594 126.755C76.0396 126.399 74.3871 126.004 72.6768 125.821C69.3236 125.416 65.6338 125.203 62.395 126.247C60.1077 126.927 57.9835 128.049 55.936 129.305C53.7924 130.705 51.764 132.307 50.2446 134.331C48.8503 136.106 47.6864 138.285 47.6754 140.607C47.5101 143.909 49.536 146.675 51.6774 149.018C52.897 150.372 54.2895 151.717 55.3072 153.186C56.4401 154.857 57.3711 156.642 57.9273 158.553C58.1478 159.407 58.301 160.3 58.2813 161.202C58.2904 161.999 58.165 162.872 58.1742 163.669C58.1932 164.014 58.1449 164.398 58.2696 164.773C58.3175 165.013 58.3171 165.637 58.6053 165.829C58.7878 165.992 59.2394 166.002 59.4124 165.993C59.691 166.012 60.0369 165.993 60.2772 165.945C61.5457 165.667 62.7185 164.91 63.6414 164.027C64.6701 163.174 65.5163 162.157 66.4392 161.274C67.5929 160.171 68.5258 158.837 69.4586 157.504C70.4204 156.064 71.3437 154.558 72.5936 153.311C74.6992 151.22 77.6593 150.156 79.4384 147.805C80.3134 146.683 80.7946 145.339 80.7859 143.919C80.8444 142.46 80.5185 140.953 80.0965 139.589C79.7034 138.121 79.1757 136.729 78.4078 135.384C77.7935 134.309 76.9195 133.56 75.8437 132.926C73.4133 131.638 70.406 131.214 67.7248 131.673C65.5242 132.037 63.0924 133.245 62.2455 135.509C61.5814 137.314 62.3201 139.387 62.9725 141.154C63.6633 142.987 64.6038 144.946 64.4009 146.933C64.3138 147.873 63.8714 148.66 63.1791 149.322C63.381 149.207 63.5156 149.13 63.7558 149.083C62.997 148.535 62.6324 147.585 62.3063 146.701C61.9322 145.578 61.6926 144.378 61.4915 143.245C61.1181 140.874 60.8121 138.465 60.9576 136.065C61.0834 134.568 61.3148 133.1 61.6136 131.593C61.9218 130.259 62.1244 128.896 62.4327 127.562C62.7121 126.334 63.1549 124.923 64.2603 124.204C65.2985 123.523 66.5381 123.351 67.7778 123.179C70.603 122.815 73.4758 123.316 76.2532 122.713C76.3204 122.675 76.926 122.33 76.7819 122.234C72.7766 119.438 67.7712 118.015 64.4775 114.279C62.9603 112.56 61.7894 110.198 62.2519 107.885C62.6567 105.783 64.3008 104.133 65.7142 102.704C66.4353 101.936 67.1948 101.236 67.9159 100.469C68.0794 100.286 68.2428 100.104 68.4831 100.056C68.7233 100.008 69.0404 100.095 69.2517 100.153C70.2413 100.48 71.0962 100.883 72.0569 101.316C73.1232 101.777 74.2568 102.2 75.3615 102.729C77.571 103.786 79.9245 104.939 81.6242 106.821C83.0646 108.406 83.6208 110.316 83.389 112.409C83.1955 114.568 82.3008 116.593 81.1851 118.387C80.0694 120.181 78.7712 121.812 77.2522 123.213C76.9542 123.472 76.5889 123.769 76.2908 124.028C76.4254 123.951 76.5984 123.942 76.8002 123.827C75.2636 122.386 74.7557 120.092 74.2284 118.076C73.6627 115.993 73.1836 113.593 71.7337 111.835C70.9175 110.875 69.88 110.308 68.7175 109.991C68.5062 109.933 68.0158 110.48 68.1215 110.509C72.9349 111.596 73.0275 117.691 74.4474 121.426C74.8504 122.444 75.3591 123.49 76.1658 124.278C76.3098 124.374 76.5406 124.153 76.6752 124.076C78.271 122.81 79.7132 121.275 80.9057 119.616C82.2616 117.773 83.3294 115.739 83.936 113.522C84.4176 111.555 84.467 109.299 83.363 107.523C82.067 105.41 79.7713 104.046 77.6291 102.951C75.4486 101.788 73.0757 100.913 70.8373 99.9616C70.2321 99.6829 69.5885 99.337 68.9062 99.5478C68.0893 99.8353 67.4354 100.564 66.8778 101.15C65.3682 102.723 63.6763 104.133 62.5317 106.033C61.993 106.963 61.5985 107.99 61.5499 108.998C61.5107 110.179 61.9232 111.369 62.4703 112.483C63.6412 114.845 65.7446 116.497 67.9347 117.832C70.1631 119.235 72.5455 120.283 74.7356 121.618C75.2735 121.935 75.7441 122.291 76.282 122.608C76.4455 122.425 76.6474 122.31 76.8108 122.128C74.2065 122.722 71.4778 122.317 68.8544 122.565C66.4712 122.765 63.665 123.474 62.5106 125.825C61.8853 127.072 61.6827 128.435 61.4128 129.836C61.1141 131.343 60.748 132.888 60.555 134.424C60.2946 135.998 60.2072 137.562 60.3312 139.185C60.4266 140.288 60.5221 141.392 60.6848 142.458C60.8282 143.802 61.0772 145.174 61.4608 146.47C61.7965 147.526 62.209 148.717 63.083 149.466C63.227 149.562 63.5251 149.303 63.6596 149.226C64.3519 148.565 64.9 147.807 65.0543 146.828C65.247 145.916 65.0938 145.023 64.8733 144.169C64.3844 142.22 63.4534 140.434 62.9644 138.485C62.5139 136.604 62.6112 134.588 64.207 133.322C65.1684 132.507 66.5042 132.191 67.7438 132.019C69.1565 131.837 70.5497 131.934 71.9141 132.136C73.2111 132.377 74.5561 132.858 75.7376 133.521C76.7462 134.193 77.4856 135.019 78.0999 136.094C78.7622 137.41 79.3282 138.869 79.6829 140.271C80.0377 141.672 80.3251 143.112 80.2282 144.504C80.1697 145.963 79.6212 147.345 78.5348 148.41C77.5829 149.398 76.4102 150.155 75.2758 150.98C74.0069 151.882 72.7669 152.678 71.7573 153.877C70.642 155.047 69.8532 156.477 68.9204 157.811C68.4395 158.53 68.0259 159.211 67.5066 159.864C67.0547 160.478 66.5259 160.957 65.9682 161.543C65.0837 162.492 64.1991 163.442 63.132 164.229C62.1707 165.044 60.9595 165.734 59.7298 165.455C59.6241 165.426 59.4511 165.436 59.307 165.34C59.163 165.244 59.0767 164.936 59.0672 164.764C58.9425 164.389 58.9523 163.938 58.8949 163.525C58.8858 162.729 58.9823 161.961 58.9732 161.164C59.1578 157.584 57.2957 154.012 54.9623 151.333C52.6962 148.615 49.7188 146.214 48.6927 142.7C47.283 137.891 50.6871 133.545 54.2824 130.782C56.1474 129.363 58.3005 128.135 60.4726 127.254C61.6933 126.736 62.9907 126.353 64.2976 126.142C66.0178 125.875 67.7859 125.847 69.4961 126.03C73.0129 126.253 76.462 127.138 79.9689 127.812C81.9 128.226 83.7928 128.573 85.7528 128.881C87.6072 129.16 89.4999 129.507 91.3448 129.614C98.2053 130.069 104.443 126.78 110.192 123.414C111.672 122.571 113.046 121.698 114.527 120.854C114.594 120.816 114.93 120.624 114.854 120.49C114.854 120.49 114.652 120.605 114.584 120.643Z" fill="#727272"/>
<path d="M65.8766 120.787C60.0521 123.395 53.7573 125.023 47.4818 126.373C45.9731 126.698 44.4932 126.918 43.0228 127.311C41.8215 127.55 40.6971 127.924 39.5726 128.297C37.2853 128.977 34.6615 129.849 32.2213 129.013C31.0204 128.628 29.9062 127.927 28.8593 127.187C27.8123 126.448 26.7365 125.813 25.7568 125.035C23.4421 123.326 21.3869 121.289 19.9663 118.803C18.8144 116.786 18.0566 114.367 18.3079 111.996C18.4241 110.326 18.9247 108.704 19.3581 107.121C19.9165 105.288 20.5421 103.417 21.5232 101.699C22.1485 100.452 23.0719 98.9452 24.4655 98.4181C24.773 98.3319 25.0133 98.284 25.2919 98.3034C25.0422 98.1784 24.8597 98.0152 24.6483 97.9574C24.0607 100.52 23.8574 103.131 24.4132 105.665C24.6528 106.865 25.0652 108.055 25.545 109.207C26.0632 110.427 26.6775 111.502 26.8882 112.808C27.0604 114.046 26.9924 115.332 26.8571 116.657C26.7701 117.597 26.5774 118.509 26.1733 119.363C25.7981 120.111 25.2405 120.697 24.7212 121.349C24.0385 122.184 23.3174 122.951 22.7403 123.815C19.9707 127.71 18.075 132.355 16.9769 136.99C16.4087 139.274 16.119 141.578 16.2138 143.929C16.2708 144.966 16.3952 145.964 16.6252 146.991C16.932 148.153 17.2099 149.42 17.6897 150.572C18.5436 152.848 20.003 154.778 22.4432 155.614C23.327 155.912 24.3071 156.066 25.2008 155.913C26.1618 155.722 27.046 155.396 27.8534 154.936C29.7085 153.967 31.4005 152.557 32.6602 150.859C33.2084 150.101 33.6893 149.382 33.9876 148.499C34.286 147.616 34.3058 146.714 34.2198 145.783C34.0673 143.642 33.1941 141.645 32.292 139.754C31.313 137.728 30.1706 135.884 28.9898 133.973C28.0778 132.533 27.3388 131.083 26.5613 129.566C25.6976 127.742 24.7955 125.851 23.7299 124.142C22.8562 122.768 21.7329 121.27 20.1765 120.732C19.9268 120.607 19.3984 120.463 19.2349 120.645C18.9369 120.904 18.754 121.365 18.6001 121.72C18.3017 122.603 18.2147 123.543 18.2333 124.513C18.2417 126.557 18.7691 128.573 19.1234 130.599C19.5352 133.037 19.601 135.494 19.1768 137.874C19.0032 139.132 18.6565 140.398 18.3771 141.627C18.3194 141.838 19.0302 142.146 19.1264 142.002C19.9258 138.873 20.4849 135.792 20.1312 132.519C19.8829 129.898 19.0484 127.345 19.0404 124.676C19.0027 123.361 19.2342 121.893 20.0804 120.876C20.0131 120.914 20.0131 120.914 19.9074 120.885C21.0893 120.925 21.9918 122.192 22.6255 122.989C23.5664 124.324 24.3438 125.841 25.0829 127.291C25.7451 128.606 26.3401 129.96 27.0024 131.275C27.6646 132.59 28.5287 133.791 29.2199 135.001C31.015 137.987 32.9637 141.242 33.4709 144.784C33.6911 146.262 33.5653 147.759 32.8054 149.084C32.0167 150.513 30.8052 151.828 29.5074 152.835C28.2096 153.842 26.7004 154.791 25.1243 155.155C23.4137 155.596 21.5787 155.038 20.3303 153.789C18.8994 152.377 18.3048 150.4 17.8158 148.451C17.3364 146.675 17.0011 144.995 17.0406 143.191C17.1005 139.236 18.1694 135.33 19.5648 131.684C20.9024 128.248 22.6628 124.928 25.0763 122.127C25.9897 121.071 26.9416 120.083 27.3555 118.778C27.625 118.001 27.6832 117.166 27.7413 116.331C27.79 115.323 27.9059 114.277 27.7815 113.278C27.4945 111.215 26.3232 109.477 25.6613 107.537C24.9994 105.598 24.818 103.563 24.9153 101.547C24.9928 100.434 25.176 99.3495 25.4265 98.2266C25.4843 98.0155 24.9559 97.8712 24.7829 97.8807C23.428 97.8512 22.3511 99.0887 21.6106 100.135C20.4854 101.756 19.7925 103.666 19.1668 105.537C18.57 107.303 18.0789 109.097 17.7992 110.95C17.5001 113.08 17.7871 115.144 18.6604 117.141C19.8119 119.782 21.742 122.067 23.8933 123.959C24.9498 124.872 26.1024 125.64 27.255 126.409C28.302 127.149 29.4162 127.85 30.5304 128.551C31.6063 129.185 32.7783 129.676 34.0369 129.849C35.2572 129.955 36.4969 129.783 37.6308 129.582C38.8994 129.305 40.1968 128.922 41.4942 128.538C42.7917 128.155 44.0602 127.878 45.396 127.562C51.8828 126.27 58.4274 124.766 64.6073 122.313C65.3186 121.996 66.0682 121.747 66.8468 121.393C66.6932 121.124 66.1169 120.739 65.8766 120.787Z" fill="#727272"/>
<path d="M43.0423 127.656C41.3518 126.571 40.1132 124.871 39.2495 123.047C38.4914 121.251 38.0603 119.091 38.7532 117.182C39.5424 115.128 41.8783 113.44 44.1649 114.008C45.5387 114.383 46.7682 115.286 47.392 116.534C47.9391 117.648 47.8616 118.761 47.294 119.798C45.8994 122.196 43.3425 123.654 41.4293 125.457C41.362 125.496 41.3042 125.707 41.3426 125.774C41.4673 126.148 41.6593 126.484 41.784 126.859C41.9471 127.3 42.6584 126.984 42.4953 126.542C42.3706 126.168 42.1786 125.832 42.0539 125.458C42.025 125.563 41.9961 125.669 41.9672 125.774C43.8804 123.971 46.3027 122.59 47.7742 120.326C48.4474 119.318 48.794 118.051 48.4488 116.823C48.0557 115.354 46.8841 114.24 45.5296 113.586C44.1751 112.933 42.753 112.942 41.4362 113.603C40.3212 114.15 39.3888 114.859 38.7156 115.867C37.4653 117.738 37.5984 120.157 38.2314 122.201C39.018 124.515 40.4965 126.791 42.5808 128.097C42.8401 128.395 43.4362 127.877 43.0423 127.656Z" fill="#727272"/>
<path d="M21.213 120.675C19.0796 121 17.0136 121.287 14.8802 121.612C13.333 121.87 11.8242 122.196 10.2865 122.627C8.9891 123.01 7.62439 123.432 6.41326 124.122C5.60584 124.582 4.67336 125.292 4.58633 126.233C4.43202 127.212 5.23872 127.999 5.92071 128.412C7.14062 129.142 8.67794 129.335 10.0423 129.538C11.9255 129.712 13.7993 129.713 15.6346 129.646C17.5373 129.542 19.4015 129.37 21.2562 129.026C22.7361 128.806 24.1776 128.519 25.6096 128.059C25.8499 128.011 26.0517 127.896 26.2536 127.781C26.3882 127.704 26.6573 127.551 26.6478 127.378C26.6383 127.205 26.4653 127.215 26.3307 127.291C25.1774 127.771 23.9088 128.048 22.7076 128.288C21.0258 128.623 19.2673 128.823 17.5087 129.024C15.6445 129.195 13.8092 129.261 11.9643 129.155C10.3981 129.068 8.89917 128.942 7.44852 128.432C6.56467 128.134 5.45995 127.606 5.22993 126.578C5.04782 125.791 5.5382 125.244 6.14376 124.899C7.18192 124.218 8.37367 123.806 9.49813 123.433C10.9301 122.973 12.3716 122.686 13.8804 122.36C16.11 121.891 18.349 121.595 20.5881 121.299C20.6554 121.26 20.761 121.289 20.8283 121.251C21.2416 121.193 21.6262 120.618 21.213 120.675Z" fill="#727272"/>
<path d="M105.045 100.509C104.661 99.8372 104.277 99.1651 103.999 98.5218C103.874 98.1474 103.711 97.7058 103.759 97.3219C103.788 97.2163 103.788 97.2163 103.817 97.1107L103.846 97.0052C103.846 97.0052 103.913 96.9668 103.875 96.8996C103.971 96.7557 104.038 96.7173 104.202 96.535C104.365 96.3528 104.432 96.3144 104.701 96.161C104.971 96.0076 105.172 95.8925 105.442 95.7391C106.182 95.3172 106.855 94.9336 107.595 94.5117C107.998 94.2816 107.691 93.7439 107.288 93.9741C106.615 94.3576 105.942 94.7411 105.202 95.163C104.731 95.4315 104.192 95.7384 103.76 96.0741C103.462 96.3331 103.135 96.6976 103.019 97.1199C102.904 97.5421 102.932 98.0605 103.095 98.5021C103.383 99.3181 103.844 100.125 104.266 100.864C104.497 101.267 105.237 100.845 105.045 100.509Z" fill="#727272"/>
<path d="M155.913 102.43C150.919 97.4356 145.406 93.0939 139.932 88.8194C138.52 87.7531 137.175 86.6485 135.725 85.5151C134.419 84.4777 133.074 83.3731 131.672 82.4796C129.04 80.6832 126.149 79.2129 123.199 77.9538C120.212 76.6275 117.099 75.5506 114.054 74.4354C111.364 73.474 108.529 73.0405 105.637 73.4419C102.85 73.8722 100.351 75.1186 98.2648 76.9315C96.5728 78.3415 95.1401 80.0492 94.2453 82.0739C92.8214 85.2022 92.3292 88.8686 92.7596 92.2763C93.1231 95.0984 94.1591 98.1609 97.0026 99.3912C98.4244 100.006 99.9522 100.026 101.384 99.5665C102.922 99.1355 104.402 98.2917 105.633 97.3229C106.729 96.4309 107.748 95.4044 108.767 94.378C110.113 92.987 111.421 91.5288 112.661 90.1089C113.863 88.6219 115.065 87.1348 116.084 85.4845C116.854 84.3331 117.614 83.0089 117.778 81.5789C117.788 81.1277 117.798 80.6766 117.567 80.2734C117.452 80.0717 117.27 79.9084 117.126 79.8124C116.943 79.6491 116.732 79.5914 116.52 79.5337C116.136 79.4855 115.732 79.7156 115.357 79.8401C111.946 80.894 108.697 82.3895 105.458 84.0577C103.872 84.8727 102.286 85.6876 100.806 86.5314C101.055 86.6564 101.267 86.7141 101.516 86.839C102.074 86.2538 102.785 85.9375 103.65 85.89C103.4 85.7651 103.189 85.7073 103.007 85.5441C102.006 88.1639 100.601 91.0138 98.3037 92.769C98.3037 92.769 98.8511 93.2589 99.0145 93.0766C101.312 91.3214 102.717 88.4714 103.718 85.8516C103.746 85.7461 103.18 85.5346 103.074 85.5057C102.209 85.5532 101.459 85.8023 100.835 86.4259C100.767 86.4642 101.411 86.8102 101.545 86.7334C106.534 84.068 111.619 81.2585 117.087 79.7452C116.876 79.6874 116.664 79.6297 116.415 79.5048C117.135 79.9852 117.019 81.0313 116.817 81.7703C116.47 83.0371 115.807 84.2173 115.104 85.3303C113.287 88.2376 110.998 90.7895 108.604 93.3125C106.835 95.212 104.999 97.1498 102.701 98.2811C101.317 98.9809 99.7891 99.5848 98.1845 99.4303C97.0699 99.3528 96.1382 98.8148 95.466 97.9505C93.6511 95.8666 93.2397 92.8045 93.299 90.0977C93.3392 87.0454 93.9656 83.9263 95.4853 81.278C96.4953 79.4549 98.0721 77.8432 99.7352 76.5388C101.735 75.0426 104.003 74.0169 106.482 73.6728C109.135 73.3192 111.758 73.695 114.304 74.5604C117.061 75.4834 119.789 76.512 122.489 77.6462C125.188 78.7804 127.83 80.1257 130.308 81.6533C132.825 83.2481 135.12 85.2364 137.511 87.0807C142.371 90.9037 147.366 94.65 151.937 98.9047C153.07 99.9516 154.204 100.999 155.27 102.084C155.414 102.18 155.558 102.276 155.769 102.334C155.74 102.439 156.057 102.526 155.913 102.43Z" fill="#727272"/>
<path d="M121.305 78.2312C118.521 74.2942 115.035 70.8463 111.52 67.504C108.005 64.1617 104.423 60.8577 101.542 57.0647C100.121 55.2017 98.6907 53.1661 97.7407 51.0346C97.0689 49.5465 96.9065 47.8571 97.4455 46.3024C97.9557 44.8534 98.9942 43.5486 100.004 42.3493C101.11 41.0062 102.292 39.7975 103.331 38.4927C104.331 37.1207 105.293 35.6815 106.293 34.3095C107.293 32.9375 108.389 31.4215 109.831 30.5105C110.1 30.3571 110.369 30.2037 110.677 30.1175C110.571 30.0886 110.465 30.0597 110.465 30.0597C113.058 33.0368 116.228 35.1503 119.532 37.1871C121.223 38.2727 122.875 39.2911 124.537 40.4823C126.16 41.6062 127.85 42.6918 129.349 44.0653C130.703 45.3427 131.653 46.8502 132.132 48.6262C132.621 50.5749 132.495 52.6961 132.292 54.6829C131.781 58.6276 130.395 62.447 128.5 65.8437C127.932 66.88 127.25 67.7147 126.317 68.4244C125.452 69.0958 124.51 69.6328 123.568 70.1698C121.684 71.2437 119.877 72.4521 118.8 74.3135C118.934 74.2368 119.136 74.1218 119.271 74.0451C117.523 72.5467 116.563 70.2425 115.584 68.2167C114.567 66.1236 113.319 64.2512 112.436 62.0814C111.515 59.8444 111.247 57.5022 111.498 55.1316C111.721 52.8665 112.049 50.6302 111.992 48.3457C111.955 45.7829 111.303 43.3925 109.969 41.2129C109.777 40.8768 109.219 41.462 109.373 41.7309C110.592 43.7089 111.235 45.9265 111.329 48.2782C111.386 50.5626 111.096 52.8661 110.874 55.1312C110.622 57.5019 110.813 59.7096 111.629 61.9178C112.406 64.0587 113.692 65.9983 114.71 68.0914C115.842 70.3861 116.85 72.9302 118.78 74.5919C118.963 74.7552 119.222 74.429 119.251 74.3234C120.261 72.5003 122.078 71.4647 123.827 70.4675C125.509 69.5086 127.22 68.4442 128.346 66.8227C129.403 65.2395 130.241 63.4259 130.905 61.6218C131.665 59.6737 132.252 57.7352 132.628 55.7389C133.293 52.0631 133.469 47.6863 131.078 44.5942C129.954 43.0962 128.331 41.9722 126.814 40.8771C125.085 39.7243 123.385 38.4659 121.627 37.4187C117.852 35.0265 113.981 32.7782 111.052 29.369C111.014 29.3018 110.908 29.2729 110.841 29.3113C109.303 29.7423 108.13 31.1238 107.188 32.2847C105.986 33.7718 104.995 35.3166 103.899 36.8325C102.899 38.2045 101.86 39.5093 100.716 40.7852C99.5716 42.0611 98.4274 43.3371 97.677 44.834C96.9556 46.2253 96.5222 47.8089 96.7808 49.3544C96.934 50.2471 97.2986 51.1975 97.692 52.0424C98.2391 53.1562 98.9207 54.1932 99.6024 55.2302C102.358 59.2728 105.882 62.7879 109.436 66.1974C113.095 69.6358 116.754 73.0742 119.855 77.0977C120.229 77.5971 120.604 78.0964 120.978 78.5957C120.968 79.0469 121.459 78.5 121.305 78.2312Z" fill="#727272"/>
<path d="M109.614 71.9758C104.677 68.6423 99.7014 65.2415 94.6393 62.1575C92.0554 60.601 89.5099 59.1118 86.8009 57.8048C85.8019 57.3051 84.7645 56.7382 83.8616 56.0946C82.8914 55.4893 81.9886 54.8457 80.9511 54.2788C80.0578 53.808 79.0971 53.3755 78.0882 53.3269C76.8007 53.259 75.7625 53.9398 74.7244 54.6207C74.2245 54.9948 73.7246 55.3688 73.0806 55.6468C72.4367 55.9248 71.7543 56.1356 71.1393 56.308C69.8418 56.6912 68.5733 56.9688 67.3142 57.4192C65.9879 57.9079 64.6711 58.5695 63.3927 59.2982C62.047 60.0653 60.7013 60.8324 59.3556 61.5995C56.5969 63.1721 53.8382 64.7446 51.0796 66.3172C48.5227 67.7747 45.9659 69.2321 43.3418 70.728C41.9288 71.5334 40.5158 72.3389 39.218 73.346C38.4874 73.9406 37.0551 75.0244 37.4964 76.1093C37.6979 76.6182 38.3031 76.8969 38.8027 77.1467C39.8979 77.5025 40.9741 77.5127 42.0887 77.5902C44.4619 77.8411 46.8158 78.3704 49.0157 79.2547C50.1878 79.7449 51.2925 80.2735 52.5029 80.8309C53.6749 81.3211 54.8469 81.8113 56.0767 82.0904C58.613 82.7829 61.2265 82.986 63.7541 82.258C64.9842 81.9132 66.0992 81.3667 67.0606 80.5514C68.0892 79.6977 68.7913 78.5847 69.4261 77.51C70.7824 75.044 72.2828 72.6741 73.9273 70.4002C74.8601 69.0665 75.8986 67.7617 76.8988 66.3897C77.9278 64.9122 78.9184 63.3674 79.6976 61.7649C80.3134 60.3447 80.8524 58.79 80.3536 57.2924C80.1426 56.6108 79.7298 56.0442 79.2208 55.6216C79.0767 55.5255 78.9037 55.535 78.7691 55.6117C75.3665 57.4623 72.9337 60.542 70.3856 63.42C69.1452 64.8399 67.7992 66.2309 66.2995 67.353C64.6653 68.5519 62.7623 69.2803 60.8882 69.9031C58.7738 70.5737 56.5922 71.2828 54.641 72.3951C54.17 72.6636 54.7174 73.1534 55.0538 72.9616C58.5142 70.9 62.7232 70.4609 66.1741 68.2264C69.3559 66.1454 71.6446 62.9696 74.1638 60.1971C75.6733 58.6239 77.2212 57.1178 79.2109 56.0727C79.0379 56.0822 78.865 56.0917 78.7593 56.0629C79.8157 56.9753 79.9302 58.4248 79.6219 59.7588C79.227 61.4095 78.371 62.8775 77.4765 64.2784C76.6494 65.6409 75.6781 66.9073 74.7069 68.1738C73.3125 69.9487 72.0623 71.8196 70.8793 73.6523C70.11 74.8036 69.4463 75.9839 68.7825 77.1641C68.1861 78.306 67.4456 79.3518 66.3786 80.1382C64.4174 81.7016 61.6979 82.0936 59.2189 81.8138C56.7784 81.6012 54.4439 80.7936 52.2344 79.7365C50.1307 78.7082 48.0364 77.8528 45.7498 77.2851C44.6257 77.0349 43.4344 76.8231 42.2525 76.784C41.2052 76.6682 40.1674 76.7252 39.2451 76.3599C38.8224 76.2445 38.4286 76.0235 38.4384 75.5723C38.4867 75.1884 38.8425 74.7183 39.1405 74.4593C40.227 73.3945 41.5343 72.5602 42.8127 71.8315C44.8985 70.6425 46.9843 69.4535 49.0702 68.2645C54.3184 65.2728 59.5955 62.1756 64.8437 59.1839C66.0548 58.4935 67.2755 57.9759 68.5729 57.5927C69.803 57.2479 71.0332 56.903 72.2634 56.5582C72.8784 56.3858 73.4551 56.1462 74.0607 55.801C74.5989 55.4941 75.0988 55.1201 75.5987 54.746C76.6369 54.0651 77.6461 53.4898 78.9143 53.8361C79.8654 54.0958 80.7972 54.6339 81.6233 55.1431C82.555 55.6811 83.4579 56.3247 84.3224 56.9012C85.2925 57.5064 86.3972 58.035 87.3963 58.5347C88.6835 59.2265 89.9707 59.9183 91.2579 60.6102C96.2721 63.4542 100.959 66.6628 105.752 69.9003C106.905 70.6689 108.058 71.4374 109.249 72.2732C109.412 72.7148 110.046 72.264 109.614 71.9758Z" fill="#727272"/>
<path d="M79.2137 55.4487C76.2074 53.1529 72.7202 51.5767 69.3966 49.8183C67.7539 48.9727 66.1402 48.0215 64.5553 46.9647C62.9994 45.8024 61.4723 44.5345 60.5796 42.8159C59.7254 41.1644 59.5919 39.3694 59.9774 37.546C60.3339 35.828 61.0459 34.2639 61.7194 32.6325C62.0562 31.8169 62.3257 31.0396 62.6625 30.2239C62.932 29.4466 63.1631 28.602 63.4999 27.7864C64.1735 26.155 65.1257 24.543 66.3372 23.2287C68.4332 20.9647 71.4417 19.5171 74.6125 19.7589C76.9473 19.9426 79.1279 21.1053 80.8181 22.8148C82.5083 24.5243 83.6697 26.7134 84.2833 29.0366C84.5901 30.1982 84.7624 31.4365 84.6559 32.6555C84.6358 34.1816 84.1257 35.6307 83.8943 37.0991C83.3352 40.1799 83.2277 43.2705 83.2931 46.3517C83.3308 47.6667 83.3685 48.9817 83.2332 50.3062C83.0884 51.458 82.809 52.6864 81.9533 53.5306C81.5591 53.9335 81.0881 54.202 80.5787 54.4032C80.6844 54.4321 80.7517 54.3937 80.8574 54.4226C79.647 53.8652 78.8213 52.7321 78.1396 51.695C77.266 50.3219 76.5558 48.7666 75.9514 47.2401C75.3853 45.7808 74.8865 44.2831 74.4934 42.8143C74.1003 41.3456 73.8801 39.8673 73.66 38.389C73.2771 35.8451 72.827 33.3397 71.829 30.9683C71.6659 30.5267 70.9163 30.7758 71.0793 31.2174C72.7202 35.1825 72.756 39.617 73.9547 43.7451C74.4725 45.5883 75.1249 47.3548 75.9503 49.1118C76.6989 50.7344 77.5531 52.3858 78.7342 53.6727C79.2144 54.2009 79.7618 54.6907 80.367 54.9694C81.0106 55.3153 82.0104 54.5672 82.4718 54.126C83.6928 52.9844 84.011 51.1993 84.0984 49.6348C84.2146 47.9648 84.1196 46.237 84.0629 44.5764C84.0066 42.2919 84.1905 39.9596 84.6242 37.7522C84.9328 35.7943 85.5584 33.923 85.4827 31.9168C85.426 30.2563 85.0618 28.6819 84.4574 27.1554C83.2868 24.1696 81.0207 21.4519 78.1003 20.0872C74.6805 18.4727 70.654 19.0751 67.6163 21.2522C65.6457 22.6428 64.2609 24.5905 63.1642 26.7303C62.7023 27.7955 62.3462 28.8895 61.9227 30.0219C61.4993 31.1543 61.0374 32.2194 60.5756 33.2846C59.7192 35.3766 58.7666 37.6124 58.9286 39.9258C59.0712 42.5174 60.5786 44.6876 62.4033 46.3204C64.2665 48.0204 66.4854 49.2503 68.7717 50.4418C71.0579 51.6333 73.373 52.7193 75.5631 54.0548C76.6389 54.6889 77.6858 55.4286 78.6944 56.1011C79.0498 56.2548 79.6459 55.7369 79.2137 55.4487Z" fill="#727272"/>
<path d="M74.8328 53.4017C73.9881 51.923 72.9415 50.5594 71.5007 49.5987C70.1656 48.6669 68.542 48.1668 66.899 47.9451C64.6603 47.6175 62.5174 47.7698 60.3263 48.3061C58.1351 48.8423 55.9919 49.6185 53.6376 49.7132C51.562 49.8271 49.4963 49.49 47.4591 49.6712C46.4213 49.7282 45.393 49.9579 44.4031 50.2549C43.3459 50.5903 42.3655 51.06 41.3756 51.357C40.5587 51.6445 39.6361 51.9031 38.7329 51.8834C38.0026 51.8541 37.2244 51.5849 36.5136 51.2774C35.015 50.5278 33.805 49.3465 32.9603 47.8679C32.1539 46.4564 31.8281 44.9493 32.1557 43.3369C32.5027 41.4462 33.2341 39.6037 33.9655 37.7612C34.5429 36.2738 35.0819 34.7192 35.4095 33.1068C35.7371 31.4945 35.9496 29.6805 36.5943 28.1547C36.8733 27.5502 37.2964 27.0417 37.9403 26.7637C38.6805 26.3418 39.5358 26.1215 40.3622 26.0068C42.2553 25.7296 44.2827 25.9995 46.137 26.2789C47.0114 26.4042 47.8857 26.5295 48.6928 26.6932C49.6728 26.8473 50.5855 27.0398 51.4405 27.4434C53.1504 28.2507 54.2738 29.7487 55.0896 31.3329C55.9823 33.0516 56.5385 34.962 57.1236 36.7668C57.373 37.5157 57.6224 38.2645 57.939 38.975C58.1405 39.4838 58.4477 40.0215 58.7838 40.4536C59.5517 41.7978 60.3869 43.1037 61.1165 44.3807C61.7692 45.5233 62.566 46.762 62.8823 48.0964C63.007 48.4708 63.0644 48.8836 62.9105 49.2386C63.0451 49.1619 63.1796 49.0852 63.3526 49.0757C59.8073 48.3346 57.0413 45.9909 54.0541 44.0407C52.7958 43.2433 51.5759 42.5131 50.1347 42.1763C48.7993 41.8684 47.3676 41.7044 45.9649 41.4348C44.6294 41.1269 43.1115 40.6557 42.4203 39.4459C42.2667 39.177 41.4692 39.1862 41.6996 39.5894C43.1875 42.0379 46.5218 42.0974 49.0103 42.55C49.7116 42.6848 50.3073 42.7907 50.9798 43.0311C51.758 43.3003 52.44 43.7134 53.0547 44.1649C54.5628 45.0872 56.0131 46.2207 57.5211 47.143C59.2501 48.2958 61.104 49.1992 63.1409 49.6419C63.3522 49.6996 63.4868 49.6229 63.583 49.479C63.6985 49.0567 63.6411 48.6439 63.5453 48.164C63.3727 47.5496 63.1328 46.9735 62.8257 46.4358C62.125 45.0532 61.3187 43.6418 60.4835 42.3359C59.7634 41.2317 59.005 40.0602 58.4868 38.8409C58.1317 38.0632 57.9113 37.2088 57.6619 36.46C57.3646 35.4712 57.0383 34.5879 56.741 33.5991C56.0887 31.8326 55.369 30.1045 54.0438 28.7215C52.6802 27.2714 50.9029 26.5025 48.9429 26.1942C47.0885 25.9147 45.1958 25.5681 43.3125 25.3942C41.4677 25.2876 39.4883 25.2576 37.7582 25.9765C37.1143 26.2545 36.3741 26.6764 35.951 27.1849C35.5663 27.7606 35.2968 28.5379 35.1235 29.1713C34.6613 30.8603 34.4393 32.5016 34.0444 34.1523C33.6206 35.9085 32.8125 37.6166 32.1773 39.3152C31.5421 41.0137 30.8107 42.8562 30.9442 44.6512C31.0865 47.8668 33.8233 50.9399 36.7919 51.9206C37.57 52.1899 38.3387 52.2863 39.2035 52.2388C40.2029 52.1146 41.1255 51.856 42.077 51.4918C43.0958 51.0892 44.1146 50.6867 45.1718 50.3513C46.2673 50.0832 47.4397 49.9495 48.5159 49.9598C50.6299 49.913 52.7629 50.2118 54.829 49.925C57.1737 49.6576 59.4132 48.7375 61.7484 48.2973C63.8434 47.905 66.0725 48.0598 68.1478 48.5698C69.733 49.0026 71.097 49.8289 72.2397 51.0485C72.9024 51.74 73.3631 52.5465 73.7855 53.2859C74.2656 53.8141 75.0632 53.8049 74.8328 53.4017Z" fill="#727272"/>
<path d="M35.0247 48.829C33.72 45.296 29.281 44.7079 26.0041 45.0611C24.1399 45.2328 22.2852 45.5773 20.44 46.0945C18.8639 46.4584 17.3262 46.8894 15.8364 47.5604C13.126 48.7491 10.3864 50.6672 9.15476 53.5076C7.76922 56.7031 9.30472 60.0155 11.2827 62.541C12.435 63.9334 13.7891 65.2108 15.4317 66.0564C16.8246 66.7771 18.4098 67.21 19.9859 66.8462C21.562 66.4823 22.7925 65.5136 24.2439 64.7754C25.5223 64.0466 26.8391 63.3851 28.1559 62.7236C30.7511 61.3333 33.4809 59.8663 35.404 57.6118C36.3175 56.5565 36.9717 55.2035 37.2415 53.8023C37.4053 52.9961 37.3962 52.1994 37.387 51.4027C37.3775 51.2299 37.368 51.0572 37.3585 50.8844C37.3106 50.6444 37.2722 50.5772 37.0609 50.5195C36.8111 50.3945 36.494 50.308 36.2827 50.2503C35.197 50.0673 34.063 50.2682 33.0058 50.6035C31.6411 51.025 30.3627 51.7538 29.0843 52.4825C26.5275 53.94 24.1626 55.7336 21.6826 57.3255C21.2116 57.594 20.8463 57.8913 20.3753 58.1598C20.308 58.1981 20.8843 58.5824 21.0862 58.4673C23.1047 57.3167 24.9024 55.9356 26.8442 54.6505C28.9878 53.2504 31.2659 51.7735 33.7551 50.9783C34.6393 50.6525 35.8695 50.3076 36.7244 50.7112C36.6188 50.6824 36.5804 50.6152 36.4747 50.5863C36.7329 52.7557 36.3665 54.9248 35.0778 56.7285C33.8564 58.4939 32.0877 59.7695 30.3094 60.8723C28.4638 62.0135 26.503 62.953 24.5134 63.998C23.5714 64.535 22.6294 65.072 21.6201 65.6473C20.6781 66.1843 19.6977 66.654 18.5927 66.7494C17.3819 66.8159 16.2099 66.3257 15.2013 65.6532C14.0487 64.8846 13.0595 63.9338 12.2049 62.9063C10.6109 61.0528 9.19026 58.566 9.43196 56.0226C9.78044 51.6363 14.3368 48.6826 18.1523 47.3986C20.6703 46.4978 23.3131 45.9714 25.8981 45.6562C28.3774 45.3121 31.3562 45.2178 33.2673 47.1578C33.7474 47.686 34.0546 48.2237 34.3329 48.867C34.3329 48.867 35.1015 48.9634 35.0247 48.829Z" fill="#727272"/>
<path d="M33.1388 39.7476C32.5146 39.1233 31.7269 38.6814 30.9776 38.3066C29.9786 37.8069 28.8834 37.4511 27.7881 37.0953C25.7418 36.4798 23.5993 36.0082 21.4374 35.815C20.2171 35.7087 18.9775 35.8808 17.7956 35.8417C16.2678 35.8216 14.9034 35.6193 13.4817 35.0041C12.1656 34.4179 10.8784 33.726 9.53341 33.2453C8.29412 32.7935 7.10274 32.5816 5.81518 32.5137C4.18169 32.4648 1.78904 32.4922 0.875214 34.1714C0.500031 34.9198 0.480296 35.8221 0.969945 36.523C1.45959 37.224 2.34344 37.5221 3.1505 37.6857C5.14894 38.0612 7.38799 37.765 9.33889 37.2766C11.1168 36.7977 12.8373 35.906 14.4906 35.0527C15.5382 34.5446 16.6148 33.9309 17.5857 33.2884C18.3547 32.7609 19.0564 32.2718 19.5373 31.5522C20.1143 30.6887 20.5473 29.7291 20.1443 28.7114C19.847 27.7226 19.0403 26.9351 18.272 26.2147C17.3212 25.3311 16.4089 24.5147 15.4581 23.6311C14.4689 22.6803 13.4414 21.6622 12.7886 20.5197C12.0591 19.2426 11.666 17.7738 11.6188 16.286C11.5716 14.7983 11.5917 13.2721 11.8232 11.8037C12.0547 10.3353 12.3918 8.89567 12.873 7.55217C13.3254 6.31423 13.845 5.03793 14.6144 3.88656C15.6434 2.40899 17.3548 0.720651 19.3342 0.750596C20.2374 0.770317 21.2365 1.27002 21.7261 1.97099C22.1774 2.60475 22.4363 3.52636 22.6184 4.31354C23.213 6.29117 23.5385 8.42222 23.6814 10.39C23.7385 11.4267 23.5842 12.4056 23.0455 13.3363C22.3818 14.5166 21.5357 15.5335 21.1217 16.8387C20.7271 17.8655 20.9283 18.9982 20.7451 20.0827C20.5136 21.5512 19.7537 22.8753 19.1668 24.19C18.5415 25.4374 17.9546 26.752 17.6847 28.1533C17.4149 29.5545 17.3564 31.0134 17.6054 32.3862C18.094 34.9588 19.6975 36.985 21.3299 38.9057C22.2902 39.9621 23.2505 41.0185 24.1434 42.1132C24.1434 42.1132 24.6338 41.5664 24.5186 41.3647C22.7421 39.348 20.7254 37.3792 19.3143 35.0651C17.8647 32.6839 17.4723 29.9673 18.1177 27.1937C18.7631 24.4201 20.7151 22.06 21.2164 19.1904C21.3996 18.1058 21.2369 17.0403 21.6988 15.9752C22.2568 14.7661 23.1702 13.7108 23.7283 12.5017C24.498 10.7264 24.1532 8.8737 23.8467 7.0882C23.684 6.02268 23.454 4.99551 23.1855 3.90113C23.0034 3.11395 22.7156 2.29791 22.3606 1.52022C21.9382 0.780895 21.1794 0.233342 20.3724 0.0696997C19.4596 -0.1228 18.6043 0.0974694 17.7969 0.557728C16.0475 1.55495 14.855 3.2148 13.9796 4.96122C12.6617 7.49445 11.8049 10.2103 11.4765 13.0705C11.1386 15.7578 11.0985 18.8101 12.4807 21.2298C13.1719 22.4396 14.161 23.3904 15.1502 24.3412C16.0337 25.2632 17.0134 26.0412 17.9641 26.9248C18.7324 27.6452 19.6064 28.3944 19.9421 29.4504C20.1052 29.892 20.1337 30.4103 19.9509 30.8709C19.768 31.3316 19.4027 31.6289 19.0374 31.9263C17.3454 33.3363 15.2501 34.3525 13.2893 35.292C12.5108 35.6467 11.7707 36.0686 11.021 36.3177C10.1368 36.6436 9.1758 36.835 8.28208 36.988C7.21539 37.1506 6.1103 37.2459 5.10139 37.1973C4.19816 37.1776 3.21815 37.0235 2.36318 36.6198C1.61391 36.2451 1.08586 35.4769 1.144 34.6418C1.17288 34.5363 1.20178 34.4307 1.23067 34.3252C1.13449 34.4691 1.23066 34.3252 1.29795 34.2868C1.4614 34.1045 1.66326 33.9895 1.79783 33.9127C2.20154 33.6826 2.68204 33.5869 3.16254 33.4912C5.43048 33.0894 7.77487 33.4459 9.9364 34.263C11.2141 34.7821 12.5013 35.4739 13.8462 35.9546C15.2296 36.5025 16.7285 36.6282 18.2179 36.5811C19.3614 36.5529 20.4665 36.4576 21.5811 36.535C22.5227 36.6219 23.5028 36.7761 24.4539 37.0358C26.6637 37.469 28.9214 38.1422 30.9868 39.1032C31.736 39.478 32.4853 39.8528 33.0039 40.4482C32.7252 40.4288 33.2156 39.882 33.1388 39.7476Z" fill="#727272"/>
<path d="M144.581 90.7131C143.939 89.1194 143.334 87.5929 142.759 85.9608C142.192 84.5015 141.588 82.975 141.022 81.5157C139.986 79.0771 139.247 76.3795 139.969 73.7404C140.412 72.3296 141.355 71.1688 142.374 70.1423C143.691 68.8569 145.152 67.6675 146.767 66.747C148.113 65.9799 149.67 65.2705 151.274 65.425C151.937 65.4926 152.504 65.7041 153.013 66.1267C153.157 66.2228 153.301 66.3189 153.378 66.4533C153.493 66.6549 153.31 67.1155 153.253 67.3267C153.041 67.8929 152.829 68.459 152.512 68.9964C151.31 71.1073 149.348 72.6708 147.781 74.4552C147.031 75.3282 146.319 76.2684 145.714 77.2375C145.079 78.3122 144.732 79.579 144.385 80.8458C143.75 83.1682 143.258 85.5868 143.219 88.0152C143.179 90.4435 143.687 92.7379 144.742 94.8982C145.021 95.5414 145.328 96.0791 145.673 96.684C145.673 96.684 146.308 96.2332 146.231 96.0988C144.926 93.8136 143.995 91.4039 143.852 88.8122C143.642 86.2589 144.095 83.7731 144.76 81.3451C145.068 80.0111 145.444 78.6388 146.002 77.4297C146.598 76.2878 147.339 75.242 148.223 74.2922C149.858 72.4695 151.713 70.8772 152.983 68.7279C153.3 68.1906 153.55 67.6916 153.762 67.1254C153.887 66.8759 153.974 66.5592 153.993 66.2809C154.08 65.9642 154.109 65.8586 153.926 65.6953C153.485 65.2343 152.841 64.8884 152.178 64.8208C150.602 64.5608 149.007 65.2029 147.661 65.97C146.008 66.8233 144.479 68.0511 143.162 69.3365C142.008 70.4396 140.826 71.6484 140.104 73.0397C138.969 75.1123 139.218 77.7329 139.927 79.9121C140.349 81.2754 140.944 82.6291 141.501 83.9156C142.144 85.5093 142.719 87.1414 143.295 88.7735C143.583 89.5895 143.938 90.3672 144.226 91.1832C144.024 91.2983 144.591 90.8859 144.581 90.7131Z" fill="#727272"/>
<path d="M164.357 106.437C161.369 105.111 158.343 103.717 155.259 102.535C154.904 102.381 155.538 101.93 156.009 102.286C156.826 102.622 157.604 102.891 158.315 103.199C161.331 104.42 164.29 105.852 167.345 107.14C167.95 107.418 168.584 107.591 169.247 107.659C169.766 107.631 170.227 107.813 170.659 108.101C171.562 108.745 172.013 110.003 172.551 110.944C173.28 112.221 174.202 113.21 175.095 114.305C176.103 115.601 177.044 116.936 177.956 118.376C179.847 121.218 181.431 124.147 183.121 127.104C183.86 128.554 184.666 129.965 185.54 131.338L185.659 131.527C186.528 132.899 187.36 134.213 188.132 135.563C188.967 136.869 189.706 138.319 190.205 139.816C190.694 141.141 190.981 142.581 191.201 144.06C190.54 140.873 187.91 136.58 186.201 133.901L186.082 133.715C185.252 132.41 184.457 131.162 183.724 129.878L181.19 125.442C179.501 122.485 177.811 119.528 175.891 116.791C174.912 115.389 173.865 114.026 172.79 112.767C172.012 111.874 171.503 110.828 170.927 109.82C170.658 109.349 170.39 108.879 169.986 108.485C169.545 108.024 168.987 107.985 168.43 107.947C167.767 107.879 167.2 107.667 166.595 107.389C165.817 107.12 165.068 106.745 164.357 106.437Z" fill="#727272"/>
<path d="M168.987 111.105C169.911 107.727 171.364 104.493 172.212 100.98C172.606 99.3295 172.857 97.5827 172.762 95.8549C172.658 93.9544 172.14 92.1111 171.314 90.3541C170.566 88.7316 169.856 87.1762 169.482 85.4291C169.156 83.9219 169.109 82.4341 169.129 80.908C169.333 77.6734 170.296 74.3625 171.767 71.4742C173.335 68.442 175.566 65.4774 178.633 63.8186C178.421 63.7609 178.316 63.732 178.104 63.6743C179.554 65.4317 180.533 67.4575 182.05 69.1765C183.452 70.6939 185.345 71.6645 186.785 73.2491C187.899 74.5743 188.753 76.2257 189.156 77.8673C189.549 79.3361 189.538 81.035 188.711 82.3975C187.855 83.8656 186.173 84.8244 184.798 85.6971C183.155 86.7232 181.434 87.6149 179.675 88.4393C178.426 89.0625 176.946 89.9063 175.476 89.6751C174.534 89.5881 174.073 88.7816 173.987 87.8505C173.844 86.5066 174.219 85.1343 174.777 83.9252C175.403 82.6777 176.134 81.4592 177.268 80.6343C177.633 80.337 177.086 79.8472 176.721 80.1445C175.654 80.931 174.884 82.0823 174.22 83.2626C173.662 84.4716 173.181 85.8152 173.152 87.1685C173.103 88.1763 173.342 89.3763 174.207 89.9527C175.36 90.7212 176.868 90.3958 178.022 89.9165C179.857 89.2265 181.645 88.2965 183.327 87.3376C185.009 86.3787 186.759 85.3815 188.249 84.0866C189.537 82.9067 190.182 81.3809 190.193 79.682C190.203 77.9831 189.522 76.3221 188.745 74.8051C188.245 73.9314 187.641 73.0288 186.872 72.3084C186.104 71.5881 185.307 70.9733 184.51 70.3586C183.53 69.5805 182.617 68.7641 181.869 67.7655C181.158 66.834 180.544 65.7586 179.9 64.7888C179.526 64.2895 179.219 63.7518 178.815 63.358C178.7 63.1564 178.489 63.0987 178.287 63.2137C175.557 64.6807 173.403 67.1559 171.884 69.8042C170.201 72.6347 169.094 75.8496 168.582 79.1703C168.389 80.706 168.302 82.2705 168.455 83.7871C168.579 85.4094 169.116 86.9742 169.72 88.5007C170.479 90.2961 171.333 91.9475 171.783 93.8291C172.195 95.6434 172.127 97.5535 171.742 99.377C171.057 103.331 169.21 106.968 168.208 110.835C168.131 111.325 168.871 111.527 168.987 111.105Z" fill="#727272"/>
<path d="M180.517 93.0375C187.01 96.9094 194.609 100.686 202.354 98.9436C204.104 98.5703 205.766 97.8897 207.391 97.142C209.765 96.1451 212.129 94.9755 214.311 93.6426C216.157 92.5014 218.127 91.1108 219.166 89.1821C219.541 88.4336 219.705 87.6274 219.523 86.8403C219.255 85.7459 218.371 84.8239 217.314 84.5354C216.152 84.2179 214.893 84.6683 213.845 85.1764C212.663 85.7613 211.596 86.5477 210.443 87.027C208.885 87.7364 207.07 87.5242 205.388 87.2352C203.534 86.9558 201.708 86.5708 199.815 86.8481C196.923 87.2495 193.992 87.5837 191.186 88.2924C188.447 88.9627 185.112 90.151 183.659 92.7609C183.342 93.2983 183.168 93.9317 183.062 94.5267C183.014 94.9106 183.725 94.5943 183.745 94.3159C184.179 91.4846 187.12 90.0754 189.609 89.2801C192.473 88.3603 195.471 87.9878 198.431 87.5479C199.017 87.4811 199.565 87.347 200.151 87.2802C201.083 87.1943 202.025 87.2812 202.967 87.3682C204.715 87.6188 206.473 88.0421 208.27 87.9088C209.654 87.8328 210.836 87.248 212.048 86.5576C213.124 85.9439 214.162 85.263 215.392 84.9182C216.555 84.6117 217.65 84.9675 218.399 85.9662C218.889 86.6671 219.138 87.416 218.975 88.2221C218.811 89.0283 218.292 89.6807 217.734 90.2659C217.013 91.0333 216.148 91.7048 215.244 92.3089C213.206 93.7379 210.909 94.8692 208.641 95.8949C206.843 96.6522 205.046 97.4094 203.201 97.9266C200.298 98.7792 196.993 98.6141 194.043 97.9789C190.287 97.1801 186.828 95.4983 183.534 93.6343C182.746 93.1923 181.92 92.6831 181.132 92.2411C180.757 92.3657 180.229 92.8453 180.517 93.0375Z" fill="#727272"/>
<path d="M192.449 81.603C193.296 78.7144 194.46 75.9123 195.202 72.9948C195.577 71.6224 195.847 70.2212 195.733 68.7717C195.695 67.4567 195.311 66.1607 195.274 64.8457C195.246 63.7035 195.419 62.4462 195.987 61.4099C196.362 60.6614 196.814 60.0474 197.333 59.395C198.631 57.764 200.112 56.2963 201.775 54.9919C203.14 53.9464 204.88 52.7764 206.677 52.6431C207.542 52.5956 208.012 52.951 208.598 53.508C209.443 54.3628 209.962 55.5821 210.336 56.7053C210.748 57.8958 210.959 59.2013 210.958 60.4491C210.919 61.6297 210.736 62.7142 210.207 63.8177C209.033 66.447 207.292 68.8648 205.36 70.9466C204.475 71.8963 203.523 72.8844 202.341 73.4692C201.188 73.9485 199.698 73.9956 198.593 73.4671C196.951 72.6214 195.703 70.749 193.694 70.8246C193.243 70.8148 192.839 71.0449 192.435 71.275C192.301 71.3517 192.944 71.6977 193.146 71.5826C193.512 71.2852 194.021 71.084 194.511 71.1611C194.895 71.2093 195.327 71.4975 195.616 71.6896C196.413 72.3044 197.143 72.9575 198.036 73.4283C199.112 74.0625 200.582 74.2937 201.783 74.0544C203.09 73.844 204.157 73.0576 205.08 72.175C207.157 70.1894 208.965 67.7332 210.35 65.1616C210.946 64.0197 211.437 62.849 211.611 61.5917C211.717 60.3727 211.612 59.0961 211.373 57.8962C210.913 55.8418 209.828 53.1632 207.667 52.3461C206.072 51.7404 204.342 52.4593 202.929 53.2648C201.045 54.3387 199.459 55.7776 197.949 57.3508C196.767 58.5596 195.526 59.9794 194.92 61.5724C194.372 62.9543 194.38 64.3749 194.6 65.8531C194.821 67.3314 195.002 68.7425 194.838 70.1726C194.452 73.2439 193.297 76.2188 192.277 79.1169C192.036 79.7887 191.834 80.5276 191.661 81.161C191.68 81.5066 192.42 81.7086 192.449 81.603Z" fill="#727272"/>
<path d="M196.126 71.4884C197.943 70.4528 199.683 69.2828 201.019 67.719C202.423 66.1169 203.251 64.1305 203.972 62.1152C204.126 61.7602 203.358 61.6638 203.204 62.0188C202.549 63.9957 201.712 65.8093 200.414 67.4403C199.145 68.9657 197.472 70.0974 195.723 71.0946C195.281 71.2575 195.79 71.6802 196.126 71.4884Z" fill="#727272"/>
</svg>
