<svg width="141" height="42" viewBox="0 0 141 42" fill="none" xmlns="http://www.w3.org/2000/svg">
<path d="M17.3418 33.0392C24.501 30.3779 31.7989 27.668 39.3164 26.4106C36.2848 26.2492 33.3423 25.9037 30.5384 25.5097C26.0316 26.0181 21.4358 26.7107 16.8793 27.0836C13.0657 27.3492 8.49881 27.267 5.64278 24.5971C5.40478 24.3746 5.44403 24.055 5.85993 23.9092C9.96926 22.3165 14.2485 22.0407 18.5878 22.3557C18.2608 22.3173 18.0228 22.0948 17.6959 22.0564C11.4341 21.1915 4.98404 20.2397 0.590211 15.5086C0.352209 15.2861 0.619055 14.7338 0.995691 14.9077C12.193 17.7139 23.3118 21.1593 34.0251 25.2057C35.8481 25.4846 37.7602 25.5794 39.6722 25.6742C39.4839 25.5872 39.1072 25.4133 38.9189 25.3263C37.7 24.9887 36.4315 24.5155 35.3905 23.8096C27.4419 20.477 22.8862 12.7438 18.4795 5.41724C18.1919 5.05922 18.647 4.59388 19.0237 4.7678C23.2163 6.81644 27.2207 8.77812 30.3748 12.2612C33.9553 16.0538 34.6846 21.457 38.3331 24.1551C39.0864 24.503 39.79 24.7152 40.5432 25.0631C40.7315 25.15 40.5929 25.1986 40.6426 25.3342C40.9696 25.3726 41.1579 25.4595 41.4848 25.4979C41.6235 25.4493 41.6731 25.5848 41.5345 25.6334C41.8615 25.6718 42.2381 25.8457 42.7037 25.8355C48.806 25.8386 54.8979 25.3866 61.0787 24.7504C58.0864 24.2694 55.1334 23.4688 52.2694 22.484C48.1368 21.0261 46.22 16.6507 43.2646 13.7097C42.7886 13.2647 43.2437 12.7994 43.759 12.9247C46.8114 13.9964 50.0024 15.0196 52.6989 16.8277C55.7721 18.8098 60.6628 24.8962 64.9708 23.8456C65.1095 23.797 65.3475 24.0195 65.0702 24.1166C64.9316 24.1652 64.9316 24.1652 64.793 24.2138C67.9527 23.8714 70.9241 23.4421 74.0838 23.0997C84.999 21.7224 95.5192 21.4012 106.586 22.5708C117.653 23.7404 130.006 24.1533 140.393 28.1612C140.581 28.2482 140.492 28.4323 140.353 28.4808C135.616 27.0816 130.751 26.1862 125.659 25.5235C119.418 25.5689 115.007 32.3142 108.633 28.5828C108.445 28.4958 108.346 28.2247 108.435 28.0406C110.441 24.1259 116.98 24.8936 120.666 25.1318C120.993 25.1702 121.003 25.6253 120.726 25.7225C118.508 26.4996 116.219 26.2309 113.99 26.5529C112.316 26.6806 110.742 27.0794 109.415 28.1558C109.188 28.3885 113.211 29.1202 113.815 29.0615C117.44 28.7089 120.082 26.1009 123.37 25.2547C117.762 24.4666 111.977 24.0467 106.468 23.5297C102.218 23.0307 97.928 22.8513 93.8764 22.8944C88.8856 24.643 86.7949 33.0225 83.1039 36.6098C79.6404 39.9645 75.0656 41.5674 70.2607 41.2626C69.9337 41.2243 69.5963 40.7307 69.9625 40.4494C74.0118 38.266 75.4638 34.5455 78.799 31.6946C81.9066 29.0764 85.0143 26.4582 88.4096 24.198C81.8546 26.8006 77.3237 32.3645 71.4538 36.4093C65.4453 40.5027 58.1554 41.5274 51.1324 41.9999C50.6668 42.0101 50.2797 41.381 50.7846 41.0512C58.6162 37.2367 63.3329 29.6194 71.5019 26.2985C73.6703 25.3858 76.1161 24.3759 78.5225 23.6857C75.2242 24.0767 71.9258 24.4676 68.6274 24.8585C60.7333 25.942 52.7895 26.89 44.9635 26.8791C44.3593 26.9378 43.7551 26.9966 43.0619 27.2394C34.4273 30.5706 27.0766 39.1107 17.2343 34.4533C16.7976 33.6887 16.9259 33.1849 17.3418 33.0392ZM28.3923 11.1205C26.1509 8.84705 23.1378 7.45568 20.4517 6.10272C20.4517 6.10272 23.1322 11.2812 23.569 12.0458C25.6429 15.1426 27.9836 17.6872 30.7299 19.6309C28.5277 17.0377 26.9691 14.0662 26.0644 11.1715C26.0147 11.0359 26.292 10.9388 26.3416 11.0743C27.7825 15.0047 30.5311 19.0888 34.0411 21.8354C34.6557 22.2318 35.409 22.5796 36.1623 22.9275C33.1964 19.5314 31.5857 14.284 28.3923 11.1205ZM77.2372 34.6889C76.149 35.9878 75.0711 37.7419 73.5566 38.7314C69.7558 41.5924 75.3404 39.3299 76.8654 38.7956C82.8763 36.8425 86.4263 31.1634 88.8175 25.7374C89.1236 24.8655 89.6677 24.2161 90.0732 23.6152C85.6393 27.3098 80.7687 30.2398 77.2372 34.6889ZM66.8196 29.3154C63.147 31.6728 60.3375 35.1042 57.0022 37.9551C53.8057 40.7574 50.9625 40.6829 56.5391 40.1055C65.741 39.1756 72.3433 34.5683 78.9641 28.731C80.2903 27.6545 81.5668 26.4426 82.9428 25.5017C77.1698 27.6772 71.8729 30.2978 66.4582 33.8773C66.3195 33.9259 66.0815 33.7034 66.2202 33.6548C71.8312 28.4771 79.396 25.215 86.9423 23.1827C87.3582 23.037 87.9128 22.8427 88.3287 22.697C88.0017 22.6586 87.5361 22.6688 87.2091 22.6304C85.5351 22.7581 83.9998 22.8372 82.3257 22.9649C76.7099 23.862 70.6308 26.9095 66.8196 29.3154ZM45.4146 14.027C47.0414 15.9041 48.2522 17.9269 50.1065 19.5713C52.0106 21.3512 54.8249 22.2004 57.6785 22.73C55.2304 21.5995 53.0099 20.2364 52.3039 17.8837C52.2542 17.7482 52.5314 17.6511 52.5811 17.7866C53.8521 20.4001 56.4388 21.482 59.1642 22.5153C58.9262 22.2928 58.6882 22.0703 58.4502 21.8478C54.3649 18.3851 50.2115 16.0169 45.4146 14.027ZM18.0934 23.1406C15.9433 22.8234 13.754 22.8257 11.6144 22.9636C10.079 23.0427 8.69269 23.5285 7.16772 24.0628C5.78138 24.5485 8.16942 25.0883 8.54606 25.2622C14.6115 27.7253 21.8702 25.335 28.4773 25.0083C26.9812 24.7678 25.574 24.3432 24.1668 23.9185C22.2051 23.6882 20.1937 23.3224 18.0934 23.1406ZM5.50491 16.5396C-1.4316 14.6876 8.63821 19.1123 8.96516 19.1507C10.749 19.7492 12.7603 20.1151 14.5834 20.394C13.6418 19.9592 12.6506 19.3889 11.709 18.9541C11.471 18.7316 11.6489 18.3633 11.8869 18.5858C13.8197 19.591 15.8415 20.412 17.8137 21.0975C18.6559 21.2612 19.5478 21.5605 20.39 21.7242C20.5783 21.8112 20.628 21.9467 20.4894 21.9953C21.193 22.2076 21.7579 22.4685 22.4118 22.5452C24.3735 22.7756 26.2463 23.19 28.2577 23.5558C22.1137 21.732 16.1477 19.54 10.0037 17.7162C8.64621 17.4272 7.05072 16.9156 5.50491 16.5396ZM29.8532 24.0674L29.9029 24.2029C30.2298 24.2413 30.7451 24.3667 31.0721 24.4051C30.5568 24.2797 30.1801 24.1058 29.8532 24.0674ZM24.8224 34.2418C30.399 33.6644 34.7831 29.8342 39.6642 27.3593C38.0895 27.7581 36.6142 28.4279 35.0893 28.9622C32.9208 29.8749 30.8517 31.0587 28.6231 31.3807C28.4845 31.4293 28.3354 31.0226 28.4741 30.9741C29.8997 30.1687 31.375 29.4989 32.9889 28.7805C31.6915 29.0821 30.2555 29.4323 28.8691 29.918C26.0468 30.7539 23.4128 31.6768 20.6401 32.6483C15.9762 34.4353 23.3367 34.4564 24.8224 34.2418Z" fill="#BDBDBD"/>
<path d="M111.182 21.8782C111.509 21.9166 111.43 22.5559 111.054 22.382C110.023 22.1313 108.943 21.745 108.051 21.4458C107.585 21.456 107.07 21.3306 106.605 21.3408C106.654 21.4763 106.615 21.796 106.288 21.7576C104.198 22.031 102.375 21.7521 100.641 21.2891L100.502 21.3377C100.175 21.2993 99.7986 21.1254 99.3331 21.1356C91.0703 20.36 80.6263 17.9017 78.4378 9.79792C78.3384 9.52686 78.7439 8.92595 79.0316 9.28398C83.899 12.3197 88.9836 14.6676 94.2565 17.1025C89.486 12.1975 85.8222 4.7636 81.2609 0.8559C80.8346 0.546448 81.329 -0.238537 81.7553 0.0709152C87.2166 2.59274 92.3012 4.94067 96.7735 9.03247C102.237 13.6946 103.68 19.7653 111.182 21.8782ZM96.9138 19.2303C95.13 18.6318 93.4351 17.8491 91.7899 17.202C93.8222 18.4782 95.8936 19.4348 98.0541 20.2072C98.1927 20.1586 98.2424 20.2942 98.3811 20.2456C97.7664 19.8492 97.3401 19.5397 96.9138 19.2303ZM81.8876 11.9539C80.3314 11.1227 78.893 9.33259 80.7785 12.3425C83.3886 16.475 89.0669 18.309 94.4969 19.4653C93.129 18.7211 91.8997 17.9283 90.7594 16.9513C90.7097 16.8158 90.7097 16.8158 90.7986 16.6317C89.8571 16.1969 89.1038 15.849 88.3008 15.3657C86.2293 14.4091 84.0585 13.1815 81.8876 11.9539ZM85.8695 2.75885C84.363 2.06317 82.2602 -0.258873 84.3132 1.92766C86.1283 3.89169 87.5772 6.13696 89.1647 8.33368C93.3517 14.2078 97.3008 19.8594 104.732 20.9264C99.5294 19.5374 95.1957 15.397 93.4463 10.1982C93.3966 10.0627 93.6739 9.96555 93.7236 10.1011C96.4145 15.7347 100.965 19.1872 107.01 20.7399C105.404 19.7732 103.887 18.6223 102.498 16.9678C97.1421 10.8915 93.3133 6.42133 85.8695 2.75885Z" fill="#BDBDBD"/>
</svg>
