<svg width="150" height="150" viewBox="0 0 150 150" fill="none" xmlns="http://www.w3.org/2000/svg">
<rect width="150" height="150" rx="20" fill="white"/>
<path fill-rule="evenodd" clip-rule="evenodd" d="M75.3293 136.118H72.0366V130.646H31.8537V126.797H39.7805V48.379C39.7805 46.575 39.1707 45.252 37.8902 44.3499C36.5488 43.3877 34.4756 42.9668 31.7317 42.9668H31V39.118H56.7927V42.9668H48.6829V126.797C52.0366 126.737 54.9634 126.556 57.7683 126.196C60.6341 125.714 63.2561 125.113 65.5732 124.331C67.7073 123.489 69.4146 122.227 70.4512 120.483C71.5488 118.678 72.0976 116.393 72.0976 113.567V90.7752H76V136.118H75.3293Z" fill="#231F20"/>
<mask id="mask0_23_245" style="mask-type:alpha" maskUnits="userSpaceOnUse" x="57" y="13" width="90" height="99">
<path fill-rule="evenodd" clip-rule="evenodd" d="M117.984 90.505C117.685 91.2171 117.445 91.9886 117.146 92.7008C116.608 94.0064 115.89 95.4307 115.112 96.6769C113.616 99.0507 112.001 101.187 109.967 103.027C107.993 104.867 105.839 106.41 103.326 107.774C100.813 109.08 98.3605 110.089 95.6682 110.742C93.0358 111.454 90.3436 111.751 87.6514 111.751C84.8395 111.751 82.2071 111.454 79.6943 110.801C77.1816 110.208 74.8484 109.258 72.5749 108.012C70.3015 106.766 68.2674 105.282 66.5922 103.62H66.5324C64.7974 101.84 63.2419 99.8222 61.9257 97.5671C60.6095 95.312 59.5924 92.8195 58.9343 90.2676C58.2164 87.6564 57.9172 84.8672 57.9172 81.8999V80.713C57.9172 77.3897 58.4557 74.3037 59.4727 71.3958C60.5496 68.4285 62.1051 65.758 64.2589 63.2062C66.3529 60.6543 68.6861 58.6959 71.3784 57.3903C73.9509 56.0847 76.8226 55.4319 79.9337 55.4319C81.908 55.4319 83.8224 55.8473 85.7369 56.5001C87.5317 57.2123 89.3265 58.2805 91.0615 59.6454C92.7965 61.0104 94.0529 62.7314 94.8905 64.5711C95.728 66.3514 96.2067 68.4285 96.2067 70.6837C96.2067 72.1673 95.9674 73.4729 95.6084 74.7785C95.1298 76.0247 94.5315 77.1523 93.6341 78.2799C92.7965 79.4668 91.8393 80.3569 90.6427 80.8911C89.5658 81.4845 88.3095 81.8406 86.8736 81.8406C86.5745 81.8406 86.3352 81.8406 86.036 81.7812C85.7369 81.7812 85.4378 81.7219 85.1984 81.6032L83.9421 81.3065L83.4036 81.1284L83.4635 80.535L83.9421 77.7458L84.0019 77.3303L84.4805 77.1523C86.036 76.8556 87.2326 76.1434 88.0103 75.1346C88.7881 74.185 89.2069 72.8201 89.2069 71.1584V70.5056C89.2069 69.1407 88.9676 67.7757 88.4889 66.5295C88.0103 65.2832 87.2326 64.1557 86.2753 62.9688C85.3181 61.9006 84.2412 61.1291 83.1045 60.595C81.9079 60.0609 80.5918 59.8235 79.2157 59.8235C75.0876 59.8235 71.6177 61.6632 68.9853 65.58C68.2674 66.6482 67.6691 67.657 67.1306 68.7253C66.652 69.7935 66.1734 70.921 65.8743 72.0486C65.4555 73.1168 65.276 74.3631 65.0367 75.55C64.8572 76.7962 64.7974 78.0425 64.7974 79.3481C64.7974 82.9681 65.3358 86.4695 66.4127 89.6148C67.4298 92.7601 69.0451 95.7867 71.2587 98.5166C73.3527 101.247 75.8654 103.324 78.7371 104.629C81.549 105.994 84.8395 106.647 88.4291 106.647C90.4632 106.647 92.5572 106.41 94.5315 105.875C96.5058 105.341 98.4203 104.57 100.335 103.502C102.189 102.493 103.865 101.187 105.3 99.7035C106.796 98.2199 108.112 96.5582 109.189 94.5998C110.266 92.6414 111.163 90.6237 111.702 88.6653C112.24 86.5882 112.54 84.5111 112.54 82.3153C112.54 79.7042 112.121 77.271 111.283 75.1939C110.505 73.1168 109.249 71.1584 107.693 69.5561C106.078 67.8351 103.924 66.0547 101.591 64.2744C99.198 62.4347 96.3861 60.5356 93.2153 58.6366C90.2838 56.7969 87.7112 55.0165 85.4976 53.3548C83.284 51.6338 81.4293 49.9721 79.9337 48.2511C78.3781 46.5301 77.1816 44.5124 76.4039 42.3166C75.6261 40.0021 75.2073 37.4503 75.2073 34.6017C75.2073 32.0499 75.6859 29.676 76.5235 27.4803C77.3611 25.2251 78.7371 23.3261 80.5319 21.6051C81.4892 20.6555 82.3866 19.8841 83.3438 19.2906C84.3609 18.5785 85.3779 18.0444 86.395 17.5696C87.4121 17.0948 88.4889 16.7388 89.5658 16.5014C90.6427 16.264 91.8393 16.086 92.9162 16.086C94.9503 16.086 97.463 16.7981 100.514 18.1037V13H104.044V48.9039H100.514V39.9428C100.514 37.1535 100.335 34.6017 100.036 32.2279C99.7963 29.9134 99.3177 27.8363 98.7792 25.9373C98.181 24.2163 97.2237 22.9107 95.9674 22.0798C94.6512 21.3083 92.976 20.8336 91.0017 20.8336C89.6855 20.8336 88.4291 21.1303 87.2326 21.6644C86.036 22.1985 84.8993 23.0294 83.8822 24.1569C82.925 25.3438 82.1473 26.6494 81.6686 27.955C81.1302 29.32 80.8909 30.7443 80.8909 32.2872C80.8909 33.8302 81.1302 35.3138 81.4892 36.6788C81.7883 37.9844 82.4464 39.2306 83.2242 40.2989V40.3582C83.9421 41.6045 84.7797 42.6727 85.6172 43.6815C86.4548 44.6311 87.4121 45.4619 88.4291 46.174C89.506 46.9455 90.8222 47.8951 92.4376 48.9039C93.9931 49.9128 95.8477 51.0997 98.0015 52.4053C101.352 54.423 104.343 56.4408 106.916 58.4585C109.608 60.4763 111.822 62.494 113.796 64.5711C115.351 66.2921 116.608 68.3098 117.565 70.4463C117.984 69.2594 118.403 68.1912 118.881 67.1823C119.719 65.58 120.676 64.037 121.873 62.672C123.847 60.4169 126.06 58.8146 128.633 57.6277C131.206 56.5595 134.077 56.0254 137.308 56.0254C139.043 56.0254 140.718 56.2034 142.274 56.5595C143.829 56.8562 145.325 57.3903 146.701 58.1618L147 58.3398V67.1823L145.983 66.3515C144.607 65.2832 143.111 64.5117 141.616 63.9776C140.12 63.4435 138.564 63.2062 137.009 63.2062C135.035 63.2062 133.359 63.5029 131.804 64.2744C130.248 65.0459 128.813 66.1141 127.616 67.6571C126.419 69.1407 125.522 70.921 124.864 72.8201C124.266 74.8378 123.907 77.093 123.907 79.5261C123.907 82.0186 124.146 84.1551 124.744 86.1134C125.283 88.0718 126.24 89.6742 127.317 91.0391C128.513 92.3447 129.83 93.4129 131.385 94.1251C132.881 94.8372 134.676 95.1339 136.59 95.1339C139.881 95.1339 142.932 93.947 145.803 91.5732L146.88 90.6237V98.932L146.641 99.1694C145.085 100.178 143.351 100.95 141.496 101.484C139.641 102.018 137.607 102.255 135.513 102.255C132.641 102.255 129.949 101.721 127.616 100.712C125.283 99.7035 123.189 98.1012 121.394 96.0835C120.437 95.0153 119.599 93.769 118.881 92.5227C118.582 91.8699 118.223 91.2171 117.984 90.505Z" fill="#231F20"/>
</mask>
<g mask="url(#mask0_23_245)">
<path fill-rule="evenodd" clip-rule="evenodd" d="M108.527 56.9141C114.385 50.9357 117.996 42.7481 117.996 33.7169C117.996 15.4103 103.156 0.569824 84.8492 0.569824C66.5426 0.569824 51.7022 15.4103 51.7022 33.7169C51.7022 43.6723 56.091 52.6026 63.0394 58.6786C57.6341 64.5856 54.3252 72.5222 54.3252 81.2487C54.3252 99.5 68.7991 114.296 86.6536 114.296C104.508 114.296 118.982 99.5 118.982 81.2487C118.982 71.6206 114.954 62.9541 108.527 56.9141Z" fill="#231F20"/>
</g>
</svg>
