<svg width="255" height="100" viewBox="0 0 255 100" fill="none" xmlns="http://www.w3.org/2000/svg">
<g clip-path="url(#clip0_355_628)">
<path d="M244.124 51.2084V42.3967H247.949C248.655 42.3615 249.361 42.4423 250.04 42.6359C250.473 42.7906 250.838 43.0887 251.073 43.4793C251.338 43.8931 251.476 44.3743 251.468 44.864C251.494 45.4676 251.284 46.058 250.882 46.513C250.41 46.9806 249.788 47.2701 249.122 47.3312C249.476 47.527 249.798 47.773 250.078 48.0614C250.46 48.5099 250.801 48.99 251.098 49.4964L252.195 51.221H250.027L248.752 49.295C248.465 48.8534 248.145 48.4327 247.796 48.0362C247.653 47.8708 247.468 47.745 247.261 47.6711C246.961 47.5937 246.652 47.5598 246.343 47.5704H245.947V51.2587L244.124 51.2084ZM245.935 46.1731H247.222C247.765 46.2015 248.309 46.1635 248.842 46.0598C249.048 45.9902 249.226 45.858 249.352 45.6822C249.475 45.4859 249.537 45.2583 249.53 45.0276C249.544 44.763 249.458 44.5029 249.288 44.2975C249.11 44.1093 248.871 43.989 248.612 43.9576C248.188 43.9357 247.762 43.9357 247.337 43.9576H245.947V46.1228L245.935 46.1731Z" fill="#231F20"/>
<path d="M247.605 39.5518C249.511 39.63 251.314 40.4328 252.634 41.7922C253.955 43.1517 254.693 44.9627 254.693 46.8466C254.693 48.7305 253.955 50.5415 252.634 51.901C251.314 53.2605 249.511 54.0632 247.605 54.1414C246.144 54.1383 244.717 53.708 243.503 52.9048C242.289 52.1015 241.344 50.9613 240.786 49.6281C240.228 48.2949 240.083 46.8284 240.368 45.4137C240.654 43.999 241.357 42.6995 242.39 41.6792C243.074 41.0021 243.887 40.4655 244.782 40.1003C245.677 39.7352 246.637 39.5488 247.605 39.5518ZM252.322 42.1953C251.705 41.5861 250.971 41.1031 250.164 40.7737C249.357 40.4444 248.493 40.2751 247.62 40.2757C246.746 40.2763 245.882 40.4467 245.075 40.7771C244.269 41.1076 243.536 41.5916 242.919 42.2016C242.302 42.8116 241.813 43.5356 241.479 44.3323C241.146 45.1289 240.974 45.9827 240.975 46.8448C240.976 47.7068 241.148 48.5604 241.483 49.3566C241.818 50.1528 242.308 50.8762 242.926 51.4853C243.857 52.3994 245.042 53.021 246.33 53.2719C247.619 53.5227 248.954 53.3916 250.167 52.895C251.38 52.3984 252.417 51.5585 253.148 50.4811C253.879 49.4037 254.27 48.137 254.273 46.8403C254.275 45.9772 254.103 45.1224 253.769 44.3251C253.434 43.5278 252.942 42.8039 252.322 42.1953Z" fill="#231F20"/>
<path d="M50.3753 24.3705C48.3098 24.2823 48.4628 22.8976 50.5028 22.9732C51.4807 22.9912 52.4581 22.9196 53.4226 22.7592C58.7393 21.9284 65.6626 16.8931 70.6861 14.7657C72.1617 14.1967 73.5862 13.5061 74.9446 12.7013C77.1121 11.6816 79.2923 10.6494 81.0901 9.60459C81.2646 9.49972 81.4309 9.38189 81.5873 9.25212C82.7731 8.30801 83.5381 7.6912 86.4706 9.25212C87.5076 9.82949 88.5082 10.4685 89.4668 11.1655C90.5805 12.0125 91.7917 12.7265 93.0751 13.2929C94.0397 13.7519 95.081 14.0334 96.1478 14.1237C96.7393 14.1476 97.3247 13.9987 97.8308 13.6957C99.7178 12.525 101.312 11.3669 102.931 10.2214C104.55 9.07589 105.876 8.06884 107.546 7.02402C108.687 6.32524 109.747 5.50642 110.708 4.58193C111.475 3.83452 112.136 2.98754 112.672 2.06431C114.062 -0.377789 115.222 -0.340024 116.828 0.528556C117.11 0.69009 117.382 0.866583 117.644 1.05726L117.861 1.20831C118.433 1.61993 118.982 2.06114 119.506 2.53007C121.034 3.8394 122.653 5.04236 124.351 6.13027C128.711 6.62121 128.316 7.07438 131.708 7.95555C132.52 8.17161 133.346 8.33145 134.181 8.4339C134.883 8.51433 135.592 8.53538 136.298 8.49683C136.604 8.49683 136.897 8.49683 137.203 8.40872C138.744 8.07087 140.356 8.25257 141.78 8.92483C143.629 9.86894 145.682 10.7879 147.696 11.6942L148.729 12.16H148.844C149.494 12.4621 150.017 12.7516 150.527 13.0286C151.598 13.6076 153.281 15.093 155.04 15.5462C156.8 15.9994 158.585 16.3392 160.472 16.7421C162.652 17.1952 164.819 17.661 166.91 18.1897C169.001 18.7184 170.735 19.2345 172.673 19.7884C174.191 20.2416 175.95 21.1227 177.608 21.5507H177.697L178.271 21.7018C179.13 22.0061 180.018 22.2212 180.923 22.3438C181.586 22.3438 182.198 22.3438 182.937 22.3438C185.768 22.3438 187.591 23.6026 190.587 24.1061C191.862 24.4586 191.99 25.3649 190.217 25.1509L189.134 25.0124C188.118 24.9399 187.113 24.7584 186.137 24.4712C184.787 24.1178 183.387 23.986 181.994 24.0809C181.229 24.0809 180.464 24.0809 179.801 24.0809C178.683 23.9834 177.58 23.7638 176.511 23.4263L175.963 23.2753H175.861C174.318 22.8725 172.712 22.4067 171.105 21.9284C169.256 21.3871 167.408 20.8458 165.47 20.3548C163.532 19.8639 161.249 19.3856 159.095 18.9324C157.31 18.5547 155.525 18.1771 153.587 17.6736C151.987 17.2835 150.456 16.6553 149.048 15.8105C148.563 15.5462 148.066 15.2818 147.569 15.0427H147.454L146.421 14.5769C144.394 13.658 142.316 12.7264 140.365 11.732C139.481 11.3692 138.506 11.2857 137.573 11.4928C137.19 11.4928 136.808 11.5935 136.451 11.6061C135.549 11.6519 134.644 11.6224 133.748 11.518C132.844 11.378 131.953 11.1675 131.083 10.8886C130.471 10.7249 129.808 10.4983 129.005 10.234C130.628 11.4173 132.298 12.588 134.015 13.7461C138.401 16.7043 143.042 20.166 148.652 22.7592C150.552 23.5145 150.514 25.088 147.658 24.018C141.857 21.3367 136.757 19.373 132.256 16.3392C127.952 13.402 123.815 10.2334 119.863 6.84779L119.723 6.74709C118.88 6.17317 118.075 5.54668 117.313 4.87146C116.882 4.47491 116.426 4.10496 115.949 3.7637L115.719 3.61265L115.439 3.46159L115.273 3.65041C114.601 4.82316 113.768 5.89904 112.799 6.84779C111.675 7.93829 110.431 8.90099 109.089 9.71788C107.534 10.6872 106.118 11.732 104.69 12.7768C103.262 13.8216 101.873 14.7909 100.177 15.8609C100.067 15.9855 99.9382 16.0918 99.7943 16.1756C96.7726 17.9379 93.3938 19.8261 89.9513 21.3997C86.5424 22.81 83.0024 23.8893 79.3816 24.6222C78.0046 25.025 77.2523 24.0054 78.8716 23.5019C82.0208 22.7088 85.5653 20.594 88.8803 19.0457C90.3547 18.337 91.7853 17.5425 93.1643 16.6665C92.7308 16.5155 92.2718 16.3392 91.7873 16.1378C90.2925 15.4847 88.8804 14.6608 87.5798 13.6831C86.7319 13.0597 85.8463 12.488 84.9278 11.9712C83.8313 11.3795 83.6528 11.4928 83.4998 11.6439C83.2217 11.8697 82.9277 12.0758 82.6201 12.2607C80.6183 13.4188 78.4126 14.4636 76.2451 15.4832C74.8426 16.1378 73.4656 16.7421 72.0886 17.5099L71.8846 17.598C65.7263 20.1157 60.4096 23.0991 53.8561 24.1061C52.7065 24.2992 51.5413 24.3877 50.3753 24.3705ZM139.625 14.6902C138.822 13.4314 140.123 13.8468 140.798 14.2496C142.43 15.2063 143.82 15.2189 145.401 16.1001C146.523 16.7169 145.733 18.026 144.483 17.4973C142.928 16.8302 140.569 16.1126 139.625 14.6902ZM114.317 8.39613C114.533 8.06884 115.018 7.28838 115.706 7.60308C116.395 7.91778 116.114 8.40872 115.796 9.08848C114.686 11.3417 112.646 13.0411 110.798 14.7909C109.905 15.6847 107.674 14.2118 109.382 12.8649C111.211 11.5802 112.85 10.0508 114.253 8.3206L114.317 8.39613ZM20.3618 36.6187C19.7383 36.3037 19.0902 36.0385 18.4238 35.8256C17.5946 35.544 16.741 35.3375 15.8738 35.2088C14.8001 35.0247 13.7124 34.9321 12.6226 34.9319C10.9379 34.9181 9.26235 35.1775 7.66282 35.6998C6.25978 36.1504 4.96014 36.869 3.83782 37.8146C2.81153 38.6973 1.98967 39.7878 1.42807 41.0119C0.885702 42.2735 0.612268 43.6319 0.624814 45.0024C0.614017 46.546 1.01412 48.0653 1.78507 49.4082C2.59348 50.764 3.67903 51.9386 4.97257 52.8574C6.46468 53.8946 8.08413 54.7405 9.79207 55.375C11.0529 55.8641 12.2511 56.4979 13.3621 57.2632C14.2025 57.8247 14.9006 58.5699 15.4021 59.4409C15.8571 60.2796 16.0813 61.2215 16.0523 62.1726C16.1001 63.2157 15.8339 64.2494 15.2873 65.1434C14.7197 65.9973 13.9137 66.6706 12.9668 67.0819C11.7891 67.569 10.5204 67.805 9.24382 67.7743C8.23662 67.7623 7.23305 67.6527 6.24757 67.447C5.31702 67.2705 4.404 67.0136 3.51907 66.6791C2.72469 66.3919 1.96036 66.0293 1.23682 65.5965L-0.0381813 70.2038C0.683892 70.6747 1.46929 71.0434 2.29507 71.299C3.31154 71.6507 4.35659 71.916 5.41882 72.092C6.55578 72.2873 7.7073 72.3884 8.86132 72.3941C10.729 72.4153 12.5881 72.1433 14.3693 71.5885C15.8507 71.1214 17.2211 70.3635 18.3983 69.3604C19.4634 68.4235 20.3077 67.2677 20.8718 65.9742C21.4425 64.6404 21.7289 63.205 21.7133 61.7572C21.748 60.2228 21.4206 58.7015 20.7571 57.3136C20.0813 55.9514 19.1054 54.7557 17.9011 53.8141C16.3935 52.671 14.7439 51.7234 12.9923 50.9943C11.6641 50.4661 10.3843 49.8259 9.16732 49.0809C8.28501 48.565 7.52779 47.8647 6.94882 47.0291C6.46846 46.2395 6.22525 45.3315 6.24757 44.4107C6.24842 43.8112 6.36526 43.2173 6.59182 42.661C6.84848 42.0743 7.22628 41.547 7.70107 41.1127C8.26394 40.6015 8.92823 40.2115 9.65182 39.9671C10.5595 39.6668 11.5125 39.522 12.4696 39.5391C13.3987 39.5311 14.326 39.6197 15.2363 39.8035C15.9929 39.9493 16.7352 40.1599 17.4548 40.4329C17.9874 40.6608 18.503 40.9258 18.9976 41.2259L20.3491 36.669L20.3618 36.6187ZM43.8091 66.9309C43.1151 67.2249 42.3989 67.4648 41.6671 67.6484C40.7279 67.8727 39.7645 67.9827 38.7983 67.9757C37.695 67.9849 36.6015 67.7707 35.5853 67.3463C34.6086 66.9439 33.7369 66.3285 33.0353 65.5462C32.2785 64.6983 31.7095 63.7035 31.3651 62.6257C30.9604 61.4067 30.7538 60.1321 30.7531 58.8493C30.7438 57.6251 30.9244 56.4067 31.2886 55.2365C31.6187 54.1621 32.1508 53.1585 32.8568 52.2783C33.5426 51.4262 34.4143 50.7378 35.4068 50.2642C36.4901 49.7742 37.6706 49.529 38.8621 49.5467C39.5415 49.5385 40.2202 49.5933 40.8893 49.7103C41.4215 49.8 41.9459 49.9305 42.4576 50.1006C42.857 50.2334 43.2449 50.3976 43.6178 50.5915L44.7143 46.2612C44.2343 46.0441 43.7349 45.8713 43.2226 45.7451C42.5594 45.5464 41.8816 45.3991 41.1953 45.3045C40.3988 45.1751 39.5928 45.1119 38.7856 45.1157C36.8202 45.0937 34.8699 45.4574 33.0481 46.1857C31.4132 46.8375 29.9424 47.8343 28.7386 49.1061C27.5304 50.3776 26.6015 51.8818 26.0101 53.5245C25.375 55.2947 25.0558 57.1602 25.0666 59.0381C25.0467 60.9218 25.3528 62.795 25.9718 64.5769C26.5181 66.1375 27.3864 67.5691 28.5218 68.7813C29.6513 69.9418 31.0213 70.8478 32.5381 71.4374C34.1966 72.0707 35.9619 72.3868 37.7401 72.3689C38.696 72.3656 39.6505 72.2941 40.5961 72.1549C41.3846 72.0346 42.1641 71.8622 42.9293 71.6388C43.4924 71.4792 44.0423 71.2772 44.5741 71.0346L43.8091 66.9057V66.9309ZM70.7626 56.0547C70.7789 54.5992 70.6032 53.1478 70.2398 51.737C69.9662 50.632 69.5049 49.5807 68.8756 48.6278C68.3485 47.8345 67.6787 47.1434 66.8993 46.5885C66.1944 46.0871 65.4103 45.7043 64.5788 45.4555C63.7868 45.2318 62.9673 45.1175 62.1436 45.1157C61.1684 45.1208 60.2003 45.278 59.2748 45.5814C58.3253 45.9055 57.4344 46.3772 56.6356 46.9787C55.8048 47.6072 55.0964 48.3791 54.5446 49.2572H54.4426V33.7612H48.8581V71.878H54.4426V55.8533C54.4368 54.956 54.6101 54.0663 54.9526 53.235C55.2413 52.5071 55.6749 51.8436 56.2276 51.2838C56.7516 50.7569 57.3697 50.3301 58.0508 50.025C58.6968 49.7578 59.3904 49.6209 60.0908 49.6222C60.9192 49.6 61.7397 49.7863 62.4751 50.1635C63.1162 50.5158 63.6526 51.028 64.0306 51.6489C64.4451 52.3514 64.7381 53.1172 64.8976 53.9148C65.0762 54.7889 65.1617 55.6791 65.1526 56.5709V71.878H70.7371V56.0547H70.7626ZM126.646 55.8533C126.67 54.143 126.403 52.4409 125.855 50.8181C125.425 49.5859 124.729 48.4606 123.815 47.52C123.027 46.7016 122.064 46.0654 120.998 45.657C120 45.2997 118.948 45.1165 117.887 45.1157C116.951 45.1185 116.021 45.2455 115.12 45.4933C114.319 45.7384 113.553 46.0809 112.838 46.513C112.191 46.9193 111.596 47.4011 111.065 47.948C110.574 48.4398 110.146 48.9894 109.79 49.5845H109.65L109.357 45.6947H104.55C104.55 46.4248 104.614 47.1801 104.652 47.948C104.69 48.7159 104.652 49.5089 104.716 50.3523C104.78 51.1957 104.716 52.0895 104.716 53.0588V71.9409H110.3V56.0925C110.292 55.15 110.465 54.2144 110.81 53.3357C111.094 52.5866 111.528 51.9016 112.085 51.3216C112.604 50.7888 113.224 50.3612 113.909 50.0628C114.559 49.7943 115.257 49.6573 115.961 49.66C116.794 49.6378 117.618 49.824 118.358 50.2013C118.997 50.5568 119.533 51.0683 119.914 51.6867C120.324 52.3569 120.609 53.0946 120.755 53.8644C120.94 54.7291 121.026 55.6117 121.01 56.4953V71.8528H126.595V55.8533H126.646ZM159.707 52.2531C160.913 51.8142 162.027 51.1615 162.996 50.3271C163.871 49.5699 164.575 48.6391 165.062 47.5955C165.537 46.564 165.78 45.4432 165.776 44.31C165.778 43.5171 165.684 42.7268 165.495 41.9561C165.259 41.0903 164.871 40.2722 164.348 39.5391C163.749 38.6845 162.992 37.9498 162.116 37.374C160.939 36.6486 159.646 36.1251 158.291 35.8256C156.435 35.4059 154.534 35.2073 152.63 35.234C151.521 35.234 150.45 35.234 149.405 35.3347C148.359 35.4354 147.352 35.4983 146.434 35.6116C145.516 35.7249 144.713 35.8508 144.011 35.9893V71.7773C144.802 71.878 145.809 71.9787 147.033 72.0668C148.257 72.1549 149.685 72.1927 151.33 72.2053C153.906 72.2601 156.479 71.9764 158.98 71.3619C160.815 70.9271 162.509 70.0391 163.901 68.7813C164.286 68.4348 164.644 68.0603 164.972 67.661C165.364 67.1802 165.706 66.6614 165.992 66.1126C166.328 65.4595 166.589 64.7713 166.77 64.0608C166.977 63.2117 167.08 62.341 167.076 61.4676C167.087 60.2947 166.88 59.1298 166.464 58.0311C166.093 57.0557 165.544 56.1555 164.845 55.375C164.161 54.6302 163.365 53.9934 162.486 53.4868C161.615 52.9976 160.68 52.6291 159.707 52.3916V52.2531ZM149.507 50.6796V39.7028C149.962 39.6109 150.421 39.5437 150.884 39.5014C151.457 39.5014 152.159 39.4133 153.115 39.4133C153.971 39.4102 154.825 39.4903 155.665 39.6524C156.479 39.8005 157.261 40.0903 157.973 40.5084C158.645 40.9166 159.195 41.4945 159.566 42.1826C160.003 43.0131 160.214 43.9414 160.178 44.8765C160.183 45.9491 159.858 46.998 159.248 47.8851C158.634 48.7865 157.771 49.4945 156.761 49.9243C155.555 50.4411 154.251 50.6986 152.936 50.6796H149.507ZM149.507 54.7708H152.732C153.784 54.7545 154.833 54.8687 155.856 55.1106C156.821 55.3295 157.74 55.7129 158.572 56.2436C159.382 56.7492 160.052 57.4457 160.523 58.2703C161.029 59.2241 161.279 60.2903 161.249 61.3669C161.257 62.417 161.007 63.4533 160.523 64.3881C160.114 65.1926 159.509 65.8846 158.763 66.4022C157.964 66.9478 157.069 67.3406 156.124 67.5603C155.077 67.813 154.002 67.9356 152.924 67.9253C152.21 67.9253 151.559 67.9253 151.011 67.9253C150.524 67.9017 150.039 67.8513 149.558 67.7743V54.7708H149.507ZM190.421 66.9309C189.488 67.3174 188.519 67.6125 187.527 67.812C186.268 68.0609 184.986 68.179 183.702 68.1645C182.686 68.18 181.674 68.0311 180.706 67.7239C179.765 67.435 178.897 66.9547 178.156 66.3141C177.381 65.617 176.775 64.7565 176.384 63.7964C175.902 62.5941 175.656 61.3128 175.657 60.02H192.589C192.589 59.6801 192.678 59.3277 192.704 58.9374C192.729 58.5472 192.704 58.1444 192.704 57.6786C192.709 56.4107 192.585 55.1455 192.334 53.9022C192.104 52.7163 191.718 51.5653 191.186 50.4782C190.676 49.44 189.99 48.495 189.159 47.6836C188.318 46.8622 187.316 46.2196 186.214 45.7954C184.952 45.3234 183.611 45.0886 182.261 45.1031C180.528 45.108 178.818 45.5041 177.263 46.2612C175.8 46.972 174.515 47.9954 173.502 49.2572C172.452 50.589 171.656 52.0992 171.156 53.7134C170.614 55.489 170.343 57.3346 170.353 59.1892C170.332 61.036 170.621 62.8734 171.207 64.6273C171.72 66.1759 172.559 67.6001 173.668 68.8065C174.769 69.9652 176.12 70.8644 177.62 71.4374C179.325 72.0799 181.138 72.4002 182.963 72.3815C184.594 72.3887 186.221 72.2327 187.82 71.9158C189.048 71.6818 190.245 71.3145 191.39 70.8206L190.472 66.9183L190.421 66.9309ZM175.823 56.0925C175.895 55.2832 176.062 54.4848 176.32 53.7134C176.576 52.9028 176.955 52.1348 177.442 51.4349C177.917 50.7443 178.539 50.1643 179.265 49.7355C180.066 49.2767 180.979 49.0458 181.904 49.0683C182.841 49.0396 183.767 49.2661 184.582 49.7229C185.286 50.1332 185.877 50.7082 186.303 51.3971C186.718 52.1066 187.019 52.8752 187.196 53.6756C187.37 54.4695 187.451 55.2804 187.438 56.0925H175.823ZM210.758 45.2667L210.082 45.1534C209.844 45.1399 209.606 45.1399 209.368 45.1534C208.395 45.1638 207.437 45.3874 206.563 45.808C205.646 46.2547 204.831 46.8799 204.166 47.6459C203.426 48.4936 202.855 49.4716 202.483 50.5286H202.292L202.1 45.7325H197.217C197.217 46.9913 197.332 48.2501 197.37 49.5089C197.408 50.7677 197.37 52.228 197.37 53.7385V71.878H202.955V58.0311C202.926 56.6641 203.182 55.3059 203.707 54.0406C204.135 52.9394 204.879 51.9857 205.849 51.2964C206.806 50.6531 207.942 50.3189 209.1 50.3397C209.419 50.3397 209.699 50.3397 209.98 50.3397C210.233 50.3633 210.484 50.4011 210.732 50.453V45.2667H210.758ZM231.553 45.6947L231.323 49.2068H231.221C230.838 48.4642 230.329 47.7915 229.717 47.2179C229.033 46.5672 228.228 46.0542 227.345 45.7073C226.262 45.3027 225.112 45.102 223.954 45.1157C222.508 45.1159 221.081 45.4296 219.772 46.0346C218.393 46.6592 217.167 47.5693 216.176 48.7033C215.051 49.9705 214.185 51.441 213.626 53.0336C212.987 54.9416 212.668 56.9402 212.683 58.95C212.682 60.6577 212.944 62.3556 213.461 63.9853C213.913 65.4547 214.645 66.8259 215.615 68.026C216.511 69.1539 217.647 70.0735 218.943 70.7199C220.276 71.364 221.743 71.6916 223.227 71.6766C224.288 71.6823 225.344 71.5165 226.351 71.1857C227.254 70.8738 228.095 70.4096 228.837 69.8136C229.552 69.2786 230.165 68.6221 230.648 67.875H230.737V70.3926C230.792 72.0531 230.456 73.7035 229.755 75.2139C229.216 76.3529 228.323 77.2923 227.205 77.8951C226.017 78.475 224.705 78.7602 223.38 78.7259C222.396 78.7328 221.413 78.64 220.448 78.449C219.623 78.2877 218.813 78.0603 218.025 77.7692C217.357 77.5251 216.713 77.2217 216.1 76.8629L214.825 81.1429C215.588 81.5749 216.396 81.9251 217.235 82.1877C218.176 82.4738 219.14 82.6843 220.116 82.8171C221.137 82.9681 222.169 83.0438 223.202 83.0437C225.007 83.0765 226.806 82.8258 228.531 82.301C229.856 81.8917 231.087 81.2287 232.152 80.3498C233.098 79.5721 233.886 78.6237 234.473 77.5553C235.042 76.5469 235.471 75.4671 235.748 74.3453C235.999 73.2734 236.161 72.183 236.232 71.085C236.296 70.015 236.334 69.0457 236.321 68.1645V53.2476C236.321 52.0769 236.321 51.0447 236.321 50.1383C236.321 49.232 236.321 48.4138 236.398 47.6962C236.474 46.9787 236.474 46.299 236.525 45.6947H231.553ZM230.648 60.9389C230.668 61.9181 230.499 62.8922 230.15 63.809C229.878 64.5748 229.443 65.2743 228.875 65.8609C228.359 66.3854 227.74 66.8009 227.056 67.0822C226.373 67.3635 225.638 67.5048 224.897 67.4973C223.939 67.5148 222.992 67.294 222.143 66.8553C221.327 66.415 220.627 65.7894 220.103 65.0301C219.51 64.1873 219.078 63.2445 218.828 62.2481C218.527 61.093 218.381 59.9036 218.395 58.7108C218.355 57.0404 218.641 55.3781 219.236 53.8141C219.695 52.5632 220.488 51.4583 221.531 50.6167C222.501 49.8651 223.703 49.4652 224.936 49.4837C225.741 49.4708 226.539 49.6387 227.269 49.9747C227.962 50.2802 228.58 50.7312 229.079 51.2964C229.594 51.8901 229.991 52.5731 230.252 53.3105C230.533 54.0988 230.671 54.9297 230.66 55.7652V60.8886L230.648 60.9389ZM87.8476 45.1157C86.1621 45.103 84.4904 45.4151 82.9261 46.0346C81.438 46.6633 80.1034 47.5989 79.0118 48.7788C77.8445 50.012 76.9462 51.4687 76.3726 53.0588C75.7127 54.9538 75.385 56.9462 75.4036 58.95C75.3826 60.877 75.6974 62.7931 76.3343 64.6147C76.8892 66.1788 77.7563 67.617 78.8843 68.8443C79.9757 69.9641 81.2914 70.8473 82.7476 71.4374C84.2749 72.0453 85.9076 72.3532 87.5543 72.3438C88.7667 72.345 89.9731 72.1754 91.1371 71.8402C92.3159 71.5185 93.435 71.0128 94.4521 70.3423C95.5448 69.6204 96.4989 68.7126 97.2698 67.661C98.1372 66.4793 98.7928 65.1594 99.2078 63.7587C99.7059 62.0743 99.9507 60.3269 99.9346 58.5724C99.951 56.7084 99.6582 54.8544 99.0676 53.084C98.5591 51.5037 97.7354 50.0399 96.6451 48.7788C95.59 47.6006 94.2837 46.6677 92.8201 46.0472C91.2453 45.4016 89.5524 45.0844 87.8476 45.1157ZM94.2226 58.7108C94.2291 59.9579 94.0792 61.201 93.7763 62.4117C93.512 63.4818 93.0819 64.5051 92.5013 65.4455C91.9672 66.2785 91.2477 66.9802 90.3976 67.4973C89.5799 68.003 88.6338 68.2692 87.6691 68.2652C86.6983 68.2677 85.7455 68.0064 84.9151 67.5099C84.0854 66.9845 83.3842 66.2837 82.8623 65.4581C82.2734 64.5309 81.8426 63.5145 81.5873 62.4495C81.2792 61.2568 81.1292 60.0297 81.1411 58.799C81.1371 57.8883 81.2097 56.9788 81.3578 56.0799C81.517 55.1949 81.7603 54.3267 82.0846 53.4868C82.4019 52.7044 82.8313 51.971 83.3596 51.309C83.8587 50.6933 84.4789 50.1837 85.1828 49.811C85.9754 49.4268 86.8501 49.2368 87.7328 49.2572C88.5882 49.2392 89.4344 49.434 90.1936 49.8236C90.898 50.1848 91.5188 50.6863 92.0168 51.2964C92.5413 51.9609 92.9704 52.6938 93.2918 53.4742C93.6151 54.2875 93.8544 55.131 94.0058 55.9918C94.1578 56.8902 94.2303 57.8 94.2226 58.7108ZM82.7476 41.4148C83.272 41.4117 83.7863 41.2728 84.2393 41.0119C84.6363 40.7459 84.9605 40.3869 85.1828 39.9671C85.4241 39.5041 85.5466 38.9898 85.5398 38.4691C85.5413 37.9356 85.4146 37.4092 85.1701 36.9334C84.932 36.4979 84.5853 36.1296 84.1628 35.8634C83.7325 35.6163 83.2453 35.482 82.7476 35.4732C82.2145 35.4718 81.6908 35.6109 81.2303 35.876C80.7836 36.134 80.4174 36.5086 80.1721 36.9586C79.9036 37.4178 79.7629 37.9389 79.7641 38.4691C79.7395 38.9871 79.8492 39.5027 80.0828 39.9671C80.3225 40.4096 80.6795 40.7794 81.1156 41.0371C81.617 41.3011 82.1796 41.4313 82.7476 41.4148ZM92.8073 41.4148C93.3441 41.4136 93.8713 41.2748 94.3373 41.0119C94.7483 40.7507 95.086 40.3914 95.3191 39.9671C95.5704 39.5074 95.6977 38.9915 95.6888 38.4691C95.6987 37.9331 95.5669 37.4038 95.3063 36.9334C95.0712 36.4918 94.7185 36.1219 94.2863 35.8634C93.8357 35.6096 93.3262 35.4752 92.8073 35.4732C92.2704 35.4732 91.7429 35.6121 91.2773 35.876C90.8363 36.1412 90.4719 36.514 90.2191 36.9586C89.9486 37.4164 89.8118 37.9392 89.8238 38.4691C89.8155 38.9915 89.9428 39.5072 90.1936 39.9671C90.4377 40.4031 90.7939 40.7679 91.2263 41.0245C91.6867 41.3036 92.2161 41.4517 92.7563 41.4525L92.8073 41.4148ZM48.9218 95.9339H50.8726V91.0497L51.3826 91.1127H51.9563C52.4141 91.1144 52.871 91.0723 53.3206 90.9868C53.7621 90.8975 54.1905 90.7537 54.5956 90.5588C54.9981 90.3657 55.3611 90.1011 55.6666 89.7783C55.9907 89.4462 56.2423 89.0521 56.4061 88.6202C56.5951 88.1127 56.686 87.5747 56.6738 87.0341C56.6816 86.5067 56.5773 85.9836 56.3678 85.4984C56.1899 85.0557 55.9054 84.6626 55.5391 84.3528C55.1201 83.9937 54.6226 83.7352 54.0856 83.5975C53.42 83.4253 52.7335 83.3448 52.0456 83.3584C51.3953 83.3584 50.7706 83.3584 50.3116 83.4213C49.8526 83.4843 49.3553 83.5346 48.9728 83.5975V95.9213L48.9218 95.9339ZM50.8726 84.9697C51.0442 84.9267 51.219 84.8972 51.3953 84.8815C51.6121 84.8815 51.8671 84.8815 52.1603 84.8815C52.6291 84.8715 53.0945 84.9617 53.5246 85.1459C53.8979 85.2996 54.2141 85.5634 54.4298 85.9012C54.6579 86.2817 54.7728 86.718 54.7613 87.16C54.7751 87.6358 54.656 88.1061 54.4171 88.5195C54.1924 88.8899 53.8589 89.1841 53.4608 89.3629C52.9862 89.5651 52.4731 89.6638 51.9563 89.6524H51.3443C51.1846 89.6378 51.0267 89.6083 50.8726 89.5643V84.9697ZM63.2783 86.8075H63.0488H62.7938C62.4615 86.8079 62.1339 86.8855 61.8376 87.0341C61.5214 87.187 61.2396 87.401 61.0088 87.6635C60.7587 87.9537 60.5643 88.2864 60.4351 88.6454H60.3713L60.3076 87.0089H58.6373C58.6373 87.4118 58.6373 87.8523 58.6373 88.2677C58.6373 88.6832 58.6373 89.1993 58.6373 89.7154V96.0094H60.5498V91.1756C60.5451 90.7051 60.6361 90.2385 60.8176 89.8035C60.964 89.4408 61.2116 89.1265 61.5316 88.8971C61.8625 88.6765 62.2544 88.5622 62.6536 88.5699H62.9468C63.0356 88.5567 63.1258 88.5567 63.2146 88.5699V86.8075H63.2783ZM68.6461 86.8075C68.0652 86.7999 67.4887 86.9068 66.9503 87.1222C66.4376 87.3347 65.9735 87.6473 65.5861 88.0412C65.1871 88.4718 64.8793 88.9768 64.6808 89.5266C64.4523 90.1781 64.3401 90.8638 64.3493 91.5532C64.343 92.2167 64.4508 92.8765 64.6681 93.5044C64.8559 94.0422 65.1555 94.5353 65.5478 94.952C65.9069 95.3356 66.3405 95.6438 66.8228 95.8584C67.3474 96.0604 67.9046 96.167 68.4676 96.1731C68.8989 96.1746 69.3283 96.1153 69.7426 95.9968C70.1515 95.8831 70.5391 95.7045 70.8901 95.4681C71.264 95.2189 71.5917 94.908 71.8591 94.5492C72.1602 94.1432 72.3848 93.6869 72.5221 93.2023C72.6924 92.6257 72.7783 92.028 72.7771 91.4274C72.779 90.7858 72.6757 90.1481 72.4711 89.5391C72.2961 89.0028 72.0143 88.5063 71.6423 88.0789C71.2938 87.6776 70.8579 87.3592 70.3673 87.1474C69.8333 86.9153 69.255 86.7994 68.6716 86.8075H68.6461ZM70.8008 91.4777C70.8037 91.902 70.7523 92.325 70.6478 92.7365C70.5563 93.106 70.4057 93.4587 70.2016 93.7813C70.0256 94.0663 69.7857 94.3074 69.5003 94.4863C69.2181 94.6622 68.8905 94.754 68.5568 94.7506C68.2231 94.754 67.8955 94.6622 67.6133 94.4863C67.3313 94.3087 67.0919 94.0724 66.9121 93.7939C66.7109 93.4698 66.5605 93.1176 66.4658 92.7491C66.3613 92.3375 66.3099 91.9146 66.3128 91.4903C66.3124 91.1782 66.338 90.8667 66.3893 90.5588C66.4412 90.2526 66.5268 89.9529 66.6443 89.665C66.7448 89.3948 66.8914 89.1436 67.0778 88.9223C67.2507 88.7074 67.468 88.5314 67.7153 88.4062C67.9845 88.2747 68.2821 88.2099 68.5823 88.2174C68.8742 88.2114 69.1632 88.2763 69.4238 88.4062C69.6707 88.5324 69.8845 88.7134 70.0486 88.9349C70.2299 89.1597 70.376 89.41 70.4821 89.6776C70.5955 89.9573 70.6767 90.2486 70.7243 90.5462C70.7746 90.85 70.8002 91.1573 70.8008 91.4651V91.4777ZM73.8608 87.0089V88.4188H75.1358V95.9717H77.0483V88.4188H78.9226V86.9586H76.9336V86.4676C76.9348 86.177 76.9561 85.8868 76.9973 85.5991C77.0455 85.3468 77.136 85.1043 77.2651 84.8815C77.3721 84.6738 77.5354 84.4995 77.7368 84.378C77.9635 84.2566 78.2185 84.1959 78.4763 84.2018C78.6626 84.1795 78.851 84.1795 79.0373 84.2018L79.4581 84.3277L79.6493 82.88C79.4607 82.801 79.2641 82.742 79.0628 82.7038C78.8028 82.6507 78.5378 82.6253 78.2723 82.6283C78.0146 82.6265 77.7577 82.6561 77.5073 82.7164C77.2404 82.7664 76.9826 82.8555 76.7423 82.9807C76.4917 83.1082 76.26 83.2692 76.0538 83.4591C75.8122 83.7013 75.6139 83.9822 75.4673 84.2899C75.3269 84.578 75.224 84.8826 75.1613 85.1962C75.0988 85.4906 75.0605 85.7895 75.0466 86.09C75.0466 86.3921 75.0466 86.6565 75.0466 86.9082L73.8608 87.0089ZM86.8148 94.2975C86.4991 94.4316 86.1701 94.5329 85.8331 94.5996C85.4128 94.6779 84.9858 94.7159 84.5581 94.7129C84.2118 94.7211 83.8667 94.67 83.5381 94.5618C83.2148 94.4634 82.9154 94.3006 82.6583 94.0835C82.3965 93.8408 82.1919 93.5443 82.0591 93.2149C81.8956 92.8146 81.8091 92.3877 81.8041 91.9561H87.5798C87.5936 91.8306 87.5936 91.7039 87.5798 91.5784C87.5798 91.4525 87.5798 91.3141 87.5798 91.1504C87.5803 90.7277 87.5375 90.3059 87.4523 89.8916C87.3767 89.481 87.2437 89.0828 87.0571 88.7083C86.8842 88.3532 86.6514 88.0297 86.3686 87.7516C86.073 87.4243 85.7071 87.1663 85.2976 86.9963C84.8895 86.8455 84.4583 86.7646 84.0226 86.7572C83.4269 86.749 82.8375 86.8783 82.3013 87.1348C81.8032 87.3743 81.367 87.723 81.0263 88.1544C80.653 88.6092 80.3716 89.1306 80.1976 89.6902C79.9858 90.2981 79.8739 90.9356 79.8661 91.5784C79.8738 92.213 79.9857 92.8422 80.1976 93.4415C80.3749 93.9719 80.6614 94.4605 81.0391 94.8765C81.4206 95.2772 81.8862 95.5909 82.4033 95.7954C82.9857 96.0135 83.6037 96.1245 84.2266 96.1227C84.7872 96.1189 85.3463 96.0642 85.8968 95.9591C86.3361 95.886 86.7644 95.7592 87.1718 95.5814L86.8531 94.2471L86.8148 94.2975ZM81.7148 90.521C81.7463 90.243 81.8061 89.9689 81.8933 89.7028C81.9842 89.4266 82.1129 89.164 82.2758 88.9223C82.443 88.6857 82.6606 88.488 82.9133 88.3433C83.1879 88.1862 83.5014 88.1077 83.8186 88.1167C84.1384 88.1067 84.4551 88.1805 84.7366 88.3307C84.977 88.4736 85.1783 88.6724 85.3231 88.9097C85.4685 89.1512 85.5719 89.415 85.6291 89.6902C85.6899 89.963 85.7198 90.2417 85.7183 90.521H81.7148ZM94.4648 87.2859C94.1726 87.1234 93.8596 87.0006 93.5341 86.9208C93.1185 86.8095 92.6896 86.7545 92.2591 86.7572C91.8249 86.7565 91.3937 86.8289 90.9841 86.9712C90.6205 87.0987 90.2835 87.2907 89.9896 87.5376C89.7198 87.7767 89.5028 88.0681 89.3521 88.3936C89.2083 88.7281 89.1346 89.0877 89.1353 89.451C89.1298 89.9803 89.3254 90.4923 89.6836 90.8861C90.1737 91.3986 90.7816 91.7872 91.4558 92.019C91.7609 92.138 92.0516 92.29 92.3228 92.4722C92.5169 92.5916 92.6788 92.7558 92.7946 92.9505C92.8896 93.1335 92.9377 93.3366 92.9348 93.5422C92.932 93.7541 92.875 93.962 92.7691 94.1464C92.6452 94.3323 92.4675 94.4771 92.2591 94.5618C91.9882 94.6706 91.6971 94.722 91.4048 94.7129C91.1429 94.7146 90.8818 94.6851 90.6271 94.6247C90.3802 94.5643 90.1375 94.4887 89.9003 94.3982C89.7229 94.3102 89.5524 94.2092 89.3903 94.096L88.9568 95.5059C89.1854 95.6305 89.4243 95.7358 89.6708 95.8206C89.9464 95.9098 90.2274 95.9813 90.5123 96.0346C90.8206 96.0796 91.1315 96.1048 91.4431 96.1101C92.0594 96.1178 92.671 96.0022 93.2408 95.7703C93.7179 95.5834 94.1267 95.2587 94.4138 94.8387C94.7008 94.3954 94.8514 93.8795 94.8473 93.3533C94.8529 92.9517 94.7611 92.5547 94.5796 92.1952C94.3946 91.8487 94.1331 91.5476 93.8146 91.3141C93.4235 91.0271 92.9945 90.7942 92.5396 90.6217C92.2315 90.5016 91.9332 90.3585 91.6471 90.1937C91.4576 90.0801 91.2929 89.9303 91.1626 89.7531C91.0589 89.5961 91.0055 89.4119 91.0096 89.2244C91.0072 89.0293 91.0602 88.8375 91.1626 88.6706C91.292 88.4986 91.4692 88.3675 91.6726 88.2929C91.8995 88.1872 92.1484 88.1355 92.3993 88.1419C92.6352 88.1407 92.8705 88.166 93.1006 88.2174C93.3 88.273 93.4958 88.3402 93.6871 88.4188C93.8422 88.4813 93.9916 88.5571 94.1333 88.6454L94.5668 87.2859H94.4648ZM101.771 87.2859C101.479 87.1212 101.166 86.9982 100.84 86.9208C100.425 86.8073 99.9955 86.7522 99.5648 86.7572C99.1306 86.7565 98.6994 86.8289 98.2898 86.9712C97.9236 87.0931 97.5856 87.2857 97.2953 87.5376C97.0218 87.7733 96.8041 88.0656 96.6578 88.3936C96.5047 88.7255 96.4263 89.0863 96.4283 89.451C96.4275 89.9817 96.6276 90.4936 96.9893 90.8861C97.4772 91.4013 98.0857 91.7904 98.7616 92.019C99.0653 92.1408 99.3558 92.2926 99.6286 92.4722C99.8219 92.5886 99.9803 92.7537 100.088 92.9505C100.189 93.131 100.238 93.3359 100.228 93.5422C100.234 93.7553 100.176 93.9655 100.062 94.1464C99.9399 94.3289 99.7674 94.4731 99.5648 94.5618C99.2939 94.6706 99.0029 94.722 98.7106 94.7129C98.487 94.7067 98.2648 94.6772 98.0476 94.6247C97.7997 94.568 97.5567 94.4923 97.3208 94.3982C97.1303 94.312 96.9469 94.2109 96.7726 94.096L96.2753 95.5185C96.4982 95.6455 96.7331 95.7509 96.9766 95.8332C97.253 95.9193 97.5339 95.9908 97.8181 96.0472C98.1264 96.0916 98.4373 96.1168 98.7488 96.1227C99.3823 96.137 100.012 96.0213 100.598 95.7829C101.07 95.5883 101.477 95.2652 101.771 94.8513C102.004 94.4522 102.136 94.0027 102.153 93.5421C102.171 93.0814 102.075 92.6234 101.873 92.2078C101.683 91.8607 101.417 91.5597 101.095 91.3267C100.706 91.0369 100.276 90.8037 99.8198 90.6343C99.5146 90.5171 99.2202 90.3739 98.9401 90.2063C98.7451 90.0999 98.579 89.9488 98.4556 89.7657C98.3519 89.6087 98.2985 89.4244 98.3026 89.237C98.3002 89.0419 98.3532 88.8501 98.4556 88.6832C98.566 88.5157 98.7202 88.3809 98.9018 88.2929C99.1278 88.1844 99.3774 88.1325 99.6286 88.1419C99.8603 88.1407 100.091 88.166 100.317 88.2174C100.521 88.2711 100.721 88.3384 100.916 88.4188C101.07 88.4839 101.219 88.5596 101.363 88.6454L101.873 87.2859H101.771ZM106.22 84.4787C106.215 84.2782 106.167 84.081 106.08 83.8997C105.986 83.7415 105.855 83.6077 105.698 83.5094C105.521 83.4167 105.324 83.3691 105.124 83.371C104.92 83.3702 104.719 83.4176 104.537 83.5094C104.373 83.6027 104.237 83.7373 104.142 83.8997C104.049 84.0788 104.001 84.2774 104.002 84.4787C104.005 84.6715 104.053 84.861 104.142 85.0326C104.235 85.1917 104.367 85.3257 104.525 85.4228C104.701 85.5155 104.898 85.5631 105.098 85.5613C105.307 85.5641 105.512 85.5166 105.698 85.4228C105.856 85.3257 105.987 85.1917 106.08 85.0326C106.169 84.861 106.217 84.6715 106.22 84.4787ZM106.055 86.9963H104.18V95.9717H106.106V86.9586L106.055 86.9963ZM112.43 86.7949C111.849 86.7873 111.272 86.8943 110.734 87.1096C110.223 87.3192 109.763 87.6323 109.382 88.0286C108.975 88.4551 108.662 88.961 108.464 89.514C108.236 90.1655 108.124 90.8512 108.133 91.5406C108.127 92.2042 108.234 92.8639 108.452 93.4918C108.639 94.0297 108.939 94.5228 109.331 94.9394C109.69 95.323 110.124 95.6312 110.606 95.8458C111.131 96.0478 111.688 96.1544 112.251 96.1605C112.682 96.162 113.112 96.1027 113.526 95.9843C114.374 95.7458 115.118 95.2368 115.643 94.5366C115.944 94.1306 116.168 93.6743 116.306 93.1897C116.673 91.9957 116.673 90.7206 116.306 89.5266C116.121 88.9917 115.836 88.4962 115.464 88.0663C115.115 87.665 114.68 87.3466 114.189 87.1348C113.655 86.9027 113.077 86.7868 112.493 86.7949H112.43ZM114.623 91.4274C114.625 91.8517 114.574 92.2746 114.47 92.6862C114.384 93.0574 114.233 93.411 114.023 93.731C113.851 94.0185 113.61 94.2605 113.322 94.4359C113.038 94.6086 112.712 94.7 112.379 94.7C112.045 94.7 111.719 94.6086 111.435 94.4359C111.153 94.2584 110.914 94.0221 110.734 93.7436C110.533 93.4195 110.382 93.0672 110.288 92.6988C110.183 92.2872 110.132 91.8642 110.135 91.4399C110.134 91.1279 110.16 90.8163 110.211 90.5084C110.263 90.2023 110.348 89.9026 110.466 89.6147C110.567 89.3445 110.713 89.0932 110.9 88.872C111.072 88.6571 111.29 88.4811 111.537 88.3559C111.806 88.2243 112.104 88.1595 112.404 88.167C112.696 88.1611 112.985 88.2259 113.246 88.3559C113.494 88.4851 113.711 88.6654 113.883 88.8846C114.056 89.1128 114.197 89.3625 114.304 89.6273C114.417 89.9069 114.498 90.1983 114.546 90.4958C114.603 90.7989 114.628 91.1067 114.623 91.4148V91.4274ZM126.098 90.4455C126.1 89.8521 126.01 89.2619 125.83 88.6957C125.679 88.274 125.44 87.8881 125.129 87.5628C124.858 87.2869 124.526 87.0759 124.16 86.946C123.816 86.8224 123.454 86.7585 123.089 86.7572C122.766 86.7591 122.444 86.8014 122.132 86.883C121.86 86.9698 121.599 87.0881 121.355 87.2355C121.135 87.3789 120.93 87.5433 120.743 87.7265C120.583 87.8975 120.446 88.0879 120.335 88.2929L120.233 86.9586H118.562V87.7265C118.562 87.9908 118.562 88.2677 118.562 88.5573V95.9339H120.488V90.521C120.481 90.1987 120.537 89.8782 120.653 89.5769C120.758 89.3211 120.909 89.0864 121.1 88.8846C121.44 88.5477 121.894 88.3461 122.375 88.3181C122.661 88.3213 122.944 88.3857 123.203 88.5069C123.42 88.6353 123.604 88.8121 123.739 89.023C123.875 89.2543 123.973 89.5048 124.032 89.7657C124.091 90.0642 124.116 90.3681 124.109 90.6721V95.9339H126.098V90.4455ZM135.023 90.4455C135.053 89.982 135.023 89.5167 134.933 89.0608C134.835 88.6371 134.648 88.2384 134.385 87.8901C134.115 87.5352 133.754 87.2573 133.34 87.0845C132.811 86.8666 132.242 86.7636 131.669 86.7823C131.28 86.7829 130.892 86.8166 130.509 86.883C130.171 86.9495 129.838 87.0421 129.515 87.16C129.242 87.2578 128.982 87.3844 128.737 87.5376L129.132 88.7964C129.338 88.6671 129.556 88.5575 129.782 88.4691C130.027 88.3789 130.279 88.3074 130.535 88.2551C130.804 88.2045 131.077 88.1792 131.351 88.1796C131.655 88.1696 131.959 88.221 132.243 88.3307C132.451 88.4046 132.635 88.5304 132.779 88.6957C132.905 88.8384 133.001 89.0056 133.059 89.1867C133.116 89.362 133.151 89.544 133.161 89.728C133.173 89.883 133.173 90.0387 133.161 90.1937C132.462 90.1607 131.76 90.2029 131.07 90.3196C130.502 90.4376 129.959 90.6505 129.464 90.949C129.038 91.2048 128.687 91.5647 128.444 91.9938C128.208 92.4453 128.085 92.9461 128.087 93.454C128.087 93.7933 128.147 94.1299 128.265 94.4485C128.387 94.7583 128.564 95.044 128.788 95.2919C129.028 95.5364 129.314 95.733 129.629 95.871C129.991 96.0108 130.376 96.0833 130.764 96.085C131.123 96.0786 131.479 96.0235 131.822 95.9213C132.128 95.8179 132.416 95.6693 132.677 95.4807C132.923 95.3069 133.138 95.0943 133.314 94.8513L133.442 95.8961H135.176C135.12 95.5668 135.082 95.2349 135.061 94.9017C135.061 94.5366 135.061 94.159 135.061 93.7688V90.37L135.023 90.4455ZM133.148 92.9631C133.152 93.2948 133.064 93.6212 132.893 93.9072C132.727 94.1789 132.489 94.4008 132.205 94.5492C131.913 94.7118 131.584 94.7985 131.249 94.801C131.017 94.807 130.787 94.7504 130.586 94.6373C130.397 94.502 130.255 94.3132 130.178 94.096C130.042 93.8494 129.976 93.571 129.986 93.2904C129.97 93.0213 130.028 92.753 130.154 92.5138C130.28 92.2745 130.468 92.0731 130.7 91.9309C130.931 91.7895 131.18 91.6794 131.44 91.6036C131.728 91.5267 132.022 91.4762 132.32 91.4525C132.621 91.4272 132.924 91.4272 133.225 91.4525V92.9253L133.148 92.9631ZM139.523 82.8926H137.662V95.9339H139.587V82.8548L139.523 82.8926ZM148.079 95.9717H149.978V91.0497L150.476 91.1127H151.049C151.507 91.1151 151.964 91.0729 152.414 90.9868C152.855 90.8965 153.283 90.7528 153.689 90.5588C154.084 90.3612 154.443 90.0971 154.747 89.7783C155.075 89.4495 155.327 89.0544 155.486 88.6202C155.675 88.1127 155.766 87.5747 155.754 87.0341C155.76 86.5081 155.66 85.9861 155.461 85.4984C155.274 85.0575 154.986 84.6654 154.619 84.3528C154.204 83.9962 153.711 83.7378 153.179 83.5975C152.513 83.4261 151.826 83.3456 151.139 83.3584C150.476 83.3584 149.864 83.3584 149.392 83.4213C148.92 83.4843 148.436 83.5346 148.117 83.5975V95.9213L148.079 95.9717ZM149.978 85.0074C150.145 84.9631 150.316 84.9336 150.488 84.9193C150.705 84.9193 150.96 84.9193 151.266 84.9193C151.731 84.9107 152.191 85.0008 152.618 85.1836C152.991 85.3373 153.307 85.6011 153.523 85.9389C153.751 86.3195 153.866 86.7557 153.854 87.1978C153.866 87.6717 153.751 88.1404 153.523 88.5573C153.294 88.9286 152.956 89.2226 152.554 89.4007C152.079 89.6028 151.566 89.7016 151.049 89.6902H150.45C150.29 89.6766 150.132 89.647 149.978 89.6021V84.9697V85.0074ZM165.278 90.5462C165.318 90.0499 165.292 89.5506 165.202 89.0608C165.107 88.6843 164.947 88.3267 164.73 88.0034C164.553 87.7274 164.324 87.4879 164.054 87.2985C163.808 87.1287 163.537 86.9971 163.251 86.9082C162.982 86.8327 162.703 86.7946 162.422 86.7949C162.088 86.7931 161.756 86.8484 161.441 86.9586C161.112 87.0622 160.805 87.2243 160.535 87.4369C160.246 87.65 159.999 87.9148 159.809 88.2174V82.8548H157.858V95.9339H159.783V90.4455C159.772 90.156 159.82 89.8672 159.926 89.5967C160.031 89.3263 160.191 89.0797 160.395 88.872C160.577 88.702 160.789 88.5656 161.02 88.4691C161.245 88.3711 161.488 88.3197 161.734 88.3181C162.013 88.3209 162.287 88.3854 162.537 88.5069C162.76 88.6435 162.945 88.8342 163.073 89.0608C163.211 89.2953 163.31 89.5504 163.366 89.8161C163.423 90.115 163.452 90.4183 163.455 90.7224V95.9717H165.368V90.5084L165.278 90.5462ZM173.03 86.9963L171.564 92.0316C171.488 92.3463 171.398 92.6484 171.322 92.9631C171.245 93.2778 171.156 93.5673 171.092 93.8317L170.939 93.2652C170.939 93.0638 170.837 92.8498 170.774 92.6484C170.71 92.447 170.659 92.233 170.595 92.0316L168.938 86.9963H166.898L170.021 95.2793C170.055 95.3521 170.08 95.428 170.098 95.5059C170.104 95.5603 170.104 95.6152 170.098 95.6695C170.084 95.7783 170.054 95.8844 170.009 95.9843C169.931 96.1805 169.837 96.37 169.728 96.5507C169.577 96.7906 169.406 97.0179 169.218 97.2305C168.99 97.4815 168.734 97.7054 168.453 97.8977C168.136 98.1322 167.783 98.315 167.408 98.4389L167.905 100.038C168.096 99.9929 168.284 99.934 168.466 99.8614C168.721 99.7575 168.968 99.6355 169.205 99.4963C169.496 99.316 169.769 99.1095 170.021 98.8795C170.407 98.5015 170.745 98.0789 171.029 97.6207C171.397 97.0151 171.721 96.384 171.998 95.7325C172.304 95.015 172.635 94.159 172.992 93.2149L175.185 86.9963H173.03ZM176.945 86.9963H175.823V88.4062H177.098V93.0512C177.084 93.5473 177.14 94.043 177.263 94.524C177.354 94.8746 177.529 95.1984 177.773 95.4681C177.985 95.6958 178.247 95.8724 178.538 95.9843C178.869 96.104 179.219 96.1637 179.571 96.1605C179.86 96.1821 180.15 96.1821 180.438 96.1605C180.651 96.1325 180.861 96.0819 181.063 96.0094V94.5618L180.693 94.6373C180.536 94.6525 180.378 94.6525 180.221 94.6373C180.051 94.651 179.879 94.6198 179.725 94.5468C179.57 94.4739 179.438 94.3618 179.342 94.2219C179.12 93.8404 179.022 93.4011 179.061 92.9631V88.3684H181.229V86.9586H179.061V84.7305L177.098 85.2844V86.9208L176.945 86.9963ZM186.545 86.7949C185.964 86.7873 185.388 86.8943 184.85 87.1096C184.335 87.319 183.87 87.632 183.485 88.0286C183.086 88.4592 182.779 88.9642 182.58 89.514C182.352 90.1655 182.239 90.8512 182.249 91.5406C182.236 92.2046 182.344 92.8654 182.567 93.4918C182.756 94.0266 183.05 94.5189 183.434 94.9394C183.797 95.3193 184.23 95.627 184.709 95.8458C185.234 96.0478 185.791 96.1544 186.354 96.1605C186.785 96.162 187.215 96.1027 187.629 95.9843C188.52 95.7565 189.304 95.2317 189.848 94.4989C190.144 94.0898 190.368 93.6344 190.511 93.1519C190.683 92.576 190.764 91.9774 190.753 91.377C190.765 90.7357 190.666 90.097 190.46 89.4888C190.285 88.9524 190.003 88.4559 189.631 88.0286C189.28 87.6301 188.845 87.3121 188.356 87.097C187.822 86.865 187.243 86.7491 186.66 86.7572L186.545 86.7949ZM188.7 91.4651C188.703 91.8894 188.652 92.3124 188.547 92.7239C188.456 93.0934 188.305 93.4461 188.101 93.7688C187.925 94.0537 187.685 94.2949 187.4 94.4737C187.117 94.6496 186.79 94.7414 186.456 94.738C186.122 94.7436 185.794 94.6516 185.513 94.4737C185.228 94.2995 184.988 94.0625 184.811 93.7813C184.604 93.4602 184.454 93.107 184.365 92.7365C184.261 92.325 184.209 91.902 184.212 91.4777C184.212 91.1657 184.237 90.8541 184.289 90.5462C184.342 90.2417 184.423 89.9426 184.531 89.6524C184.641 89.3842 184.792 89.1339 184.977 88.9097C185.15 88.6948 185.367 88.5189 185.615 88.3936C185.882 88.2692 186.173 88.2046 186.469 88.2046C186.764 88.2046 187.056 88.2692 187.323 88.3936C187.57 88.5198 187.784 88.7008 187.948 88.9223C188.129 89.1471 188.275 89.3974 188.381 89.665C188.495 89.9447 188.576 90.236 188.624 90.5336C188.674 90.8374 188.699 91.1447 188.7 91.4525V91.4651Z" fill="#231F20"/>
</g>
<defs>
<clipPath id="clip0_355_628">
<rect width="255" height="100" fill="white"/>
</clipPath>
</defs>
</svg>
