<svg width="638" height="210" viewBox="0 0 638 210" fill="none" xmlns="http://www.w3.org/2000/svg">
<path fill-rule="evenodd" clip-rule="evenodd" d="M472.127 47.8408H485.981V62.6178H471.204V47.8408H472.127ZM338.303 120.618C337.841 121.726 337.471 122.927 337.01 124.035C336.178 126.067 335.07 128.283 333.869 130.223C331.561 133.917 329.067 137.242 325.927 140.105C322.879 142.968 319.554 145.369 315.675 147.494C311.796 149.525 308.01 151.096 303.853 152.111C299.79 153.22 295.634 153.682 291.478 153.682C287.137 153.682 283.073 153.22 279.194 152.204C275.315 151.28 271.713 149.803 268.204 147.863C264.694 145.924 261.554 143.615 258.968 141.029H258.876C256.197 138.258 253.796 135.118 251.764 131.608C249.732 128.099 248.162 124.22 247.146 120.248C246.038 116.185 245.576 111.844 245.576 107.226V105.379C245.576 100.207 246.408 95.4045 247.978 90.879C249.64 86.2611 252.041 82.1051 255.366 78.1338C258.599 74.1624 262.201 71.1146 266.357 69.0828C270.328 67.0509 274.761 66.035 279.564 66.035C282.611 66.035 285.567 66.6815 288.522 67.6974C291.293 68.8057 294.064 70.4681 296.742 72.5924C299.42 74.7166 301.36 77.3949 302.653 80.2579C303.946 83.0287 304.685 86.2611 304.685 89.7707C304.685 92.0796 304.315 94.1115 303.761 96.1433C303.022 98.0828 302.099 99.8376 300.713 101.592C299.42 103.439 297.943 104.825 296.096 105.656C294.433 106.58 292.494 107.134 290.277 107.134C289.815 107.134 289.446 107.134 288.984 107.041C288.522 107.041 288.06 106.949 287.691 106.764L285.752 106.303L284.92 106.025L285.013 105.102L285.752 100.761L285.844 100.115L286.583 99.8376C288.984 99.3758 290.831 98.2675 292.032 96.6974C293.232 95.2197 293.879 93.0955 293.879 90.5096V89.4936C293.879 87.3694 293.51 85.2452 292.771 83.3057C292.032 81.3662 290.831 79.6115 289.353 77.7643C287.876 76.1019 286.213 74.9013 284.459 74.0701C282.611 73.2389 280.58 72.8694 278.455 72.8694C272.083 72.8694 266.726 75.7325 262.662 81.828C261.554 83.4904 260.631 85.0605 259.799 86.7229C259.06 88.3853 258.322 90.1401 257.86 91.8949C257.213 93.5573 256.936 95.4968 256.567 97.3439C256.29 99.2834 256.197 101.223 256.197 103.255C256.197 108.889 257.029 114.338 258.691 119.232C260.261 124.127 262.755 128.838 266.172 133.086C269.404 137.334 273.283 140.567 277.717 142.599C282.057 144.723 287.137 145.739 292.678 145.739C295.818 145.739 299.051 145.369 302.099 144.538C305.146 143.707 308.102 142.506 311.057 140.844C313.92 139.274 316.506 137.242 318.723 134.933C321.032 132.624 323.064 130.038 324.726 126.99C326.389 123.943 327.774 120.803 328.605 117.755C329.436 114.522 329.898 111.29 329.898 107.873C329.898 103.809 329.252 100.022 327.959 96.7898C326.758 93.5573 324.818 90.5095 322.417 88.0159C319.924 85.3376 316.599 82.5669 312.997 79.7962C309.303 76.9331 304.962 73.9777 300.067 71.0223C295.541 68.1592 291.57 65.3885 288.153 62.8025C284.736 60.1242 281.873 57.5382 279.564 54.8599C277.162 52.1815 275.315 49.0414 274.115 45.6242C272.914 42.0223 272.267 38.051 272.267 33.6178C272.267 29.6465 273.006 25.9522 274.299 22.535C275.592 19.0255 277.717 16.0701 280.487 13.3917C281.965 11.914 283.35 10.7134 284.828 9.78981C286.398 8.68153 287.968 7.85032 289.538 7.11146C291.108 6.37261 292.771 5.81847 294.433 5.44904C296.096 5.07962 297.943 4.80255 299.605 4.80255C302.745 4.80255 306.624 5.91083 311.334 7.94267V0H316.783V55.8758H311.334V41.9299C311.334 37.5892 311.057 33.6178 310.596 29.9236C310.226 26.3217 309.487 23.0892 308.656 20.1338C307.732 17.4554 306.255 15.4236 304.315 14.1306C302.283 12.9299 299.697 12.1911 296.65 12.1911C294.618 12.1911 292.678 12.6529 290.831 13.4841C288.984 14.3153 287.229 15.6083 285.659 17.3631C284.182 19.2102 282.981 21.242 282.242 23.2739C281.411 25.3981 281.041 27.6146 281.041 30.0159C281.041 32.4172 281.411 34.7261 281.965 36.8503C282.427 38.8822 283.443 40.8217 284.643 42.4841V42.5764C285.752 44.5159 287.045 46.1783 288.338 47.7484C289.631 49.2261 291.108 50.5191 292.678 51.6274C294.341 52.828 296.373 54.3057 298.866 55.8758C301.267 57.4459 304.131 59.293 307.455 61.3248C312.627 64.465 317.245 67.6051 321.217 70.7452C325.373 73.8853 328.79 77.0255 331.838 80.2579C334.239 82.9363 336.178 86.0764 337.656 89.4013C338.303 87.5541 338.949 85.8917 339.688 84.3217C340.981 81.828 342.459 79.4267 344.306 77.3025C347.353 73.793 350.771 71.2994 354.742 69.4522C358.713 67.7898 363.146 66.9586 368.134 66.9586C370.812 66.9586 373.398 67.2357 375.799 67.7898C378.201 68.2516 380.51 69.0828 382.634 70.2834L383.096 70.5605V84.3217L381.525 83.0287C379.401 81.3662 377.092 80.1656 374.783 79.3344C372.475 78.5032 370.073 78.1338 367.672 78.1338C364.624 78.1338 362.038 78.5955 359.637 79.7962C357.236 80.9968 355.019 82.6592 353.172 85.0605C351.325 87.3694 349.939 90.1401 348.924 93.0955C348 96.2357 347.446 99.7452 347.446 103.532C347.446 107.411 347.815 110.736 348.739 113.783C349.57 116.831 351.048 119.325 352.71 121.449C354.557 123.481 356.589 125.143 358.99 126.252C361.299 127.36 364.07 127.822 367.025 127.822C372.105 127.822 376.815 125.975 381.248 122.28L382.911 120.803V133.732L382.541 134.102C380.14 135.672 377.462 136.873 374.599 137.704C371.736 138.535 368.596 138.904 365.363 138.904C360.93 138.904 356.774 138.073 353.172 136.503C349.57 134.933 346.338 132.439 343.567 129.299C342.089 127.637 340.796 125.697 339.688 123.758C339.226 122.742 338.672 121.726 338.303 120.618ZM67.1433 153.22H62.156V144.815H1.29299V138.904H13.2994V18.4713C13.2994 15.7006 12.3758 13.6688 10.4363 12.2834C8.40446 10.8057 5.26433 10.1592 1.10828 10.1592H0V4.24841H39.0669V10.1592H26.7834V138.904C31.8631 138.812 36.2962 138.535 40.5446 137.981C44.8853 137.242 48.8567 136.318 52.3662 135.118C55.5987 133.825 58.1847 131.885 59.7548 129.207C61.4172 126.436 62.2484 122.927 62.2484 118.586V83.5828H68.1592V153.22H67.1433ZM120.156 137.427H109.443V129.392C107.503 132.162 105.379 134.287 102.978 135.857C99.7452 137.889 95.8662 138.997 91.5255 138.997C88.3853 138.997 85.6146 138.535 83.121 137.519C80.6274 136.688 78.4108 135.21 76.656 133.455C74.8089 131.516 73.5159 129.392 72.5924 126.806C71.7611 124.404 71.2994 121.634 71.2994 118.586C71.2994 105.471 78.3185 97.8981 92.2643 95.6815L109.627 93.0032C109.535 88.1083 108.519 84.2293 106.58 81.6433C104.732 79.1497 101.869 77.949 97.9904 77.949C90.9713 77.949 84.5987 80.6274 78.965 85.8917L77.1178 87.4618V73.6083L77.5796 73.2388C80.7197 71.1146 83.9522 69.5446 87.4618 68.4363C91.0637 67.328 94.8503 66.8662 98.8216 66.8662C106.303 66.8662 111.936 68.9904 115.723 73.3312C119.417 77.7643 121.357 84.1369 121.357 92.7261V137.334H120.156V137.427ZM109.35 103.717L95.8662 105.748C93.742 106.118 91.8025 106.58 90.0478 107.226C88.4777 107.873 87.1847 108.519 86.0764 109.258V109.35C85.1529 110.089 84.414 111.197 83.9522 112.49C83.3981 113.968 83.121 115.815 83.121 117.847C83.121 119.417 83.3981 120.71 83.8599 121.911C84.3216 123.111 85.0605 124.22 85.9841 125.143C86.9076 126.067 88.0159 126.713 89.2166 127.175C90.5095 127.637 91.9873 127.914 93.6497 127.914C95.9586 127.914 97.9904 127.452 99.8376 126.621C101.777 125.79 103.347 124.497 104.917 122.742C106.395 120.895 107.411 119.048 108.334 116.739C109.073 114.43 109.443 112.029 109.443 109.258V103.717H109.35ZM169.475 81.1815C168.736 80.535 167.904 80.0732 166.796 79.7038C165.596 79.3344 164.303 79.242 162.825 79.242C160.885 79.242 159.223 79.7038 157.653 80.7197C155.99 81.6433 154.513 83.2134 153.22 85.3376C151.927 87.3694 150.911 89.7707 150.172 92.5414C149.525 95.4045 149.248 98.7293 149.248 102.331V137.519H137.427V68.5287H149.248V78.3185C149.525 77.672 149.895 77.1178 150.172 76.4713C151.28 74.5318 152.573 72.8694 154.051 71.5764C155.621 70.0987 157.191 69.1752 158.854 68.4363C160.701 67.6974 162.455 67.328 164.395 67.328C165.596 67.328 166.796 67.4204 167.904 67.6051C168.828 67.6974 169.844 67.9745 170.583 68.3439L171.229 68.621V82.5669L169.475 81.1815ZM224.334 137.427H213.529V129.392C211.682 132.162 209.557 134.287 207.064 135.857C203.831 137.889 200.045 138.997 195.704 138.997C192.564 138.997 189.701 138.535 187.299 137.519C184.806 136.688 182.589 135.21 180.834 133.455C178.895 131.516 177.602 129.392 176.771 126.806C175.847 124.404 175.478 121.634 175.478 118.586C175.478 112.121 177.14 106.857 180.65 103.07C184.252 99.1911 189.424 96.7898 196.35 95.6815L213.713 93.0032C213.344 88.2006 212.42 84.3216 210.573 81.828C208.634 79.3344 205.863 78.1338 201.984 78.1338C194.873 78.1338 188.5 80.8121 182.866 86.0764L181.204 87.6465V73.793L181.573 73.4236C184.713 71.2994 188.038 69.7293 191.548 68.621C195.057 67.5127 198.936 67.051 202.908 67.051C210.389 67.051 215.93 69.1752 219.809 73.5159C223.503 77.949 225.35 84.3217 225.35 92.9108V137.519H224.334V137.427ZM213.529 103.717L200.137 105.748C197.828 106.118 195.889 106.58 194.318 107.226C192.748 107.873 191.455 108.519 190.347 109.35C189.239 110.089 188.5 111.197 188.038 112.49C187.576 113.968 187.207 115.723 187.207 117.755C187.207 119.325 187.484 120.618 187.946 121.818C188.408 123.019 189.146 124.127 190.07 125.051C190.994 125.975 192.102 126.621 193.487 127.083C194.78 127.545 196.258 127.822 197.828 127.822C200.137 127.822 202.169 127.36 204.108 126.529C205.955 125.697 207.618 124.404 209.003 122.65C210.573 120.803 211.682 118.955 212.42 116.646C213.159 114.338 213.529 111.936 213.529 109.166V103.717ZM447.191 137.427H436.478V97.8057C436.478 91.0637 435.277 86.0764 433.06 82.7516C430.936 79.6115 427.611 78.0414 423.271 78.0414C420.962 78.0414 419.022 78.4108 417.083 79.3344C415.236 80.258 413.573 81.7357 412.003 83.6752C410.433 85.5223 409.325 87.7389 408.494 90.1401C407.755 92.6338 407.293 95.4044 407.293 98.4522V137.334H395.471V36.3885H407.293V77.3949C409.417 74.3471 411.726 72.1306 414.497 70.2834C418.006 68.1592 421.978 67.051 426.411 67.051C433.615 67.051 439.064 69.4522 442.666 74.2548C446.267 78.965 448.115 85.9841 448.115 95.2197V137.519H447.191V137.427ZM490.968 138.997C486.35 138.997 482.194 138.166 478.408 136.596C474.713 134.933 471.389 132.532 468.618 129.207C465.847 125.975 463.815 122.188 462.338 118.032C461.045 113.691 460.306 108.981 460.306 103.717C460.306 98.0828 461.045 92.9108 462.522 88.3853C464 83.9522 466.124 79.9809 468.987 76.656C471.85 73.4236 475.267 71.0223 479.239 69.2675C483.118 67.6051 487.551 66.8662 492.353 66.8662C497.064 66.8662 501.127 67.6051 504.914 69.1752C508.608 70.8376 511.748 73.2389 514.427 76.379C517.105 79.6115 519.045 83.3981 520.338 87.7388C521.631 92.0796 522.277 97.1592 522.277 102.701C522.277 108.15 521.538 113.045 520.245 117.385C518.768 121.726 516.643 125.605 513.873 128.93C511.01 132.347 507.685 134.748 503.898 136.411C500.019 138.166 495.771 138.997 490.968 138.997ZM491.707 78.0414C485.796 78.0414 481.086 80.1656 477.761 84.6911C475.914 86.8153 474.621 89.4936 473.79 92.6338C472.959 95.7739 472.497 99.3758 472.497 103.347C472.497 107.226 472.959 110.736 473.79 113.691C474.713 116.739 476.099 119.232 477.761 121.357C479.608 123.481 481.455 125.236 483.949 126.252C486.258 127.36 488.844 127.822 491.799 127.822C494.847 127.822 497.433 127.36 499.742 126.252C502.051 125.143 503.99 123.573 505.56 121.541C507.131 119.417 508.331 116.739 509.162 113.691C509.994 110.551 510.363 107.041 510.363 102.978C510.363 98.914 509.994 95.3121 509.162 92.172C508.331 89.0318 507.131 86.3535 505.56 84.3217C503.99 82.1974 502.051 80.6274 499.742 79.5191C497.341 78.5955 494.662 78.0414 491.707 78.0414ZM587.296 137.427H576.49V98.2675C576.49 91.4331 575.382 86.2611 573.073 82.8439C571.041 79.6115 567.809 78.0414 563.468 78.0414C561.159 78.0414 559.035 78.4108 557.188 79.3344C555.341 80.258 553.586 81.7357 552.108 83.5828V83.6752C550.538 85.5223 549.43 87.6465 548.691 90.1401C547.86 92.5414 547.49 95.2197 547.49 98.1752V137.334H535.669V68.5287H547.49V77.3025C549.522 74.2548 551.924 71.8535 554.602 70.1911C558.111 68.0669 562.083 66.9586 566.608 66.9586C573.627 66.9586 578.984 69.3599 582.771 74.4395C584.618 76.8408 585.911 79.8885 586.834 83.4904C587.758 87 588.127 90.9713 588.127 95.4968V137.427H587.296ZM496.048 47.8408H509.809V62.6178H495.032V47.8408H496.048Z" fill="#231F20"/>
<path d="M73.9778 199.029V163.841H87.3695C89.6784 163.841 91.4332 163.841 92.6338 164.118C94.481 164.487 95.8663 164.949 96.9746 165.78C98.1752 166.611 99.0988 167.72 99.8377 169.197C100.577 170.675 100.946 172.245 100.946 174C100.946 177.048 100.022 179.541 98.0829 181.573C96.1434 183.605 92.7262 184.713 87.7389 184.713H78.688V199.029H73.9778ZM78.688 180.465H87.8313C90.8791 180.465 93.0033 180.003 94.2039 178.802C95.4969 177.694 96.1434 176.124 96.1434 174.092C96.1434 172.615 95.774 171.322 95.0351 170.398C94.2039 169.29 93.188 168.551 91.9873 168.274C91.2485 168.181 89.8631 167.997 87.6466 167.997H78.688V180.465Z" fill="#231F20"/>
<path d="M106.303 199.029V163.841H110.643V176.494C112.675 174.092 115.261 172.892 118.217 172.892C120.156 172.892 121.819 173.353 123.112 174.092C124.589 174.831 125.513 175.755 126.159 177.14C126.806 178.433 126.991 180.373 126.991 182.959V199.121H122.65V182.866C122.65 180.742 122.188 179.172 121.357 178.156C120.433 177.232 119.048 176.678 117.385 176.678C116.092 176.678 114.892 176.955 113.783 177.602C112.675 178.248 111.844 179.172 111.382 180.28C110.92 181.481 110.643 183.051 110.643 184.99V198.936H106.303V199.029Z" fill="#231F20"/>
<path d="M133.456 208.818L132.994 204.847C133.917 205.124 134.656 205.216 135.395 205.216C136.319 205.216 137.242 205.124 137.704 204.755C138.35 204.478 138.812 204.016 139.182 203.462C139.551 203.092 139.921 201.984 140.475 200.229C140.567 199.952 140.752 199.583 140.844 199.306L131.239 173.63H135.857L141.306 188.315C141.952 190.255 142.599 192.194 143.153 194.226C143.615 192.287 144.261 190.347 145 188.592L150.449 173.63H154.79L145.185 199.675C144.077 202.446 143.245 204.385 142.784 205.309C141.952 206.787 141.121 207.802 140.105 208.449C138.997 209.188 137.796 209.557 136.503 209.557C135.395 209.373 134.471 209.188 133.456 208.818Z" fill="#231F20"/>
<path d="M167.72 195.15L168.181 199.029C166.981 199.306 165.873 199.398 164.949 199.398C163.379 199.398 162.178 199.121 161.347 198.659C160.516 198.013 159.869 197.459 159.5 196.627C159.131 195.889 159.038 194.134 159.038 191.548V176.863H155.806V173.446H159.038V167.166L163.379 164.487V173.446H167.72V176.863H163.379V191.825C163.379 193.026 163.379 193.857 163.656 194.226C163.748 194.596 164.025 194.873 164.395 195.057C164.764 195.15 165.226 195.334 165.873 195.334C166.242 195.334 166.888 195.334 167.72 195.15Z" fill="#231F20"/>
<path d="M170.398 186.283C170.398 181.573 171.599 178.064 174.277 175.847C176.401 173.908 179.172 172.984 182.312 172.984C185.822 172.984 188.685 174.185 190.901 176.494C193.21 178.803 194.319 181.943 194.319 186.006C194.319 189.239 193.857 191.917 192.841 193.672C191.917 195.612 190.44 197.089 188.5 198.013C186.561 199.121 184.529 199.583 182.312 199.583C178.71 199.583 175.847 198.475 173.631 196.166C171.414 193.857 170.398 190.624 170.398 186.283ZM174.647 186.283C174.647 189.516 175.385 191.917 176.771 193.672C178.248 195.242 180.003 196.073 182.22 196.073C184.344 196.073 186.191 195.242 187.484 193.672C188.962 192.01 189.608 189.608 189.608 186.191C189.608 183.051 188.87 180.65 187.484 178.987C186.006 177.417 184.344 176.586 182.22 176.586C180.096 176.586 178.248 177.417 176.771 178.987C175.385 180.557 174.647 182.959 174.647 186.283Z" fill="#231F20"/>
<path d="M199.121 199.029H203.462V163.841H199.121V199.029Z" fill="#231F20"/>
<path d="M208.542 186.283C208.542 181.573 209.835 178.064 212.513 175.847C214.637 173.908 217.315 172.984 220.548 172.984C224.057 172.984 226.92 174.185 229.137 176.494C231.446 178.803 232.554 181.943 232.554 186.006C232.554 189.239 232.092 191.917 231.077 193.672C229.968 195.612 228.583 197.089 226.736 198.013C224.796 199.121 222.764 199.583 220.548 199.583C216.946 199.583 214.083 198.475 211.866 196.166C209.65 193.857 208.542 190.624 208.542 186.283ZM212.975 186.283C212.975 189.516 213.713 191.917 215.099 193.672C216.577 195.242 218.331 196.073 220.548 196.073C222.672 196.073 224.427 195.242 225.812 193.672C227.29 192.01 227.936 189.608 227.936 186.191C227.936 183.051 227.198 180.65 225.812 178.987C224.335 177.417 222.58 176.586 220.548 176.586C218.424 176.586 216.577 177.417 215.099 178.987C213.713 180.557 212.975 182.959 212.975 186.283Z" fill="#231F20"/>
<path d="M236.71 201.061L240.958 201.707C241.051 203 241.697 204.016 242.436 204.57C243.544 205.309 244.93 205.771 246.869 205.771C248.809 205.771 250.379 205.309 251.487 204.57C252.595 203.739 253.334 202.631 253.796 201.153C253.888 200.322 254.073 198.382 254.073 195.611C252.134 197.92 249.825 199.029 247.054 199.029C243.452 199.029 240.774 197.736 238.834 195.15C236.895 192.656 235.971 189.608 235.971 186.099C235.971 183.697 236.433 181.389 237.264 179.357C238.095 177.325 239.388 175.755 241.143 174.554C242.806 173.446 244.745 172.892 247.054 172.892C250.102 172.892 252.503 174.185 254.443 176.586V173.446H258.506V195.519C258.506 199.49 258.044 202.261 257.213 203.924C256.474 205.586 255.181 206.971 253.519 207.895C251.672 208.818 249.548 209.373 247.054 209.373C244.006 209.373 241.513 208.634 239.665 207.341C237.541 205.863 236.71 203.831 236.71 201.061ZM240.312 185.729C240.312 189.147 240.958 191.548 242.251 193.118C243.544 194.688 245.299 195.427 247.331 195.427C249.271 195.427 250.933 194.688 252.226 193.118C253.519 191.548 254.258 189.239 254.258 185.914C254.258 182.866 253.519 180.465 252.226 178.895C250.748 177.325 249.086 176.494 247.146 176.494C245.207 176.494 243.637 177.325 242.251 178.895C240.958 180.465 240.312 182.774 240.312 185.729Z" fill="#231F20"/>
<path d="M264.971 168.643V163.841H269.312V168.643H264.971ZM264.971 199.029V173.446H269.312V199.029H264.971Z" fill="#231F20"/>
<path d="M292.493 189.608L296.742 190.255C296.28 193.118 295.172 195.427 293.232 197.089C291.293 198.752 288.891 199.49 286.121 199.49C282.611 199.49 279.841 198.382 277.716 196.073C275.684 193.764 274.576 190.532 274.576 186.283C274.576 183.513 275.038 181.111 275.869 179.08C276.793 177.048 278.27 175.478 280.118 174.369C281.965 173.446 283.997 172.799 286.305 172.799C288.984 172.799 291.2 173.538 293.048 174.924C294.71 176.401 295.911 178.341 296.465 180.834L292.216 181.573C291.847 179.911 291.108 178.525 290.184 177.694C289.076 176.771 287.876 176.401 286.49 176.401C284.366 176.401 282.519 177.14 281.226 178.71C279.748 180.28 279.194 182.774 279.194 186.191C279.194 189.608 279.841 192.102 281.134 193.672C282.426 195.242 284.181 195.981 286.305 195.981C287.968 195.981 289.446 195.519 290.554 194.411C291.57 193.395 292.309 191.825 292.493 189.608Z" fill="#231F20"/>
<path d="M314.844 199.029V163.841H330.36C333.5 163.841 335.902 164.118 337.564 164.672C339.134 165.411 340.427 166.519 341.443 168.089C342.367 169.659 342.921 171.506 342.921 173.353C342.921 175.847 342.089 177.971 340.519 179.726C338.949 181.388 336.456 182.497 333.039 182.959C334.239 183.605 335.163 184.159 335.809 184.621C337.287 185.914 338.488 187.484 339.688 189.331L345.876 198.936H339.873L335.255 191.548C333.962 189.423 332.761 187.853 331.838 186.745C331.007 185.545 330.175 184.806 329.437 184.344C328.79 183.882 328.144 183.605 327.405 183.42C326.758 183.42 325.927 183.328 324.726 183.328H319.277V199.029H314.844ZM319.37 179.357H329.344C331.468 179.357 333.223 179.08 334.424 178.618C335.624 178.156 336.456 177.509 337.102 176.494C337.841 175.57 338.026 174.554 338.026 173.353C338.026 171.691 337.379 170.306 336.179 169.29C334.978 168.181 333.039 167.72 330.545 167.72H319.37V179.357Z" fill="#231F20"/>
<path d="M367.118 190.717L371.551 191.363C370.812 194.041 369.519 196.073 367.58 197.366C365.733 198.844 363.331 199.49 360.376 199.49C356.682 199.49 353.726 198.382 351.417 196.073C349.293 193.764 348.185 190.532 348.185 186.468C348.185 182.127 349.293 178.895 351.602 176.494C353.726 174.092 356.682 172.892 360.191 172.892C363.608 172.892 366.379 174.092 368.503 176.401C370.627 178.803 371.736 182.035 371.736 186.283C371.736 186.561 371.736 186.93 371.736 187.392H352.71C352.803 190.162 353.634 192.287 355.112 193.764C356.589 195.334 358.252 196.073 360.376 196.073C361.946 196.073 363.239 195.704 364.44 194.873C365.548 193.949 366.379 192.656 367.118 190.717ZM352.895 183.882H367.118C367.026 181.758 366.379 180.188 365.548 179.08C364.07 177.417 362.315 176.586 360.099 176.586C358.159 176.586 356.497 177.232 355.204 178.525C353.819 179.726 352.987 181.573 352.895 183.882Z" fill="#231F20"/>
<path d="M375.245 191.455L379.494 190.717C379.771 192.379 380.417 193.764 381.525 194.688C382.634 195.519 384.204 195.981 386.143 195.981C388.175 195.981 389.653 195.611 390.576 194.78C391.5 193.949 392.054 192.933 392.054 191.917C392.054 190.994 391.685 190.255 390.761 189.608C390.115 189.239 388.729 188.777 386.42 188.131C383.188 187.299 380.971 186.653 379.771 186.099C378.57 185.452 377.647 184.621 377 183.697C376.354 182.589 376.076 181.573 376.076 180.188C376.076 179.08 376.354 178.064 376.908 177.048C377.369 176.124 378.108 175.201 378.939 174.646C379.678 174.185 380.51 173.815 381.71 173.446C382.911 173.076 384.111 172.799 385.404 172.799C387.436 172.799 389.099 173.169 390.669 173.723C392.146 174.185 393.162 175.016 393.901 176.032C394.64 176.955 395.194 178.341 395.471 180.003L391.223 180.65C390.946 179.357 390.392 178.248 389.561 177.51C388.637 176.771 387.252 176.401 385.682 176.401C383.65 176.401 382.172 176.771 381.341 177.325C380.51 177.971 380.14 178.803 380.14 179.634C380.14 180.28 380.232 180.742 380.602 181.204C380.971 181.666 381.525 182.035 382.264 182.312C382.726 182.589 383.927 182.959 386.143 183.42C389.191 184.252 391.315 184.99 392.516 185.452C393.717 185.914 394.64 186.745 395.287 187.761C396.025 188.685 396.395 189.885 396.395 191.455C396.395 192.748 395.933 194.226 395.102 195.427C394.271 196.72 393.07 197.736 391.5 198.474C389.93 199.213 388.083 199.398 386.236 199.398C382.818 199.398 380.325 198.752 378.662 197.366C376.815 196.166 375.799 194.134 375.245 191.455Z" fill="#231F20"/>
<path d="M419.022 190.717L423.456 191.363C422.717 194.041 421.516 196.073 419.577 197.366C417.637 198.844 415.236 199.49 412.188 199.49C408.494 199.49 405.538 198.382 403.414 196.073C401.29 193.764 400.182 190.532 400.182 186.468C400.182 182.127 401.29 178.895 403.414 176.494C405.538 174.092 408.494 172.892 412.003 172.892C415.421 172.892 418.284 174.092 420.315 176.401C422.44 178.803 423.548 182.035 423.548 186.283C423.548 186.561 423.548 186.93 423.548 187.392H404.522C404.8 190.162 405.446 192.287 406.924 193.764C408.401 195.334 410.156 196.073 412.188 196.073C413.758 196.073 415.236 195.704 416.252 194.873C417.452 193.949 418.376 192.656 419.022 190.717ZM404.8 183.882H419.022C418.93 181.758 418.284 180.188 417.452 179.08C415.975 177.417 414.312 176.586 412.003 176.586C410.064 176.586 408.401 177.232 407.108 178.525C405.723 179.726 405.077 181.573 404.8 183.882Z" fill="#231F20"/>
<path d="M445.621 195.796C444.051 197.274 442.481 198.197 440.911 198.659C439.433 199.306 437.863 199.49 436.201 199.49C433.338 199.49 431.306 198.844 429.736 197.459C428.258 196.166 427.427 194.411 427.427 192.287C427.427 191.086 427.796 189.885 428.258 188.869C428.905 187.761 429.551 186.93 430.567 186.376C431.491 185.729 432.507 185.268 433.707 184.898C434.538 184.621 435.831 184.529 437.586 184.252C441.096 183.79 443.589 183.328 445.252 182.774C445.252 182.127 445.252 181.85 445.252 181.573C445.252 179.911 444.882 178.525 444.051 177.879C442.943 176.955 441.281 176.401 439.156 176.401C437.124 176.401 435.554 176.771 434.538 177.51C433.615 178.248 432.876 179.541 432.414 181.389L428.166 180.742C428.628 178.895 429.274 177.51 430.105 176.309C431.029 175.201 432.322 174.369 433.984 173.815C435.647 173.169 437.586 172.892 439.803 172.892C441.927 172.892 443.774 173.261 445.067 173.723C446.545 174.185 447.468 174.831 448.115 175.662C448.854 176.401 449.223 177.51 449.593 178.525C449.685 179.357 449.685 180.65 449.685 182.497V188.315C449.685 192.287 449.777 194.78 450.054 195.889C450.147 196.997 450.516 198.013 450.978 199.029H446.545C445.991 198.105 445.806 196.997 445.621 195.796ZM445.252 186.283C443.682 186.93 441.281 187.484 438.14 187.854C436.293 188.131 435.093 188.5 434.446 188.685C433.707 189.054 433.153 189.516 432.784 190.162C432.322 190.809 432.137 191.455 432.137 192.194C432.137 193.303 432.507 194.226 433.43 195.057C434.261 195.796 435.462 196.166 437.124 196.166C438.787 196.166 440.357 195.796 441.558 195.057C442.851 194.318 443.866 193.395 444.421 192.194C444.882 191.086 445.16 189.793 445.16 187.854V186.283H445.252Z" fill="#231F20"/>
<path d="M456.242 199.029V173.446H460.121V177.325C461.23 175.478 462.061 174.277 462.892 173.815C463.723 173.169 464.739 172.892 465.663 172.892C467.14 172.892 468.71 173.354 470.096 174.369L468.618 178.341C467.51 177.694 466.402 177.51 465.386 177.51C464.554 177.51 463.723 177.787 462.892 178.341C462.153 178.803 461.691 179.634 461.322 180.65C460.86 182.22 460.583 183.882 460.583 185.729V199.121H456.242V199.029Z" fill="#231F20"/>
<path d="M489.398 189.608L493.646 190.255C493.185 193.118 491.984 195.427 490.137 197.089C488.197 198.752 485.796 199.49 483.025 199.49C479.516 199.49 476.745 198.382 474.621 196.073C472.589 193.764 471.481 190.532 471.481 186.283C471.481 183.513 471.942 181.111 472.774 179.08C473.697 177.048 475.083 175.478 477.022 174.369C478.869 173.446 480.901 172.799 483.025 172.799C485.796 172.799 488.105 173.538 489.86 174.924C491.522 176.401 492.723 178.341 493.277 180.834L489.028 181.573C488.659 179.911 487.92 178.525 486.904 177.694C485.981 176.771 484.688 176.401 483.302 176.401C481.178 176.401 479.331 177.14 478.038 178.71C476.56 180.28 476.006 182.774 476.006 186.191C476.006 189.608 476.653 192.102 477.946 193.672C479.239 195.242 480.993 195.981 483.118 195.981C484.78 195.981 486.258 195.519 487.366 194.411C488.29 193.395 489.029 191.825 489.398 189.608Z" fill="#231F20"/>
<path d="M497.34 199.029V163.841H501.681V176.494C503.621 174.092 506.114 172.892 509.254 172.892C511.102 172.892 512.764 173.353 514.057 174.092C515.535 174.831 516.458 175.755 517.105 177.14C517.751 178.433 518.028 180.373 518.028 182.959V199.121H513.688V182.866C513.688 180.742 513.226 179.172 512.21 178.156C511.286 177.232 509.901 176.678 508.239 176.678C507.038 176.678 505.837 176.955 504.729 177.602C503.528 178.248 502.79 179.172 502.328 180.28C501.866 181.481 501.589 183.051 501.589 184.99V198.936H497.34V199.029Z" fill="#231F20"/>
<path d="M610.94 82.2898V60.0319H620.36C622.761 60.0319 624.424 60.2166 625.532 60.586C626.64 60.9554 627.472 61.6943 628.118 62.7102C628.765 63.7261 629.134 64.9268 629.134 66.2198C629.134 67.8822 628.672 69.2675 627.656 70.3758C626.64 71.4841 625.255 72.1306 623.315 72.4077C624.239 72.9618 625.07 73.6083 625.717 74.2548C626.363 74.9013 627.194 76.1019 628.303 77.8567L630.981 82.1975H625.624L622.392 77.3026C621.191 75.5478 620.452 74.5319 619.991 74.0701C619.529 73.6083 619.159 73.3312 618.605 73.1465C618.144 72.9618 617.405 72.8694 616.296 72.8694H615.373V82.1975H610.94V82.2898ZM615.465 69.4522H618.79C620.914 69.4522 622.3 69.3599 622.854 69.1752C623.408 68.9905 623.777 68.7134 624.147 68.2516C624.424 67.7898 624.608 67.2357 624.608 66.5892C624.608 65.8503 624.424 65.2038 624.054 64.7421C623.685 64.2803 623.131 64.0032 622.392 63.9108C622.022 63.8185 620.914 63.8185 619.159 63.8185H615.65V69.4522H615.465Z" fill="#231F20"/>
<path d="M619.621 52.9204C624.7 52.9204 629.318 54.9523 632.643 58.2771C635.968 61.6019 638 66.2198 638 71.2994C638 76.379 635.968 80.9968 632.643 84.3217C629.318 87.6465 624.7 89.6784 619.621 89.6784C614.541 89.6784 609.923 87.6465 606.598 84.3217C603.274 80.9968 601.242 76.379 601.242 71.2994C601.242 66.2198 603.274 61.6019 606.598 58.2771C609.923 54.9523 614.541 52.9204 619.621 52.9204ZM631.258 59.5701C628.302 56.6147 624.146 54.7675 619.528 54.7675C615.003 54.7675 610.847 56.6147 607.799 59.5701C604.844 62.5255 602.996 66.6816 602.996 71.2994C602.996 75.8249 604.844 79.9809 607.799 83.0287C610.754 85.9841 614.911 87.8312 619.528 87.8312C624.054 87.8312 628.21 85.9841 631.258 83.0287C634.213 80.0733 636.06 75.9172 636.06 71.2994C636.153 66.6816 634.305 62.5255 631.258 59.5701Z" fill="#231F20"/>
</svg>
