<svg width="95" height="96" viewBox="0 0 95 96" fill="none" xmlns="http://www.w3.org/2000/svg">
<path d="M80.2583 55.6856C84.4451 37.7892 73.3792 19.8761 55.5421 15.6755C37.7051 11.4749 19.8512 22.5774 15.6645 40.4737C11.4778 58.3701 22.5436 76.2832 40.3807 80.4838C58.2178 84.6844 76.0716 73.5819 80.2583 55.6856Z" fill="#DFEDE3"/>
<path d="M28.9346 29.4023L55.8527 83.6535" stroke="#231F20" stroke-width="0.652542" stroke-miterlimit="10" stroke-linecap="round" stroke-linejoin="round"/>
<path d="M54.3828 83.5759L75.0355 41.6299" stroke="#231F20" stroke-width="0.652542" stroke-miterlimit="10" stroke-linecap="round" stroke-linejoin="round"/>
<path d="M38.2166 48.0536C38.2166 48.0536 13.1549 43.4102 22.1276 17.0198C22.1276 17.0198 45.1008 19.8833 38.2166 48.0536Z" stroke="#231F20" stroke-width="0.652542" stroke-miterlimit="10" stroke-linecap="round" stroke-linejoin="round"/>
<path d="M67.1463 57.6499C67.1463 57.6499 57.6321 38.3795 79.4451 33.0396C79.4451 32.9622 88.0311 50.9169 67.1463 57.6499Z" stroke="#231F20" stroke-width="0.652542" stroke-miterlimit="10" stroke-linecap="round" stroke-linejoin="round"/>
<path d="M33.112 22.2825L30.25 32.0337" stroke="#231F20" stroke-width="0.652542" stroke-miterlimit="10" stroke-linecap="round" stroke-linejoin="round"/>
<path d="M20.1943 26.384L28.935 29.4029" stroke="#231F20" stroke-width="0.652542" stroke-miterlimit="10" stroke-linecap="round" stroke-linejoin="round"/>
<path d="M38.4488 30.7183L34.1172 39.8504" stroke="#231F20" stroke-width="0.652542" stroke-miterlimit="10" stroke-linecap="round" stroke-linejoin="round"/>
<path d="M21.8955 35.9802L32.9567 37.451" stroke="#231F20" stroke-width="0.652542" stroke-miterlimit="10" stroke-linecap="round" stroke-linejoin="round"/>
<path d="M72.0967 35.9031L73.4123 44.9578" stroke="#231F20" stroke-width="0.652542" stroke-miterlimit="10" stroke-linecap="round" stroke-linejoin="round"/>
<path d="M71.7871 48.2088L80.6825 45.2673" stroke="#231F20" stroke-width="0.652542" stroke-miterlimit="10" stroke-linecap="round" stroke-linejoin="round"/>
<path d="M66.4502 41.9397L69.0801 53.7031" stroke="#231F20" stroke-width="0.652542" stroke-miterlimit="10" stroke-linecap="round" stroke-linejoin="round"/>
<path d="M77.666 51.2266L69.0801 53.7036" stroke="#231F20" stroke-width="0.652542" stroke-miterlimit="10" stroke-linecap="round" stroke-linejoin="round"/>
<path fill-rule="evenodd" clip-rule="evenodd" d="M47.5 0.721333C21.6646 0.721333 0.720957 21.6759 0.720957 47.5248C0.720957 73.3736 21.6646 94.3282 47.5 94.3282C73.3354 94.3282 94.2791 73.3736 94.2791 47.5248C94.2791 21.6759 73.3354 0.721333 47.5 0.721333ZM0 47.5248C0 21.2776 21.2665 0 47.5 0C73.7335 0 95 21.2776 95 47.5248C95 73.772 73.7335 95.0495 47.5 95.0495C21.2665 95.0495 0 73.772 0 47.5248Z" fill="#231F20"/>
</svg>
