<svg width="95" height="96" viewBox="0 0 95 96" fill="none" xmlns="http://www.w3.org/2000/svg">
<path d="M80.1837 55.6856C84.3608 37.7892 73.3203 19.8761 55.5241 15.6755C37.7278 11.4749 19.9148 22.5774 15.7377 40.4737C11.5605 58.3701 22.601 76.2832 40.3973 80.4838C58.1936 84.6844 76.0065 73.5819 80.1837 55.6856Z" fill="#DFEDE3"/>
<path d="M76.0488 25.7446C77.1154 20.5891 73.8307 15.5389 68.7122 14.4646C63.5937 13.3903 58.5798 16.6988 57.5132 21.8543C56.4467 27.0098 59.7314 32.0601 64.8498 33.1344C69.9683 34.2087 74.9823 30.9002 76.0488 25.7446Z" stroke="#231F20" stroke-width="0.652542" stroke-miterlimit="10" stroke-linecap="round" stroke-linejoin="round"/>
<path d="M40.1004 42.9318C45.4913 41.3647 48.6002 35.6924 47.0443 30.2625C45.4884 24.8326 39.857 21.7013 34.4661 23.2684C29.0752 24.8355 25.9664 30.5078 27.5222 35.9376C29.0781 41.3675 34.7096 44.4989 40.1004 42.9318Z" stroke="#231F20" stroke-width="0.652542" stroke-miterlimit="10" stroke-linecap="round" stroke-linejoin="round"/>
<path d="M43.5183 12.704C42.5948 15.0297 43.6723 17.6654 45.9812 18.5957C48.2901 19.5259 50.9069 18.4406 51.8305 16.115C52.754 13.7893 51.6765 11.1536 49.3676 10.2233C47.0587 9.29309 44.4419 10.3784 43.5183 12.704Z" stroke="#231F20" stroke-width="0.652542" stroke-miterlimit="10" stroke-linecap="round" stroke-linejoin="round"/>
<path d="M44.4423 17.5876L41.1328 23.6343" stroke="#231F20" stroke-width="0.652542" stroke-miterlimit="10" stroke-linecap="round" stroke-linejoin="round"/>
<path d="M58.911 17.9755L51.9072 16.115" stroke="#231F20" stroke-width="0.652542" stroke-miterlimit="10" stroke-linecap="round" stroke-linejoin="round"/>
<path d="M55.294 71.4649C53.5238 75.8061 55.6018 80.845 59.9888 82.5504C64.2987 84.3334 69.3014 82.2404 70.9947 77.8216C72.7648 73.4805 70.6868 68.4416 66.2998 66.7361C61.9898 64.9531 57.0641 67.1237 55.294 71.4649Z" stroke="#231F20" stroke-width="0.652542" stroke-miterlimit="10" stroke-linecap="round" stroke-linejoin="round"/>
<path d="M47.4675 87.4676C49.8215 86.4789 50.934 83.7552 49.9524 81.3842C48.9707 79.0132 46.2667 77.8926 43.9127 78.8814C41.5587 79.8701 40.4462 82.5937 41.4278 84.9648C42.4094 87.3358 45.1135 88.4564 47.4675 87.4676Z" stroke="#231F20" stroke-width="0.652542" stroke-miterlimit="10" stroke-linecap="round" stroke-linejoin="round"/>
<path d="M39.6423 71.6389C44.7106 69.4215 47.0346 63.4856 44.8331 58.3806C42.6316 53.2756 36.7383 50.9348 31.6701 53.1523C26.6018 55.3697 24.2778 61.3056 26.4793 66.4106C28.6808 71.5155 34.5741 73.8563 39.6423 71.6389Z" stroke="#231F20" stroke-width="0.652542" stroke-miterlimit="10" stroke-linecap="round" stroke-linejoin="round"/>
<path d="M17.0429 46.8906C16.0424 49.4488 17.2738 52.3946 19.8136 53.4024C22.3534 54.4102 25.2781 53.1699 26.2786 50.6116C27.2791 48.0534 26.0477 45.1076 23.5079 44.0999C20.9681 43.0921 18.1204 44.3324 17.0429 46.8906Z" stroke="#231F20" stroke-width="0.652542" stroke-miterlimit="10" stroke-linecap="round" stroke-linejoin="round"/>
<path d="M43.3645 79.1397L40.209 71.3101" stroke="#231F20" stroke-width="0.652542" stroke-miterlimit="10" stroke-linecap="round" stroke-linejoin="round"/>
<path d="M56.68 69.1394L45.3662 64.5657" stroke="#231F20" stroke-width="0.652542" stroke-miterlimit="10" stroke-linecap="round" stroke-linejoin="round"/>
<path d="M25.124 52.3948L27.9717 55.9608" stroke="#231F20" stroke-width="0.652542" stroke-miterlimit="10" stroke-linecap="round" stroke-linejoin="round"/>
<path fill-rule="evenodd" clip-rule="evenodd" d="M47.4997 0.721333C21.7235 0.721333 0.827706 21.6759 0.827706 47.5248C0.827706 73.3736 21.7235 94.3282 47.4997 94.3282C73.2759 94.3282 94.1717 73.3736 94.1717 47.5248C94.1717 21.6759 73.2759 0.721333 47.4997 0.721333ZM0.108398 47.5248C0.108398 21.2776 21.3262 0 47.4997 0C73.6732 0 94.891 21.2776 94.891 47.5248C94.891 73.772 73.6732 95.0495 47.4997 95.0495C21.3262 95.0495 0.108398 73.772 0.108398 47.5248Z" fill="#231F20"/>
</svg>
