<svg width="120" height="122" viewBox="0 0 120 122" fill="none" xmlns="http://www.w3.org/2000/svg">
<circle cx="60" cy="61" r="51" fill="#DFEDE3"/>
<path d="M62.9976 119.587C60.4121 113.876 57.6674 108.164 55.4399 102.294C54.883 100.837 54.3659 99.3401 53.8886 97.8826C53.6499 97.1342 53.4112 96.4251 53.2123 95.6767C53.1328 95.401 53.093 95.0858 52.8941 94.8889C52.6555 94.6131 52.6555 94.2586 52.5759 93.9435C51.8201 90.9103 51.0644 87.8378 51.5417 84.6865C51.7406 83.2684 52.3372 81.9685 52.6157 80.5898C52.7748 79.8807 52.7748 79.1323 52.8544 78.3838C52.9339 77.5566 52.9737 76.7688 53.0135 75.9416C53.093 74.3265 53.1328 72.7115 53.2521 71.0964C53.2919 70.3086 53.3715 69.5208 53.5703 68.7723C53.7692 68.0633 54.0079 67.3149 54.1272 66.6058C54.2466 65.818 54.167 64.9908 54.2068 64.2029C54.2466 63.4151 54.3659 62.6667 54.525 61.8788C54.8035 60.4214 55.0819 58.9639 55.4797 57.5458C55.6786 56.8367 55.8774 56.1277 56.1559 55.458C56.2752 55.1035 56.3945 54.749 56.5536 54.3945C56.673 54.0793 56.8321 53.843 57.1901 53.7642C57.6674 53.6854 58.3436 53.843 58.7016 54.1581C59.1392 54.552 59.4972 55.1823 59.8154 55.6944C60.5712 56.9943 60.8894 58.3336 61.0087 59.8305C61.1281 61.4061 61.0485 63.0212 60.8894 64.5968C60.8098 65.3847 60.6905 66.2119 60.5712 66.9997C60.4518 67.7482 60.3325 68.4966 60.4121 69.245C60.4916 69.9147 60.6507 70.6237 60.8496 71.2934C61.0087 71.8843 61.2474 72.4751 61.5656 73.0266C62.1225 73.972 62.9578 74.8386 64.1511 74.9174C64.9467 74.9568 65.8616 74.681 66.498 74.169C66.9356 73.8144 67.1742 73.3811 67.4129 72.869C67.6913 72.2782 68.0891 71.7267 68.5267 71.2146C69.362 70.2692 70.3564 69.442 71.152 68.4572C71.5895 67.9451 71.9475 67.3149 72.3851 66.8028C72.8226 66.2907 73.2999 65.818 73.8568 65.4241C74.1353 65.2271 74.4535 65.0302 74.7717 64.8726C75.0104 64.7544 75.1297 64.5574 75.3286 64.3211C75.7264 63.7696 76.0446 63.1787 76.2832 62.5485C76.8004 61.2486 76.8401 59.9487 76.681 58.57C76.6015 57.8215 76.4821 57.0731 76.323 56.364C76.1639 55.655 75.8457 55.1035 75.4082 54.5126C75.0502 53.9612 74.6126 53.4885 74.0955 53.0552C73.5784 52.6219 72.9817 52.3067 72.4248 51.9128C71.3906 51.1644 70.436 50.2584 69.6802 49.1948C69.2426 48.6039 69.004 48.0131 68.8846 47.304C68.8051 46.7131 68.6858 45.8465 69.2427 45.4132C69.6802 45.0587 70.3962 45.2556 70.8735 45.4132C71.51 45.6102 72.0668 45.9647 72.584 46.398C73.0613 46.7919 73.4988 47.2646 73.9762 47.7373C74.4535 48.2494 74.9706 48.6039 75.607 48.9584C76.2037 49.2736 76.8799 49.5887 77.397 50.0614C77.8744 50.4947 78.1926 51.0856 78.5108 51.6371C78.829 52.1885 79.187 52.7794 79.7041 53.0945C79.903 53.2521 80.1814 53.3309 80.4201 53.4491C80.8179 53.6066 81.1361 53.8824 81.4941 54.1187C82.051 54.552 82.6874 54.8672 83.1647 55.3399C83.6421 55.8126 84.0399 56.3246 84.3183 56.9549C84.9547 58.2942 84.5967 59.7911 84.1194 61.091C83.6023 62.5485 83.125 64.006 82.6476 65.5028C82.1703 67.0391 81.5339 68.4966 81.0168 70.0329C80.4997 71.5297 80.0223 73.066 79.4654 74.5629C79.2268 75.2325 78.9881 76.0204 78.6301 76.6112C78.2721 77.2021 77.755 77.6748 77.1186 77.9505C77.2777 77.9111 77.397 77.8718 77.5561 77.8718C77.1186 75.8234 78.5903 73.9326 79.6245 72.3176C80.7781 70.5449 82.2896 69.0875 83.4034 67.3148C84.5569 65.5028 85.2729 63.3757 85.9094 61.3274C86.2276 60.3032 86.506 59.2396 86.7845 58.2154C86.9038 57.7033 87.1027 57.1519 87.1823 56.6398C87.2618 56.0883 87.1425 55.5368 86.9436 55.0247C86.6254 54.0006 85.9492 53.0946 85.3525 52.2673C84.7161 51.3613 84.0001 50.5341 83.3239 49.6675C82.6874 48.8403 82.1703 47.8949 81.6532 46.9889C81.4145 46.5556 81.1361 46.0829 80.8179 45.689C80.4997 45.2557 80.1417 44.9011 79.8632 44.4284C79.6246 43.9951 79.4257 43.483 79.2666 43.0103C79.1074 42.5377 78.8688 42.065 78.6699 41.5923C78.2721 40.6469 77.9141 39.6621 77.4368 38.7561C76.9992 37.9682 76.4424 37.2592 75.4479 37.2198C74.8513 37.1804 74.2546 37.4168 73.8568 37.8107C73.2204 38.4409 72.9817 39.4257 73.0613 40.2923C73.2204 41.4741 73.6182 42.6558 74.0159 43.7194C74.4535 44.8617 74.9706 45.9647 75.5275 47.0677C76.0048 48.0131 76.9595 48.6039 77.5164 49.5099C77.5561 49.5493 77.9539 49.4311 77.9539 49.3918C78.1926 48.9584 78.0732 48.4857 77.9539 48.0131C77.7948 47.501 77.6357 46.9495 77.4368 46.4374C77.039 45.3738 76.5617 44.3497 75.965 43.3649C75.4082 42.3801 74.7717 41.4347 74.0159 40.5287C73.7375 40.1742 73.4193 39.859 73.0613 39.5439C72.8226 39.3075 72.5839 39.3075 72.2657 39.3863C71.5895 39.5439 70.794 39.859 70.5553 40.5287C70.2769 41.3559 70.1973 42.4195 70.3166 43.2467C70.3564 43.6406 70.4758 44.0345 70.6349 44.389C70.7144 44.586 70.8337 44.783 70.9929 44.9405C71.152 45.1375 71.3906 45.295 71.51 45.5314C71.7884 46.0041 71.7486 46.6344 71.8282 47.1464C71.9077 47.8161 71.9475 48.4464 72.0271 49.116C72.1464 50.2978 72.2657 51.5189 72.5044 52.7006C72.7431 53.9612 73.2602 55.1823 73.4988 56.4428C73.7375 57.6639 73.7773 58.9245 73.8966 60.185C73.9762 61.5243 73.7773 62.8242 73.6977 64.1241C73.6182 65.3059 73.6977 66.527 74.0557 67.6694C74.4535 68.9299 74.8513 70.2298 75.2093 71.4903C75.5275 72.7115 75.8059 73.972 76.0048 75.2325C76.0844 75.8628 76.1639 76.493 76.2037 77.1233C76.2435 77.4384 76.2435 77.7536 76.2435 78.0687C76.2435 78.3838 76.323 78.8565 76.2435 79.1717C76.1639 79.4868 75.8855 79.8413 75.7264 80.1565C75.5673 80.4322 75.4479 80.7079 75.2888 80.9837C74.9308 81.6533 74.6126 82.2836 74.2546 82.9532C73.5784 84.2925 72.9022 85.6319 72.2657 86.9712C71.0724 89.4922 70.3166 92.3284 70.2371 95.1252C70.2371 95.1252 70.6746 95.0858 70.6746 95.007C70.7542 92.6042 71.3509 90.2407 72.1862 87.9954C72.6237 86.8136 73.2602 85.6712 73.8171 84.5289C74.3739 83.4259 74.9308 82.3624 75.4877 81.2594C75.7661 80.7079 76.0844 80.1171 76.3628 79.5656C76.4821 79.3292 76.6412 79.1323 76.681 78.8565C76.7208 78.502 76.681 78.1081 76.681 77.7536C76.6412 76.5324 76.4821 75.3507 76.2832 74.1296C76.0446 72.869 75.7661 71.6479 75.4082 70.3874C75.0899 69.245 74.6126 68.0633 74.3739 66.8815C74.2546 66.3301 74.175 65.7392 74.1353 65.1877C74.0955 64.5575 74.175 63.9272 74.2546 63.2969C74.3739 62.0758 74.4933 60.8941 74.3739 59.6729C74.2944 58.4124 74.2546 57.1519 73.9364 55.9307C73.6579 54.7884 73.2204 53.6854 72.9817 52.5037C72.7431 51.3219 72.6237 50.1402 72.5044 48.9191C72.4646 48.3676 72.3851 47.8161 72.3453 47.2646C72.3055 46.7131 72.2657 46.1223 72.1066 45.6102C71.9475 45.1769 71.5497 44.9011 71.2713 44.5072C71.0326 44.1133 70.9133 43.7194 70.794 43.2861C70.6349 42.4589 70.7144 41.5922 70.8735 40.7256C70.9928 40.1742 71.2315 39.7408 71.7486 39.5045C72.0668 39.3469 72.2657 39.3075 72.5442 39.5833C72.7033 39.7409 72.8624 39.859 73.0215 40.0166C73.8568 40.8832 74.533 41.9468 75.1695 42.971C75.8059 43.9951 76.323 45.0981 76.7606 46.201C76.9595 46.7131 77.1186 47.2646 77.3175 47.7767C77.4766 48.2888 77.6755 48.8797 77.397 49.3918C77.5561 49.3524 77.7152 49.313 77.8346 49.2736C77.3572 48.5251 76.6412 47.9737 76.1241 47.2646C75.8457 46.8707 75.6468 46.4374 75.4479 46.0041C75.2093 45.5314 74.9706 45.0193 74.7717 44.5072C74.3739 43.5618 74.0159 42.577 73.7375 41.5923C73.4988 40.6863 73.2602 39.7803 73.4988 38.8742C73.6182 38.4803 73.7773 38.0864 74.0557 37.7319C74.175 37.6137 74.2944 37.4561 74.4535 37.3774C74.6922 37.1804 74.891 37.1804 75.1695 37.2198C76.2037 37.3774 76.6412 38.244 77.0788 39.1106C77.5163 39.9772 77.8346 40.9226 78.2323 41.8286C78.4312 42.2619 78.6301 42.6952 78.7892 43.1285C78.9483 43.6012 79.1472 44.1133 79.4257 44.5466C79.6643 44.9405 80.0223 45.295 80.3008 45.689C80.619 46.1223 80.8577 46.5556 81.1361 46.9889C81.6134 47.8555 82.0908 48.7615 82.6874 49.5493C83.3239 50.3765 84.0001 51.2038 84.6365 52.031C85.2332 52.8188 85.8696 53.6854 86.2674 54.6308C86.4663 55.0641 86.5856 55.5368 86.6254 56.0095C86.6652 56.561 86.506 57.0731 86.3867 57.6246C86.1083 58.6093 85.8696 59.6335 85.5912 60.6183C85.0343 62.5879 84.3581 64.5575 83.4034 66.4089C82.3692 68.4178 80.7383 70.0329 79.4257 71.8843C78.7892 72.7903 78.1528 73.775 77.6357 74.7598C77.1186 75.7446 76.8004 76.8082 77.039 77.9111C77.039 77.9505 77.4368 77.8324 77.4766 77.8324C78.0335 77.596 78.5108 77.2021 78.8688 76.7294C79.3063 76.1779 79.5052 75.4295 79.7439 74.7598C80.3008 73.263 80.8179 71.6873 81.335 70.1904C81.8521 68.6542 82.5283 67.1573 83.0056 65.5816C83.483 64.0848 83.9603 62.5485 84.5172 61.091C85.0343 59.7123 85.3923 58.176 84.7558 56.7973C84.4774 56.2065 84.0398 55.655 83.6023 55.1823C83.125 54.7096 82.4885 54.3551 81.9316 53.9612C81.6532 53.7642 81.4145 53.5279 81.1361 53.4097C80.7781 53.2521 80.4201 53.1339 80.1019 52.8976C79.545 52.5037 79.2268 51.9128 78.8688 51.3613C78.5506 50.8098 78.1926 50.219 77.7152 49.8251C77.1584 49.3524 76.4821 49.0766 75.8457 48.7221C74.6524 48.0525 73.8966 46.9495 72.8226 46.1223C72.0271 45.492 70.9531 44.9799 69.9189 45.0981C69.6006 45.1375 69.2029 45.2163 68.9244 45.4132C68.3675 45.7283 68.3675 46.3586 68.4073 46.9495C68.4471 47.6979 68.646 48.3676 69.0438 48.9978C69.4018 49.5493 69.7995 50.0614 70.2769 50.5341C70.7542 51.0068 71.2713 51.4795 71.7884 51.8734C72.3453 52.2673 72.9419 52.6219 73.4591 53.0158C74.4933 53.8036 75.4479 55.0247 75.8059 56.2853C76.0048 57.0337 76.1241 57.7821 76.2037 58.5306C76.2833 59.2002 76.3628 59.9093 76.323 60.5789C76.2037 61.9576 75.6866 63.2969 74.891 64.4393C74.4933 64.9908 73.7773 65.2665 73.2204 65.6998C72.7033 66.1331 72.226 66.6058 71.7884 67.1179C71.3509 67.6694 70.9929 68.2603 70.5155 68.8117C70.078 69.3238 69.6404 69.7571 69.1631 70.2298C68.288 71.1358 67.4129 72.0418 66.8958 73.1842C66.3389 74.4447 64.9865 75.1931 63.634 74.6023C62.4805 74.0902 61.8043 72.7509 61.4463 71.6479C60.9689 70.2298 60.7303 68.7723 60.9689 67.3148C61.2474 65.7392 61.4463 64.1241 61.5258 62.5485C61.6054 60.9728 61.6054 59.2396 61.2076 57.7033C61.0087 57.0337 60.7303 56.4034 60.4121 55.8126C60.0938 55.2611 59.7359 54.6308 59.2983 54.1975C58.7016 53.6066 57.6674 53.646 56.9117 53.843C56.4741 53.9612 56.2752 54.1581 56.1161 54.552C55.8377 55.2611 55.5592 55.9701 55.3603 56.7186C54.9228 58.1367 54.5648 59.5941 54.2863 61.0516C53.9681 62.6273 53.7692 64.1635 53.7692 65.7786C53.7692 66.5664 53.6499 67.3148 53.4112 68.0633C53.2123 68.8511 52.9737 69.5995 52.9339 70.4268C52.8146 72.0812 52.735 73.7356 52.6555 75.3507C52.6157 76.1779 52.5759 77.0051 52.5361 77.8718C52.4964 78.6202 52.4566 79.408 52.377 80.1565C52.1781 81.5745 51.5417 82.9139 51.303 84.2926C51.0246 85.8288 51.0246 87.4439 51.2235 89.0195C51.4224 90.5952 51.7804 92.1314 52.1781 93.6677C52.2577 94.0222 52.2975 94.4556 52.4566 94.8101C52.4964 94.8889 52.5759 94.9676 52.6157 95.0464C52.735 95.204 52.735 95.3222 52.8146 95.5191C53.0135 96.2676 53.2521 97.016 53.4908 97.725C55.4399 103.831 58.105 109.7 60.7701 115.491C61.4065 116.909 62.0429 118.287 62.7191 119.705C62.56 119.745 62.9976 119.587 62.9976 119.587Z" fill="#231F20" stroke="#231F20"/>
<path d="M62.2015 74.4842C62.2811 73.657 62.4402 72.8691 62.7584 72.0813C62.9971 71.4117 63.4346 70.8602 63.5937 70.1511C63.9915 68.5361 64.6279 66.9998 65.3439 65.5029C66.0201 64.0454 66.7759 62.6274 67.3328 61.1305C67.6112 60.4214 67.8499 59.7518 68.009 59.0033C68.0886 58.6488 68.1681 58.2549 68.2477 57.861C68.3272 57.5853 68.4864 57.4277 68.5261 57.152C68.6057 56.3641 68.5659 55.4975 68.6057 54.7097C68.6455 53.8825 68.6455 53.0552 68.6057 52.228C68.5659 51.4402 68.4466 50.6524 68.2477 49.9039C68.009 49.0373 67.6113 48.2495 67.2135 47.4223C66.4577 45.886 65.6622 44.3497 64.9064 42.7741C64.1904 41.2378 63.2357 39.8197 62.3208 38.4016C61.4457 37.0229 60.0138 36.0382 59.4171 34.5019C58.8204 32.8474 59.4171 31.1536 59.974 29.578C60.4911 28.0811 61.1275 26.6236 61.8435 25.2449C62.2015 24.5359 62.5993 23.8662 62.9971 23.1571C63.3948 22.4875 63.9915 21.8572 64.1108 21.0694C64.1904 20.4391 64.1506 19.4544 64.9064 19.218C65.9804 18.9029 66.6566 19.9664 67.0146 20.7937C67.5715 22.133 67.5317 23.6299 67.2135 25.0086C67.0146 25.8358 66.6168 26.5448 66.3384 27.3326C66.0599 28.0417 65.9406 28.8295 65.7417 29.578C65.3439 31.1536 64.7075 32.5717 63.9915 34.0292C63.4346 35.2503 62.7584 36.4321 61.6844 37.2593C61.4855 37.4169 61.2866 37.6138 61.048 37.6532C60.9684 37.6926 60.8491 37.6532 60.7695 37.6926C60.3718 37.8108 60.0535 38.1259 59.6558 38.2835C58.9 38.5592 58.1044 38.638 57.3487 38.5986C56.4736 38.5592 55.8769 37.9289 55.2405 37.3775C54.604 36.826 54.1267 36.0775 53.6892 35.3685C52.8936 33.9898 52.3367 32.3747 52.0583 30.8385C51.7401 29.1446 51.7401 27.2933 51.8992 25.5994C52.0583 23.8662 53.2118 22.4481 54.0074 20.9512C54.7234 19.5725 55.3598 18.1544 56.1951 16.8545C56.394 16.5394 56.5929 16.2243 56.8316 15.9485C57.0702 15.6334 57.3885 15.3577 57.5078 15.0031C57.7465 14.2941 58.2238 13.7032 58.7011 13.1517C59.6955 11.97 60.6502 10.7882 61.764 9.76406C62.9573 8.7005 63.9915 7.59755 64.7871 6.17945C65.1053 5.58858 65.4235 4.91892 65.6622 4.24927C65.861 3.619 65.7417 3.06752 65.3439 2.51604C64.787 1.76761 63.8722 0.743438 62.838 1.05857C62.2413 1.25553 61.764 1.76761 61.406 2.20092C60.8889 2.79179 60.4513 3.30388 59.8149 3.73718C58.4624 4.60379 57.11 5.4704 55.9167 6.49458C55.2803 7.04606 54.604 7.55815 53.9278 8.07024C53.6096 8.30659 53.2516 8.50354 52.9732 8.77928C52.6549 9.05502 52.4163 9.40955 52.1378 9.68529C51.581 10.2762 50.9843 10.8276 50.3876 11.4185C49.9103 11.9306 49.5921 12.7184 49.433 13.4275C48.9954 15.0819 48.9556 16.8545 48.6374 18.509C48.2794 20.2816 47.6828 22.0148 47.1259 23.7086C46.8474 24.5359 46.569 25.3237 46.2508 26.1115C45.9723 26.8206 45.6143 27.4902 45.3757 28.1993C44.9779 29.4204 44.9381 30.7991 45.5348 31.9808C45.853 32.6111 46.3303 33.1232 46.8077 33.6353C47.4043 34.3049 47.9612 35.014 48.4783 35.7624C49.4727 37.1411 50.4274 38.5592 51.3821 39.9379C51.6207 40.2924 51.9389 41.0409 52.4561 41.0802C52.9732 41.0802 53.3312 40.7257 53.53 40.3318C53.8085 39.8197 53.888 39.2682 53.9278 38.7168C54.0074 37.8502 54.0869 36.9835 54.2063 36.1563C54.6836 32.6899 55.5985 29.2628 55.7576 25.7176C55.8371 24.0238 56.5929 22.4481 57.1896 20.9118C57.3089 20.5967 57.468 20.2816 57.5476 19.9271C57.6271 19.5331 57.6669 19.1392 57.7464 18.7453C57.9453 18.0363 58.3033 17.1303 58.7807 16.5394C59.7353 15.397 61.764 15.8697 63.0368 16.0667C64.7871 16.3424 66.4975 16.5 68.2477 16.6576C69.1228 16.7363 69.9581 16.8939 70.8332 17.0121C71.7481 17.1303 72.5834 17.2878 73.4585 17.603C75.0894 18.1938 76.7203 18.5878 78.3909 19.1392C79.4251 19.4544 79.2263 20.4785 78.5898 21.1088C78.3512 21.3451 78.0727 21.5815 77.7943 21.7391C77.4363 21.9754 77.0783 22.0936 76.7203 22.2512C76.4021 22.3693 76.0838 22.5663 75.7258 22.6057C75.3281 22.6451 74.9303 22.6451 74.5325 22.6845C73.6574 22.7239 72.7823 22.3299 71.9868 22.0542C70.515 21.5421 69.0035 20.9906 67.4521 20.7937C66.0599 20.5967 64.4291 20.6361 63.1562 21.3058C62.5595 21.6209 62.122 22.133 61.6446 22.6057C61.1673 23.1178 60.69 23.6299 60.2922 24.2207C60.0535 24.5752 59.4967 25.4419 59.8149 25.8752C60.1331 26.3085 60.8491 26.1903 61.2866 26.1903C62.122 26.1903 62.9175 26.0721 63.7131 25.8752C64.5882 25.6782 65.4633 25.4419 66.3781 25.4419C68.1681 25.4419 69.8388 25.9933 71.2708 27.0175C72.5436 27.9235 73.4983 29.1447 74.4132 30.3658C74.8507 30.9567 75.2485 31.5869 75.3281 32.296C75.3678 32.7293 75.2883 32.9262 74.8507 33.1232C74.4927 33.2808 74.095 33.3989 73.6972 33.3989C72.9414 33.4383 72.1061 33.2807 71.4299 33.005C70.6741 32.6899 70.1172 31.9414 69.5603 31.3506C69.1228 30.8779 68.725 30.3658 68.2079 30.0113C67.6908 29.6174 67.0544 29.3416 66.4179 29.184C65.6622 28.9871 64.9064 28.9477 64.1108 29.0265C63.4744 29.1053 63.2357 29.4204 63.1164 30.0506C62.7982 31.5869 62.48 33.1626 61.9629 34.6595C61.0082 37.4956 59.1387 40.2924 56.5929 41.9469C55.2802 42.8135 53.6096 43.3256 52.0583 42.7741C50.7854 42.3408 49.9103 41.2378 49.2341 40.1349C48.5181 38.9925 47.9214 37.7714 47.3645 36.5502C47.0861 35.9594 46.8077 35.3291 46.4497 34.7776C46.1712 34.3443 45.7734 33.7535 45.2563 33.5565C44.9381 33.4383 44.6995 33.4777 44.6597 33.8322C44.5801 34.4231 44.9381 34.9352 45.1768 35.4473C45.9326 37.0229 46.6088 38.6774 47.3248 40.2924C47.4839 40.6863 47.6828 41.0802 47.8419 41.4742C48.0408 41.9075 48.3988 42.4196 48.4783 42.8923C48.5976 43.6013 48.9556 44.271 49.2341 44.9406C49.8705 46.5163 50.3876 48.1313 50.6661 49.7858C51.1832 53.0159 50.3876 56.2853 49.3534 59.3579C48.359 62.3122 47.0065 65.1484 45.5746 67.9058C44.1028 70.7026 42.5913 73.4206 41.1593 76.2174C39.5682 79.3687 38.0566 82.5988 36.5053 85.7501C34.954 88.9014 33.4424 92.0134 32.0105 95.2041C31.9309 95.3223 32.3287 95.5586 32.4082 95.4798C33.9993 91.9346 35.7098 88.4287 37.4202 84.9229C39.0908 81.5352 40.6422 78.1476 42.3924 74.7993C45.495 68.8512 49.075 63.0213 50.6263 56.4823C51.0241 54.7885 51.3423 53.0552 51.2229 51.2826C51.1036 49.5494 50.6661 47.8556 50.1092 46.2011C49.791 45.3739 49.4727 44.5073 49.1148 43.7195C48.9556 43.4043 48.9556 43.0498 48.8363 42.7347C48.6374 42.262 48.359 41.7893 48.1601 41.3166C47.3645 39.5834 46.6485 37.8108 45.853 36.0381C45.5746 35.4473 45.0177 34.6988 45.0972 33.9898C45.1768 33.4777 45.6939 34.0686 45.853 34.2655C46.1314 34.6201 46.3701 35.014 46.569 35.4079C47.2452 36.6684 47.7623 38.0077 48.4783 39.2682C49.7114 41.5136 51.5809 43.6013 54.4051 43.168C56.036 42.9317 57.3884 41.9469 58.542 40.8439C59.6955 39.7409 60.69 38.4016 61.406 36.9835C62.1617 35.5261 62.5993 33.9898 62.9971 32.4141C63.196 31.5869 63.3153 30.7203 63.5142 29.9325C63.7926 28.9871 65.0257 29.1447 65.7815 29.2234C66.7759 29.3416 67.7306 29.6961 68.4466 30.4052C69.0035 30.9173 69.4808 31.5475 69.9979 32.099C70.4752 32.5717 70.9923 33.0444 71.589 33.2414C72.2652 33.4777 72.9812 33.6353 73.6972 33.6353C74.0154 33.6353 74.3336 33.5959 74.6518 33.5171C74.8905 33.4383 75.527 33.2414 75.6463 33.005C75.7656 32.808 75.6463 32.3748 75.6065 32.1778C75.527 31.8627 75.4076 31.5081 75.2883 31.2324C74.9701 30.6415 74.5325 30.09 74.095 29.578C73.6176 28.9871 73.1801 28.3962 72.663 27.8841C71.589 26.8599 70.2366 25.954 68.8444 25.4813C68.009 25.2449 67.1737 25.0873 66.2986 25.0479C65.4235 25.0086 64.6279 25.2055 63.7528 25.4025C62.7584 25.6388 61.764 25.7964 60.7695 25.7964C60.6502 25.7964 60.2524 25.8358 60.1331 25.757C59.9342 25.5994 60.1729 25.2055 60.2524 25.0479C60.4115 24.654 60.6502 24.2995 60.8889 23.9844C61.3264 23.3935 61.8833 22.842 62.4004 22.3299C63.0368 21.7391 63.6335 21.3058 64.5086 21.1088C66.2588 20.6755 68.0886 20.9906 69.7592 21.5027C70.6343 21.7785 71.5094 22.0936 72.3845 22.3693C73.1403 22.6057 73.8961 22.9208 74.6916 22.9208C75.4474 22.9208 76.1236 22.842 76.8396 22.5663C77.1976 22.4087 77.5954 22.2905 77.9136 22.0936C78.192 21.936 78.4705 21.7391 78.7091 21.5421C79.1467 21.1482 79.5842 20.5573 79.4251 19.8877C79.3058 19.3756 78.8683 19.0604 78.3909 18.8635C77.5954 18.5484 76.7203 18.3908 75.9247 18.1544C74.9701 17.8787 74.0154 17.5636 73.0607 17.2091C72.2652 16.9333 71.4299 16.7757 70.5946 16.6576C69.7195 16.5394 68.8443 16.3818 67.9692 16.303C66.0202 16.1061 64.0711 15.8697 62.1617 15.594C60.9684 15.4364 59.1387 15.1607 58.3431 16.3424C57.9453 16.9727 57.5476 17.7605 57.3487 18.4696C57.2293 18.8635 57.2293 19.2574 57.1498 19.6513C57.0305 20.124 56.7918 20.5967 56.6327 21.0694C56.3145 21.8572 55.9565 22.6451 55.7178 23.4723C55.4394 24.3783 55.3996 25.2449 55.32 26.1509C55.1211 28.0417 54.8427 29.8931 54.4847 31.7445C54.1665 33.5565 53.8085 35.4079 53.6096 37.2199C53.4903 38.1259 53.5698 40.8045 52.0583 40.6469C52.1776 40.7257 52.2572 40.7651 52.3765 40.8439C50.5467 38.2441 48.8363 35.5261 46.7281 33.1232C45.7337 31.9808 45.2961 30.6809 45.5348 29.184C45.6541 28.475 45.9326 27.8447 46.2508 27.1751C46.6088 26.4266 46.8872 25.6388 47.1657 24.851C47.6828 23.3541 48.1203 21.8572 48.5579 20.321C49.0352 18.6665 49.2341 17.0515 49.4727 15.3577C49.5921 14.5304 49.7114 13.6244 50.0296 12.8366C50.149 12.5215 50.2683 12.2063 50.4672 11.9306C50.6661 11.5761 50.9843 11.3003 51.3025 11.0246C51.8196 10.5125 52.3765 9.96102 52.8538 9.40954C53.1323 9.09441 53.3709 8.81867 53.6892 8.58232C54.0074 8.34597 54.3256 8.10963 54.6438 7.87328C55.9565 6.8885 57.1896 5.82492 58.542 4.87953C59.1784 4.44622 59.8547 4.05232 60.4911 3.61901C60.9684 3.26449 61.3662 2.79179 61.7242 2.35848C62.122 1.88578 62.6391 1.29491 63.2755 1.13734C64.0711 0.940388 64.7075 1.72822 65.1053 2.31909C65.6622 3.10692 65.3042 3.77657 64.9859 4.52501C64.7075 5.19466 64.3893 5.82492 63.9915 6.45519C63.196 7.71571 62.0822 8.66111 61.0082 9.6459C59.9342 10.6307 59.0193 11.8124 58.1045 12.9548C57.9056 13.1911 57.7067 13.4669 57.5476 13.7426C57.3487 14.0577 57.2691 14.4516 57.0702 14.7274C56.8713 15.0031 56.6327 15.2789 56.4338 15.5546C56.1951 15.8697 55.9962 16.2243 55.7974 16.5394C55.0416 17.7999 54.4449 19.1392 53.7289 20.4391C53.0129 21.7785 52.0185 23.039 51.7003 24.5358C51.5412 25.3237 51.5412 26.1509 51.5412 26.9387C51.5412 27.7659 51.5412 28.5538 51.6207 29.381C51.7798 30.8779 52.2174 32.3354 52.7743 33.7141C53.2914 34.8958 53.9676 36.2351 54.962 37.1017C55.3996 37.4956 55.8371 37.9289 56.3542 38.2441C56.8713 38.5592 57.3487 38.6774 57.9453 38.7168C58.6215 38.7168 59.2978 38.6774 59.9342 38.441C60.2922 38.3229 60.6104 38.1259 60.9684 37.9683C61.2469 37.8108 61.5253 37.8502 61.8037 37.6532C62.8777 36.9442 63.6335 35.8806 64.2302 34.7382C64.8268 33.5565 65.4633 32.296 65.861 30.9961C66.0997 30.287 66.2588 29.5386 66.4577 28.7901C66.6566 27.9629 66.935 27.1751 67.2533 26.3872C67.7306 25.1267 68.0488 23.8662 67.8897 22.5269C67.7704 21.3452 67.3328 20.1634 66.4975 19.2968C65.7815 18.5484 64.3893 18.3908 63.9517 19.4938C63.8324 19.7695 63.8324 20.0058 63.7926 20.2816C63.7528 20.7937 63.7131 21.1482 63.3948 21.5815C62.9573 22.2511 62.5595 22.8814 62.1617 23.5905C61.4457 24.8904 60.8093 26.1903 60.2524 27.569C59.6955 28.9083 59.0989 30.3658 58.8602 31.7839C58.6613 33.2414 59.0591 34.5413 59.9342 35.723C60.3718 36.3139 60.8889 36.826 61.3662 37.3775C61.9231 38.0471 62.3209 38.7562 62.7982 39.4652C63.2357 40.1349 63.6733 40.8045 64.0711 41.5136C64.4688 42.3014 64.8268 43.1286 65.2246 43.9164C65.9406 45.3739 66.6964 46.8314 67.4124 48.3283C68.1284 49.8645 68.2477 51.5584 68.2079 53.2128C68.2079 54.0006 68.1681 54.7885 68.1284 55.6157C68.1284 55.9702 68.1283 56.3641 68.0886 56.7186C68.0488 56.9944 67.8897 57.152 67.8101 57.3883C67.6113 58.058 67.5317 58.8064 67.293 59.476C67.0544 60.2245 66.7759 60.9729 66.4577 61.7214C65.861 63.1001 65.145 64.4788 64.5086 65.8575C64.1904 66.5665 63.912 67.2756 63.6733 67.9846C63.554 68.2997 63.4744 68.5755 63.3948 68.8906C63.2755 69.3239 63.196 69.836 62.9971 70.2299C62.7186 70.8208 62.4004 71.3723 62.2015 72.0025C62.0026 72.6722 61.8435 73.3418 61.8037 74.0509C61.8037 74.4054 62.2015 74.6024 62.2015 74.4842Z" fill="#231F20" stroke="#231F20"/>
<path d="M52.3367 95.1251C51.7798 95.8735 51.5013 96.7401 51.2229 97.6067C50.9444 98.5521 50.7058 99.5369 50.3875 100.482C50.0693 101.467 49.7113 102.412 49.3931 103.397C49.1147 104.343 48.8362 105.327 48.5578 106.273C48.2396 107.336 47.9214 108.4 47.8418 109.542C47.8418 109.621 48.2794 109.661 48.3191 109.621C48.3987 108.636 48.6374 107.652 48.9158 106.706C49.1942 105.761 49.4727 104.776 49.7511 103.831C50.0296 102.846 50.3876 101.861 50.7058 100.916C51.024 99.9702 51.3024 99.0248 51.5809 98.04C51.8593 97.0553 52.1775 96.0311 52.7742 95.2039C52.814 95.1645 52.5753 95.1251 52.5355 95.1251C52.5355 95.0857 52.3764 95.0463 52.3367 95.1251Z" fill="#231F20" stroke="#231F20"/>
<path d="M70.4737 94.9282C70.3146 95.8342 70.7522 96.7402 71.2295 97.4887C71.7466 98.3553 72.3035 99.1825 72.8604 100.049C74.0537 101.822 75.2868 103.555 76.5597 105.288C77.8325 107.021 79.1054 108.755 80.3783 110.448C81.691 112.142 83.0036 113.797 84.3163 115.491C84.9925 116.357 85.6289 117.224 86.2256 118.09C86.7825 118.918 87.4587 119.666 88.1349 120.375C88.294 120.572 88.4929 120.73 88.652 120.927C88.8509 121.124 89.1293 120.887 88.9304 120.651C88.2542 119.942 87.578 119.233 86.9813 118.445C86.3449 117.618 85.7482 116.751 85.1118 115.924C83.8389 114.23 82.5263 112.615 81.2136 110.921C79.9407 109.267 78.7076 107.573 77.4348 105.879C76.1619 104.185 74.9288 102.452 73.7355 100.719C73.1388 99.8522 72.5819 98.9855 72.025 98.1189C71.5477 97.3705 71.0306 96.5827 70.8715 95.7161C70.8317 95.5191 70.8317 95.2828 70.8715 95.0858C70.951 94.8101 70.5135 94.6919 70.4737 94.9282Z" fill="#231F20" stroke="#231F20"/>
</svg>
