<svg width="120" height="120" viewBox="0 0 120 120" fill="none" xmlns="http://www.w3.org/2000/svg">
<circle cx="60" cy="60" r="51" fill="#DFEDE3"/>
<path d="M57.7178 13.1965C57.839 15.1744 57.9602 18.1411 58.0814 19.5539C58.2026 23.0857 58.3238 26.1938 58.6873 29.4431C58.8085 31.1383 58.9297 32.6924 59.1721 34.3877C59.4145 36.3655 60.2628 38.3434 61.5959 39.8974C63.6562 42.1578 66.5647 43.0054 69.3521 42.1577C69.7157 42.0164 69.9581 41.8752 70.3216 41.7339L71.2912 41.1688L72.1395 40.4625C72.3819 40.1799 72.6243 40.0386 72.8667 39.7561L75.6541 37.2131C79.0474 34.1051 82.4408 30.8558 85.9553 27.8891C86.9249 27.0414 87.7732 26.3351 88.6215 25.4874L87.1672 23.7921C84.501 27.7478 81.7136 31.7035 79.0474 35.6592L74.8057 41.7339C74.1998 42.5816 73.3514 43.853 72.8667 45.2658C72.3819 46.6785 72.1395 48.2325 72.3819 49.7866C72.6243 53.3184 74.6845 56.709 77.7143 57.9804C78.4415 58.263 79.1686 58.5455 79.8958 58.6868L81.7136 58.9694C82.9255 59.1106 84.2586 59.3932 85.4705 59.5345C90.4394 60.2408 95.4082 60.9472 100.377 61.6536V58.4042C96.2566 59.1106 92.0149 59.817 87.7732 60.3821C86.3189 60.6647 84.8646 60.8059 83.4103 61.0885L81.2288 61.371L80.1381 61.5123H79.6534L79.0474 61.6536C76.3812 62.2187 73.9574 64.6203 72.9879 67.5871C72.0183 70.5538 72.3819 74.2269 74.0786 76.7699C78.3203 83.1272 82.6832 89.6258 87.046 95.9831L88.6215 94.1466C84.7434 90.6147 80.8653 87.2242 77.1083 83.6923C75.8964 82.7034 74.8057 81.5732 73.5938 80.443L72.7455 79.5953C72.5031 79.3128 72.1395 79.0303 71.776 78.7477C71.0488 78.1826 70.3217 77.7588 69.4733 77.4762C66.08 76.346 62.2019 78.0414 60.384 81.4319C60.1416 81.8558 59.8992 82.4208 59.6568 82.8447C59.5357 83.4098 59.2933 83.8336 59.2933 84.3987C59.0509 85.5289 59.0509 86.3765 58.9297 87.3654C58.6873 89.202 58.4449 91.0386 58.3237 92.8751C57.839 96.5483 57.4754 100.08 56.9906 103.753C56.7482 105.59 56.6271 107.568 56.3847 109.404H59.0509C58.5661 105.166 58.0813 100.786 57.5966 96.5482L56.8695 90.0497L56.5059 86.8003C56.3847 86.2352 56.3847 85.8114 56.2635 85.1051C56.1423 84.54 56.0211 83.8336 55.8999 83.2685C55.1728 80.8668 53.4761 78.889 51.537 77.9001C49.598 76.9112 47.2954 76.7699 45.2351 77.7588C44.7503 78.0413 44.2656 78.3239 43.7808 78.6065L43.1748 79.1715L42.5689 79.7366L40.3875 81.7145L36.0246 85.6702C33.116 88.3544 30.0862 91.3211 26.9353 94.2879L27.9048 95.4181C30.3286 91.6037 32.7524 87.7893 35.2974 84.3987C37.3577 81.5732 39.0544 79.5954 41.357 76.2048C43.0537 73.5206 43.296 69.7062 42.0841 66.7394C41.4782 65.1854 40.5086 63.9139 39.4179 62.925C38.206 61.9361 36.7517 61.371 35.5398 61.2297C31.6617 60.6646 28.3896 60.0995 24.6326 59.3932C21.6029 58.8281 18.4519 58.4043 15.1797 57.9804V61.0885C21.1181 60.0996 27.1776 58.8281 32.9948 57.9804L35.4186 57.5566C35.7822 57.5566 36.267 57.4153 36.7517 57.2741C37.2365 57.1328 37.6001 56.9915 37.9636 56.709C39.5391 55.8613 40.9934 54.3073 41.7206 52.4708C42.5689 50.6342 42.8113 48.3738 42.4477 46.3959C42.3265 45.8308 42.2053 45.4071 42.0841 44.842C41.8418 44.4181 41.7206 43.853 41.4782 43.4292C40.9934 42.4403 40.5086 41.8752 40.0239 41.1688C36.1458 35.2353 32.2677 29.3018 28.3896 23.5096L27.0565 25.0636L28.7531 26.6176C30.6922 28.4541 32.7524 30.2907 34.6915 31.986C36.0246 33.1162 37.2365 34.2464 38.5696 35.3766C40.2663 36.7893 41.8418 38.2021 43.4172 39.7561C44.8715 41.0276 46.6894 41.7339 48.6284 41.7339C50.4463 41.5926 52.2642 40.8863 53.7185 39.3322C54.8092 38.2021 55.7787 36.6481 56.1423 34.8115L56.3847 33.54L56.5059 32.4098L56.7483 30.2907C57.1118 27.324 57.3542 24.4985 57.4754 21.673C57.5966 18.4237 57.7178 16.3046 57.839 13.6204C57.9602 12.6315 57.9602 11.0774 58.0814 10.3711C58.0814 9.6647 58.0814 9.94726 58.0814 10.6536C57.9602 11.2187 57.9602 11.6426 57.839 12.0664C57.839 12.3489 57.7178 12.3489 57.5966 12.914C57.233 15.1744 56.3847 20.4015 55.7787 23.9334C55.4151 26.335 55.1728 28.7367 54.8092 30.9971C54.688 32.1273 54.5668 33.3987 54.3244 34.3877C54.0821 35.3766 53.7185 36.2242 53.1125 37.0719C52.2642 38.3434 50.9311 39.3323 49.4768 39.6148C48.0225 40.0386 46.5682 39.6148 45.2351 38.9084C44.8715 38.6259 44.6291 38.4846 44.2656 38.2021L43.296 37.3544C42.6901 36.7893 41.9629 36.2242 41.357 35.6592C40.0239 34.529 38.812 33.2575 37.6001 32.1273C34.3279 29.0193 31.2981 26.3351 28.026 23.5096C27.6624 23.227 27.0564 23.227 26.8141 23.6509C26.5717 24.0747 26.5717 24.4985 26.8141 24.9223C27.7836 26.1938 28.6319 27.6065 29.6015 29.0193C31.5405 31.8447 33.6008 34.8115 35.661 37.7783C36.6306 39.3323 37.6001 40.8863 38.6908 42.299C39.6603 43.853 40.6298 45.1245 40.751 46.8198C41.1146 48.6564 40.7511 50.6342 39.9027 52.0469C39.0544 53.6009 37.8424 54.7311 36.3881 55.1549C35.661 55.2962 34.8127 55.4375 33.9643 55.5788C33.116 55.72 32.2677 55.8613 31.2981 56.0026C29.6015 56.2852 27.7836 56.5677 25.9657 56.8503C22.33 57.5566 18.5731 58.1217 14.9373 58.5455C14.5738 58.5455 14.2102 58.9694 14.3314 59.5345C14.3314 59.9583 14.695 60.2408 14.9373 60.2408C15.6645 60.3821 16.3916 60.5234 17.24 60.6646L29.3591 62.6425L35.4186 63.6314C36.3882 63.7727 37.1153 64.0552 37.9636 64.6203C38.6908 65.1854 39.4179 65.8918 39.9027 66.7394C40.8722 68.4347 41.2358 70.6951 40.6298 72.6729C40.5086 73.238 40.2663 73.6618 40.1451 74.0857C39.9027 74.5095 39.6603 74.9333 39.2968 75.3571L37.3577 78.1826L29.8438 89.4845L26.6929 94.1466C26.3293 94.7117 26.4505 95.418 26.8141 95.8419C27.1776 96.2657 27.7836 96.1244 28.1472 95.8419L36.8729 88.2131L41.2358 84.3987L43.4172 82.4208C44.1444 81.8557 44.8715 81.1494 45.4775 80.7256C46.8106 79.8779 48.2649 79.7366 49.7192 80.1605C50.4463 80.443 51.0523 80.7256 51.6582 81.2906C52.2642 81.8557 52.749 82.4208 53.1125 83.1272C53.4761 83.8336 53.7185 84.6812 53.8397 85.5289C53.9609 86.5178 54.0821 87.648 54.2032 88.6369L54.9304 94.9942C55.5364 99.9388 56.0211 104.883 56.6271 109.828C56.7483 110.676 57.3542 111.241 58.2025 111.241C58.8085 111.099 59.2933 110.534 59.4144 109.828C60.0204 104.46 60.5052 99.0912 61.1111 93.5815C61.3535 91.3211 61.5959 88.9194 61.8383 86.659L61.9595 85.8114L62.0807 85.1051C62.2019 84.6812 62.323 84.2574 62.4442 83.8336C62.8078 82.9859 63.2926 82.2796 63.8985 81.5732C65.1104 80.3018 66.8071 79.8779 68.3826 80.1605C69.231 80.3018 69.9581 80.7255 70.564 81.1494L71.0488 81.5732L71.6548 82.1383L72.8667 83.2685C77.4719 87.648 82.4408 92.0275 87.4096 96.407C88.0155 96.9721 88.9851 96.8308 89.4699 96.1244C89.8334 95.4181 89.8334 94.5704 89.4699 94.0053C86.1977 89.202 82.9255 84.5399 79.8958 80.3017C79.1686 79.3128 78.5627 78.4651 77.8355 77.4762L76.866 76.0635L76.3812 75.3571L76.0176 74.6507C75.0481 72.8142 74.8057 70.2713 75.5329 68.1522C76.26 66.0331 77.8355 64.3378 79.7746 63.914L80.5017 63.7727L81.35 63.6314L82.9255 63.3488C84.0163 63.2076 85.107 63.0663 86.1977 62.925C91.1665 62.2187 96.0142 61.6536 100.983 60.9472H101.225C101.831 60.8059 102.195 60.2408 102.074 59.6757C102.074 59.1106 101.589 58.6868 101.225 58.6868C95.4082 57.6979 89.591 56.9915 83.8951 56.0026C83.2891 55.8613 82.5619 55.72 81.8348 55.72C81.1077 55.5788 80.5017 55.4375 79.8958 55.2962C78.805 55.0137 77.8355 54.166 77.1083 53.1771C76.3812 52.1882 75.8964 50.9167 75.7752 49.6453C75.654 48.3738 75.7753 47.1023 76.26 45.8309C76.3812 45.407 76.6236 45.1245 76.7448 44.842C76.866 44.5594 77.2296 44.1356 77.4719 43.7117C77.9567 43.0054 78.4415 42.1577 78.9262 41.4514C79.8957 39.8973 80.8653 38.4846 81.7136 36.9306C83.5315 33.9639 85.3494 30.9971 87.1672 28.0303C87.7732 26.9001 88.5003 25.9112 89.1063 24.9223C89.3486 24.4985 89.3487 23.9334 88.9851 23.6509C88.7427 23.3683 88.2579 23.3683 88.0155 23.6509C85.5917 25.77 83.1679 27.6065 80.6229 29.8669C79.411 30.9971 78.0779 32.1273 76.866 33.2575L71.17 38.3434C70.564 38.9084 69.8369 39.191 69.1097 39.4735C68.3826 39.7561 67.6554 39.7561 66.8071 39.6148C66.08 39.4735 65.3528 39.191 64.6257 38.7672C63.8985 38.3433 63.4138 37.7783 62.8078 37.0719C62.2019 36.2242 61.8383 35.2353 61.5959 34.1051C61.3535 32.8337 61.2323 31.2797 60.99 30.0082C60.6264 27.1827 60.1416 24.3572 59.778 22.2381C59.4145 20.2603 59.0509 18.7063 58.8085 16.5872C58.5661 15.1744 58.2026 12.6315 58.0814 11.2187C57.4754 10.0885 57.5966 9.94725 57.7178 13.1965Z" fill="#231F20"/>
<path d="M67.6559 30.7151C67.8982 30.4325 67.8982 30.1499 68.0194 29.7261C68.383 28.8785 68.7466 28.0308 69.1101 27.0419C69.2313 26.7594 69.2313 26.6181 69.3525 26.3356C69.4737 25.9117 69.7161 25.4879 69.8373 25.0641C70.0797 24.499 70.3221 23.9339 70.6856 23.2275C70.8068 22.945 71.0492 22.6624 71.1704 22.3799C71.2916 22.0973 71.4128 21.956 71.534 21.6735C71.8975 20.9671 72.1399 20.1195 72.3823 19.4131C72.3823 19.2719 72.8671 17.7178 74.8061 13.3383C74.9273 13.0558 75.0485 12.9145 75.1697 12.7732C75.2909 12.4907 75.2909 12.2081 75.4121 11.9256C75.5333 11.643 75.6545 11.2192 75.6545 10.7954C75.7757 10.2303 76.0181 9.80649 76.2604 9.38267C76.624 8.53503 76.8664 7.82864 77.1088 6.98099C77.1088 6.98099 77.1088 6.98099 77.1088 6.83971C77.3511 6.41589 77.4723 5.99207 77.7147 5.42697C77.8359 5.14442 77.9571 5.00315 77.9571 4.7206C78.0783 4.57933 78.1995 4.29679 78.1995 4.15551C78.1995 4.01424 78.1995 3.87299 78.1995 3.87299C78.1995 3.73172 78.1995 3.7317 78.1995 3.59043C78.0783 3.44915 77.9571 3.30786 77.8359 3.30786C77.7147 3.30786 77.5935 3.30787 77.4723 3.44914C77.3512 3.59042 77.3511 3.73172 77.23 3.87299C77.1088 4.15554 76.9876 4.43806 76.8664 4.86188C76.7452 5.00316 76.7452 5.2857 76.624 5.42697C76.5028 5.56825 76.5028 5.85083 76.3816 5.9921C76.2604 6.27465 76.1392 6.41592 76.1392 6.69847C76.018 6.98102 75.8968 7.26357 75.7756 7.40484C75.6545 7.68739 75.5333 7.9699 75.4121 8.25245C75.2909 8.535 75.1697 8.81756 75.0485 9.1001C74.9273 9.38265 74.8061 9.66521 74.6849 9.94776C74.5637 10.2303 74.4426 10.5129 74.3214 10.9367C74.2002 11.2192 74.079 11.643 73.9578 11.9256C73.8366 12.2081 73.7154 12.632 73.5942 12.9145C73.473 13.1971 73.3519 13.6209 73.2307 13.9034C73.1095 14.186 72.9883 14.6098 72.8671 14.8923C72.7459 15.1749 72.6247 15.5987 72.5035 15.8813C72.3823 16.1638 72.2611 16.5876 72.1399 16.8702C72.0187 17.1527 71.8975 17.5766 71.7764 17.8591C71.6552 18.1417 71.534 18.5655 71.4128 18.848C71.2916 19.1306 71.1704 19.5544 71.0492 19.8369C70.928 20.1195 70.8068 20.4021 70.6856 20.8259C70.5645 21.1084 70.4432 21.3909 70.322 21.6735C70.2009 21.956 70.0797 22.2386 69.9585 22.5211C69.3525 23.7926 68.7466 25.4879 68.5042 26.053C68.2618 26.4768 68.1406 26.9006 68.0194 27.3244C67.8982 27.607 67.7771 27.8895 67.6559 28.1721C67.5347 28.4546 67.4135 28.7372 67.2923 29.0198C67.1711 29.161 67.1711 29.4436 67.0499 29.5848C67.0499 29.7261 67.0499 30.0087 66.9287 30.1499C66.9287 30.2912 67.0499 30.4325 67.2923 30.5738C67.4135 30.5738 67.4135 30.5738 67.4135 30.5738C67.5347 30.5738 67.5347 30.5738 67.6559 30.4325C67.5347 30.8563 67.5347 30.8563 67.6559 30.7151Z" fill="#231F20"/>
<path d="M30.9338 0.482321C31.055 0.906143 31.2973 1.18872 31.5397 1.61254C32.0245 2.60146 32.6305 3.73162 33.1152 4.72054C33.2364 5.00309 33.3576 5.28564 33.4788 5.42691C33.7212 5.85073 33.9636 6.41583 34.2059 6.83965C34.5695 7.54602 34.9331 8.25239 35.1755 8.95876C35.2966 9.38258 35.4179 9.66516 35.6602 10.089C35.7814 10.3715 35.9026 10.6541 36.0238 10.9366C36.3874 11.7843 36.9933 12.6319 37.3569 13.4795C37.4781 13.6208 38.4476 15.3161 40.9926 20.402C41.1138 20.6845 41.235 20.9671 41.3562 21.2496C41.4774 21.5322 41.7198 21.8147 41.841 22.0973C42.0833 22.5211 42.3257 22.8036 42.5681 23.2274C42.9317 23.7925 43.1741 24.3577 43.4165 24.9228C43.9012 25.7704 44.386 26.618 44.8707 27.607C44.8707 27.607 44.8707 27.607 44.8707 27.7482C45.1131 28.3133 45.3555 28.8784 45.7191 29.3023C45.8403 29.5848 45.9615 29.8673 46.0827 30.1499C46.2038 30.4324 46.3251 30.5737 46.4462 30.8562C46.5674 30.9975 46.6886 30.9975 46.6886 31.1388C46.8098 31.1388 46.8098 31.2801 46.931 31.2801C47.0522 31.2801 47.2946 31.1388 47.2946 30.9975C47.4158 30.8562 47.4158 30.715 47.4158 30.5737C47.4158 30.4324 47.2946 30.2911 47.1734 30.1499C47.0522 29.726 46.8098 29.4435 46.5674 29.0197C46.4463 28.8784 46.325 28.5959 46.2038 28.3133C46.0827 28.0308 45.9615 27.8895 45.8403 27.607C45.7191 27.3244 45.5979 27.0418 45.4767 26.7593C45.3555 26.4768 45.1131 26.1942 44.9919 25.9116C44.8707 25.6291 44.6284 25.3466 44.5072 24.9228C44.386 24.6402 44.1436 24.2164 44.0224 23.9338C43.9012 23.6513 43.6589 23.2275 43.5377 22.9449C43.2953 22.5211 43.1741 22.2385 42.9317 21.8147C42.6893 21.3909 42.5681 21.1084 42.3258 20.6845C42.0834 20.2607 41.9622 19.9781 41.7198 19.5543C41.4774 19.1305 41.3562 18.7067 41.1138 18.4241C40.8715 18.0003 40.7503 17.5765 40.5079 17.294C40.2655 16.8701 40.1443 16.4463 39.9019 16.1637C39.6596 15.7399 39.5384 15.3161 39.296 15.0336C39.0536 14.6097 38.9324 14.1859 38.69 13.9034C38.4476 13.4795 38.3265 13.197 38.0841 12.7732C37.8417 12.3494 37.7205 12.0668 37.4781 11.643C37.2357 11.2192 37.1145 10.9366 36.8722 10.5128C36.751 10.2302 36.5086 9.80644 36.3874 9.52389C36.2662 9.24135 36.0238 8.81751 35.9026 8.53496C35.1755 6.98094 34.0848 5.14439 33.7212 4.43802C33.4788 4.0142 33.2364 3.4491 32.994 3.02528C32.7516 2.74273 32.6305 2.31889 32.5093 2.03634C32.3881 1.7538 32.1457 1.47127 32.0245 1.04745C31.9033 0.906177 31.7821 0.623595 31.6609 0.482321C31.5397 0.341047 31.4186 0.19979 31.2974 0.0585158C31.1762 -0.0827582 30.9338 0.0585244 30.8126 0.199798L30.6914 0.341081C30.6914 0.482355 30.6914 0.482329 30.6914 0.623603C30.8126 0.199781 30.9338 0.341047 30.9338 0.482321Z" fill="#231F20"/>
<path d="M8.63515 31.8453C8.87753 32.1278 9.24112 32.2691 9.4835 32.4104C10.3318 32.9755 11.1802 33.5406 11.9073 34.1057C12.1497 34.247 12.2709 34.3882 12.5133 34.5295C12.8768 34.812 13.2404 35.0946 13.604 35.2359C14.2099 35.6597 14.6947 36.0835 15.3007 36.5073C15.543 36.6486 15.7854 36.9311 16.149 37.2137C16.3914 37.355 16.5126 37.4963 16.755 37.6375C17.3609 38.2026 18.2092 38.4852 18.8152 39.0503C18.9364 39.1915 20.3907 39.8979 24.5112 42.7234C24.7536 42.8647 24.8748 43.0059 25.1171 43.1472C25.3595 43.2885 25.6019 43.4297 25.8443 43.571C26.2079 43.7123 26.5714 43.8536 26.8138 44.1361C27.2986 44.4187 27.7833 44.7012 28.1469 44.9838C28.8741 45.4076 29.6012 45.8314 30.3283 46.3965C30.3283 46.3965 30.3284 46.3965 30.4495 46.3965C30.9343 46.679 31.2979 46.9616 31.7826 47.2441C32.025 47.3854 32.1462 47.5267 32.3886 47.668C32.631 47.8093 32.7522 47.9505 32.9946 47.9505C33.1158 47.9505 33.2369 47.9505 33.3581 47.9505C33.4793 47.9505 33.6005 47.9505 33.6005 47.9505C33.7217 47.9505 33.8429 47.668 33.8429 47.5267C33.8429 47.3854 33.8429 47.2441 33.7217 47.1029C33.6005 46.9616 33.4793 46.9616 33.3581 46.8203C33.1157 46.5378 32.7522 46.3965 32.5098 46.2553C32.3886 46.114 32.1462 45.9727 32.025 45.9727C31.7827 45.8314 31.6615 45.6902 31.4191 45.5489C31.1767 45.4076 30.9343 45.2663 30.8131 45.125C30.5708 44.9838 30.3284 44.8425 30.086 44.7012C29.8436 44.56 29.6012 44.4187 29.3588 44.1361C29.1164 43.9949 28.8741 43.7123 28.5105 43.571C28.2681 43.4297 27.9045 43.1472 27.6622 43.0059C27.4198 42.8647 27.0562 42.5821 26.8138 42.4408C26.4502 42.2996 26.2079 42.017 25.8443 41.8758C25.4807 41.7345 25.2383 41.4519 24.8747 41.3107C24.5112 41.1694 24.2688 40.8868 23.9052 40.7455C23.5417 40.6043 23.2993 40.3217 22.9357 40.1804C22.5721 40.0392 22.3297 39.7566 21.9662 39.6154C21.6026 39.4741 21.3602 39.1915 20.9967 39.0503C20.6331 38.909 20.3907 38.6265 20.0271 38.4852C19.6635 38.3439 19.4212 38.0613 19.0576 37.9201C18.8152 37.7788 18.4516 37.4962 18.2092 37.355C17.9669 37.2137 17.6033 36.9312 17.3609 36.7899C17.1185 36.6486 16.7549 36.3661 16.5126 36.2248C16.2702 36.0835 16.0278 35.9423 15.6643 35.6597C14.4523 34.6708 12.8768 33.8231 12.2709 33.3993C11.9073 33.1168 11.5437 32.9755 11.1802 32.6929C10.9378 32.5517 10.6954 32.4104 10.3318 32.1279C10.0894 31.9866 9.84708 31.704 9.6047 31.5627C9.48351 31.4214 9.24111 31.4215 8.99872 31.2802C8.87753 31.1389 8.63516 31.1389 8.51397 31.1389C8.39278 31.1389 8.27158 31.2802 8.15039 31.5627V31.704C8.15039 31.8453 8.1504 31.8453 8.27159 31.9866C8.39278 31.704 8.51396 31.704 8.63515 31.8453Z" fill="#231F20"/>
<path d="M83.5305 48.0917C83.8941 47.9504 84.2576 47.6679 84.5 47.5266C85.4695 46.9615 86.3179 46.3964 87.2874 45.8313C87.5298 45.69 87.7722 45.5488 88.0145 45.4075C88.3781 45.125 88.8629 44.8424 89.2264 44.5598C89.8324 44.136 90.5596 43.8535 91.1655 43.4297C91.5291 43.2884 91.8926 43.1471 92.135 42.8645C92.3774 42.7233 92.6198 42.582 92.8622 42.4407C93.7105 42.0169 94.4377 41.4518 95.1648 41.028C95.286 40.8867 96.7403 39.8978 101.467 36.9311C101.709 36.7898 101.952 36.7898 102.194 36.5072C102.436 36.3659 102.679 36.0834 103.042 35.9421C103.406 35.6596 103.648 35.377 104.012 35.0945C104.497 34.6706 104.981 34.3881 105.466 34.1056C106.314 33.5405 107.042 32.9754 107.89 32.5516C107.89 32.5516 107.89 32.5516 108.011 32.5516C108.496 32.269 108.981 31.9865 109.465 31.7039C109.708 31.5626 109.95 31.4214 110.193 31.2801C110.435 31.1388 110.677 30.9975 110.798 30.8562C110.92 30.715 110.92 30.715 111.041 30.5737C111.041 30.4325 111.162 30.4324 111.162 30.2912C111.162 30.1499 111.041 29.8674 110.92 29.8674C110.798 29.7261 110.677 29.7261 110.556 29.7261C110.435 29.7261 110.314 29.8674 110.071 29.8674C109.708 30.0086 109.344 30.2912 109.102 30.4324C108.859 30.5737 108.738 30.715 108.496 30.8562C108.253 30.9975 108.011 31.1388 107.89 31.2801C107.647 31.4214 107.405 31.5626 107.163 31.7039C106.92 31.8452 106.678 31.9864 106.314 32.269C106.072 32.4103 105.708 32.6928 105.466 32.8341C105.224 32.9754 104.86 33.2579 104.618 33.3992C104.254 33.5405 104.012 33.823 103.648 33.9643C103.285 34.1056 103.042 34.3881 102.679 34.5294C102.315 34.8119 101.952 34.9532 101.709 35.2358C101.346 35.5183 100.982 35.6596 100.618 35.9421C100.255 36.2247 99.8913 36.3659 99.5277 36.6485C99.1641 36.931 98.8006 37.0723 98.437 37.3549C98.0734 37.6374 97.7098 37.7787 97.3463 38.0612C96.9827 38.3438 96.6191 38.4851 96.2556 38.7676C95.892 39.0502 95.5284 39.1914 95.1648 39.474C94.8012 39.7565 94.4377 39.8978 94.0741 40.1803C93.7105 40.4629 93.347 40.6042 93.1046 40.8867C92.741 41.028 92.4986 41.3105 92.135 41.4518C91.7715 41.5931 91.5291 41.8757 91.1655 42.0169C90.9231 42.1582 90.5595 42.4407 90.3172 42.582C88.8629 43.4297 87.2874 44.5598 86.5603 44.9837C86.0755 45.2662 85.7119 45.5488 85.3484 45.8313C85.106 45.9726 84.7424 46.2551 84.5 46.3964C84.2576 46.5377 83.894 46.679 83.6517 46.9615C83.4093 47.1028 83.2881 47.2441 83.0457 47.3853C82.9245 47.5266 82.8033 47.6679 82.5609 47.8091C82.4397 47.9504 82.5609 48.233 82.6821 48.3743L82.8033 48.5155C82.9245 48.5155 82.9245 48.5155 83.0457 48.5155C83.2881 48.233 83.4093 48.0917 83.5305 48.0917Z" fill="#231F20"/>
<path d="M81.9561 71.2608C82.1985 71.5433 82.5621 71.6846 82.9257 71.9671C83.774 72.5322 84.7435 73.2386 85.5919 73.8037C85.8343 73.945 86.0766 74.0863 86.1978 74.2275C86.5614 74.5101 87.0462 74.7926 87.4097 75.0752C88.0157 75.499 88.6217 75.9228 89.2276 76.3466C89.47 76.6292 89.8336 76.9117 90.076 77.053C90.3183 77.1943 90.5607 77.3356 90.8031 77.6181C91.5303 78.1832 92.2574 78.607 92.9845 79.1721C93.1057 79.3134 94.6812 80.161 99.0441 83.2691C99.2865 83.4103 99.4077 83.6929 99.6501 83.8342C99.8924 83.9754 100.135 84.1167 100.498 84.258C100.862 84.3993 101.226 84.6818 101.589 84.8231C102.074 85.1056 102.559 85.3882 103.043 85.812C103.771 86.3771 104.619 86.8009 105.346 87.366C105.346 87.366 105.346 87.366 105.467 87.366C105.952 87.6486 106.316 87.9311 106.8 88.3549C107.043 88.4962 107.285 88.6375 107.527 88.7787C107.77 88.92 107.891 89.0613 108.133 89.0613C108.255 89.0613 108.376 89.0613 108.497 89.0613C108.618 89.0613 108.739 89.0613 108.739 89.0613C108.861 89.0613 108.982 88.7788 108.982 88.6375C108.982 88.4962 108.982 88.3549 108.861 88.2137C108.739 88.0724 108.618 87.9311 108.497 87.9311C108.255 87.6486 107.891 87.5073 107.527 87.2248C107.285 87.0835 107.164 86.9422 106.922 86.8009C106.679 86.6596 106.558 86.5184 106.316 86.3771C106.073 86.2358 105.831 86.0945 105.588 85.9533C105.346 85.812 105.104 85.6707 104.861 85.3882C104.619 85.2469 104.377 84.9644 104.013 84.8231C103.771 84.6818 103.407 84.3993 103.165 84.258C102.922 84.1167 102.559 83.8342 102.316 83.6929C101.953 83.4104 101.71 83.2691 101.347 82.9865C100.983 82.704 100.741 82.5627 100.377 82.2802C100.014 81.9976 99.7712 81.8563 99.4077 81.5738C99.0441 81.2913 98.6805 81.15 98.4381 80.8674C98.0746 80.5849 97.711 80.4436 97.4686 80.1611C97.1051 79.8785 96.7415 79.7372 96.4991 79.4547C96.1355 79.1721 95.7719 79.0309 95.5296 78.7483C95.166 78.4658 94.8024 78.3245 94.56 78.042C94.1964 77.7594 93.9541 77.6181 93.5905 77.3356C93.2269 77.053 92.9846 76.9118 92.621 76.6292C92.2574 76.4879 92.015 76.2054 91.6514 76.0641C91.4091 75.9228 91.0455 75.6403 90.8031 75.499C90.5607 75.3577 90.1971 75.0752 89.9548 74.9339C88.6217 73.945 87.0462 72.9561 86.4402 72.5322C86.0767 72.2497 85.5919 71.9672 85.2283 71.6846C84.9859 71.5433 84.6224 71.2608 84.38 71.1195C84.1376 70.9782 83.8952 70.6957 83.5317 70.5544C83.2893 70.4131 83.1681 70.2719 82.9257 70.2719C82.8045 70.1306 82.5621 70.1306 82.3197 70.1306C82.0774 69.9893 82.0773 70.2719 81.9561 70.5544V70.6957C81.9561 70.837 81.9562 70.837 82.0773 70.9782C81.7138 71.1195 81.835 71.2608 81.9561 71.2608Z" fill="#231F20"/>
<path d="M67.6554 89.7675C67.6554 90.1913 67.8977 90.4739 68.0189 90.8977C68.3825 91.8866 68.6249 92.8755 68.9885 93.8645C69.1097 94.147 69.1097 94.2883 69.2308 94.5708C69.352 94.9947 69.4732 95.4185 69.7156 95.9836C69.958 96.6899 70.0792 97.3963 70.3216 98.1027C70.4428 98.5265 70.4428 98.8091 70.564 99.2329C70.6851 99.5155 70.6852 99.798 70.8064 100.081C71.0487 100.928 71.4123 101.776 71.6547 102.623C71.6547 102.765 72.3818 104.319 73.9573 109.405C74.0785 109.687 74.0785 109.97 74.0785 110.111C74.1997 110.394 74.3209 110.676 74.4421 110.959C74.5633 111.382 74.8057 111.665 74.9268 112.089C75.1692 112.654 75.2904 113.219 75.5328 113.784C75.7752 114.632 76.1387 115.479 76.5023 116.468C76.5023 116.468 76.5023 116.468 76.5023 116.61C76.6235 117.175 76.8659 117.599 76.9871 118.164C77.1083 118.446 77.1083 118.729 77.2295 118.87C77.3507 119.153 77.3507 119.294 77.4719 119.576C77.5931 119.718 77.593 119.718 77.7142 119.859C77.8354 119.859 77.8354 120 77.9566 120C78.0778 120 78.3202 120 78.3202 119.859C78.4414 119.718 78.5626 119.576 78.5626 119.435C78.5626 119.294 78.5626 119.153 78.4414 119.011C78.3202 118.587 78.199 118.305 78.0778 117.881C77.9566 117.74 77.9566 117.457 77.8354 117.316C77.7142 117.033 77.7142 116.892 77.593 116.61C77.4718 116.327 77.4719 116.044 77.3507 115.762C77.2295 115.479 77.1083 115.197 77.1083 114.914C76.9871 114.632 76.8659 114.349 76.7447 113.925C76.6235 113.643 76.5023 113.219 76.3811 112.936C76.2599 112.654 76.1387 112.23 76.0176 111.948C75.8964 111.524 75.7752 111.241 75.654 110.817C75.5328 110.394 75.4116 110.111 75.2904 109.687C75.1692 109.263 75.048 108.981 74.9268 108.557C74.8057 108.133 74.6844 107.851 74.5632 107.427C74.4421 107.003 74.3209 106.72 74.1997 106.297C74.0785 105.873 73.9573 105.59 73.8361 105.166C73.7149 104.743 73.5937 104.46 73.4725 104.036C73.3513 103.612 73.2302 103.33 73.109 102.906C72.9878 102.482 72.8666 102.2 72.7454 101.776C72.6242 101.352 72.503 101.069 72.3818 100.646C72.2606 100.222 72.1395 99.9392 72.0183 99.5154C71.8971 99.2329 71.7759 98.8091 71.6547 98.5265C71.5335 98.244 71.4123 97.8201 71.2911 97.5376C70.8063 95.9836 70.2004 94.147 69.958 93.4407C69.8368 93.0168 69.7156 92.593 69.4732 92.1692C69.3521 91.8867 69.2308 91.6041 69.1096 91.1803C68.9885 90.8977 68.8673 90.6152 68.8673 90.1913C68.7461 90.0501 68.7461 89.7675 68.6249 89.6262C68.5037 89.485 68.3825 89.3437 68.2613 89.2024C68.1401 89.0612 67.8978 89.2024 67.7766 89.2024C67.6554 89.2024 67.6554 89.2024 67.6554 89.3437C67.6554 89.485 67.5342 89.485 67.5342 89.6262C67.5342 89.485 67.6554 89.6263 67.6554 89.7675Z" fill="#231F20"/>
<path d="M46.568 88.2135C46.3257 88.496 46.2044 88.9198 46.0833 89.3437C45.5985 90.3326 45.2349 91.4628 44.7502 92.4517C44.629 92.7342 44.5078 93.0168 44.3866 93.158C44.1442 93.5819 44.023 94.147 43.7806 94.5708C43.5382 95.2772 43.1747 95.9835 42.8111 96.6899C42.6899 96.9724 42.4475 97.3963 42.2052 97.6788C42.084 97.9614 41.9628 98.2439 41.8416 98.5265C41.478 99.3741 41.1144 100.222 40.7509 101.069C40.6297 101.211 40.0237 103.047 37.8423 108.133C37.7211 108.416 37.5999 108.557 37.4787 108.839C37.3575 109.122 37.2363 109.405 37.1151 109.828C36.9939 110.252 36.8728 110.676 36.7516 111.1C36.5092 111.665 36.2668 112.23 36.0244 112.795C35.6608 113.643 35.2973 114.632 34.9337 115.621C34.9337 115.621 34.9337 115.621 34.9337 115.762C34.6913 116.327 34.4489 116.892 34.2065 117.316C34.0854 117.598 33.9642 117.881 33.843 118.164C33.7218 118.446 33.6006 118.587 33.6006 118.87C33.6006 119.011 33.6006 119.152 33.6006 119.294C33.6006 119.435 33.6006 119.576 33.6006 119.576C33.7218 119.718 33.843 119.859 33.9641 119.859C34.0853 119.859 34.2065 119.859 34.3277 119.718C34.4489 119.576 34.4489 119.435 34.5701 119.294C34.8125 118.87 34.9337 118.587 35.0549 118.164C35.1761 117.881 35.1761 117.74 35.2973 117.457C35.4184 117.175 35.5397 116.892 35.6608 116.751C35.782 116.468 35.9032 116.186 36.0244 115.903C36.1456 115.621 36.2668 115.338 36.388 115.056C36.5092 114.773 36.6304 114.349 36.7516 114.067C36.8728 113.784 36.9939 113.36 37.2363 113.078C37.3575 112.654 37.4787 112.371 37.7211 111.948C37.8423 111.524 38.0846 111.241 38.2058 110.817C38.327 110.393 38.5694 110.111 38.6906 109.687C38.8118 109.263 39.0542 108.839 39.1754 108.557C39.2966 108.133 39.5389 107.709 39.6601 107.427C39.7813 107.003 40.0237 106.579 40.1449 106.155C40.2661 105.731 40.5085 105.308 40.6297 104.884C40.7508 104.46 40.9933 104.036 41.1144 103.612C41.2356 103.188 41.478 102.765 41.5992 102.482C41.7204 102.058 41.9628 101.635 42.084 101.352C42.2052 100.928 42.4475 100.646 42.5687 100.222C42.6899 99.7979 42.9323 99.5154 43.0535 99.0916C43.1747 98.6677 43.2959 98.3852 43.5383 97.9613C43.6595 97.6788 43.7806 97.255 43.9018 96.9725C44.629 95.4184 45.3561 93.4406 45.7197 92.7342C45.9621 92.3104 46.0833 91.7453 46.3256 91.3215C46.4468 91.0389 46.568 90.6151 46.6892 90.3326C46.8104 90.05 46.9316 89.7675 47.0528 89.3437C47.174 89.0611 47.174 88.9198 47.2952 88.6373C47.4164 88.496 47.4164 88.2135 47.4164 87.9309C47.4164 87.6484 47.2952 87.6484 47.0528 87.5071C46.9316 87.5071 46.9316 87.5071 46.9316 87.5071C46.8104 87.5071 46.8104 87.5071 46.6892 87.6484C46.6892 87.9309 46.568 88.0722 46.568 88.2135Z" fill="#231F20"/>
<path d="M8.99922 86.3767C9.3628 86.2354 9.60517 86.0941 9.84756 85.9528C10.6959 85.529 11.5442 84.9639 12.2714 84.5401C12.5138 84.3988 12.635 84.2576 12.8773 84.2576C13.2409 84.1163 13.6045 83.8338 13.968 83.6925C14.574 83.4099 15.0588 83.1274 15.6647 82.8448C15.9071 82.7036 16.2707 82.5623 16.5131 82.421C16.7554 82.2797 16.9978 82.1385 17.119 82.1385C17.8462 81.8559 18.4521 81.2908 19.1793 81.0083C19.3005 81.0083 20.6336 80.0194 24.7541 77.759C24.9965 77.6177 25.2388 77.6177 25.36 77.4764C25.6024 77.3351 25.8448 77.1939 26.0872 77.0526C26.4507 76.9113 26.6931 76.6288 26.9355 76.3462C27.4203 76.0637 27.7838 75.7811 28.2686 75.4986C28.9958 75.0748 29.7229 74.6509 30.45 74.2271C30.45 74.2271 30.45 74.2271 30.5712 74.2271C31.056 73.9446 31.4196 73.8033 31.9043 73.5207C32.1467 73.3795 32.3891 73.2382 32.5103 73.2382C32.6315 73.0969 32.8739 73.0969 32.9951 72.9557C33.1162 72.8144 33.1163 72.8144 33.2375 72.6731C33.2375 72.5318 33.3586 72.5318 33.3586 72.3906C33.3586 72.2493 33.2374 71.9667 33.1163 71.9667C32.9951 71.8254 32.8739 71.8254 32.7527 71.8254C32.6315 71.8254 32.5103 71.9667 32.3891 71.9667C32.0255 72.108 31.7831 72.2493 31.5408 72.3906C31.4196 72.5318 31.1772 72.5318 31.056 72.6731C30.8136 72.8144 30.6924 72.9557 30.45 72.9557C30.2077 73.0969 29.9653 73.2382 29.8441 73.3795C29.6017 73.5207 29.3593 73.662 29.1169 73.8033C28.8745 73.9446 28.6322 74.0858 28.3898 74.2271C28.1474 74.3684 27.905 74.5096 27.5415 74.6509C27.2991 74.7922 26.9355 74.9335 26.6931 75.0748C26.4507 75.216 26.0872 75.3573 25.8448 75.6399C25.4812 75.7811 25.2388 75.9224 24.8752 76.2049C24.5117 76.3462 24.2693 76.4875 23.9057 76.77C23.5422 76.9113 23.2998 77.1939 22.9362 77.3352C22.5726 77.4764 22.3302 77.759 21.9667 77.9002C21.6031 78.0415 21.3607 78.3241 20.9971 78.4653C20.6336 78.6066 20.3912 78.8891 20.0276 79.0304C19.664 79.1717 19.4217 79.4542 19.0581 79.5955C18.6945 79.7368 18.4521 79.8781 18.0886 80.1606C17.8462 80.3019 17.4826 80.4432 17.2402 80.7257C16.9978 80.867 16.6342 81.0083 16.3919 81.1495C16.1495 81.2908 15.7859 81.4321 15.5436 81.5734C15.3012 81.7147 15.0588 81.8559 14.6952 81.9972C13.3621 82.5623 11.9078 83.5512 11.4231 83.8337C11.0595 83.975 10.6959 84.2576 10.3323 84.5401C10.0899 84.6814 9.84758 84.8227 9.6052 84.9639C9.36281 85.1052 9.12042 85.2465 8.87804 85.3878C8.75685 85.529 8.51446 85.6703 8.39327 85.6703C8.27208 85.8116 8.15088 85.9529 8.02969 86.0941C7.9085 86.2354 8.0297 86.5179 8.15089 86.6592C8.15089 86.6592 8.1509 86.8005 8.27209 86.8005C8.39328 86.8005 8.39327 86.8005 8.51447 86.8005C8.75685 86.5179 8.87803 86.518 8.99922 86.3767Z" fill="#231F20"/>
</svg>
