<svg width="96" height="96" viewBox="0 0 96 96" fill="none" xmlns="http://www.w3.org/2000/svg">
<path d="M80.6127 55.6856C84.7926 37.7892 73.7448 19.8761 55.9367 15.6755C38.1287 11.4749 20.3039 22.5774 16.124 40.4737C11.9441 58.3701 22.9919 76.2832 40.7999 80.4838C58.608 84.6844 76.4328 73.5819 80.6127 55.6856Z" fill="#DFEDE3"/>
<path d="M44.5117 32.5844C44.5117 32.5844 52.5037 4.79956 53.5836 4.79956C54.6636 4.79956 56.1756 15.653 54.2316 21.8033C52.2876 27.9536 50.4877 31.6437 49.1917 30.5584C47.8957 29.5454 60.9996 13.4823 66.3275 13.1205C71.6555 12.7588 57.8316 30.486 51.4237 34.1039C51.4237 34.1039 54.3756 38.0111 51.2077 44.3061C51.2077 44.3061 59.7756 49.5881 64.1676 57.5473C68.6315 65.5065 67.5515 74.1892 67.5515 74.1892C67.5515 74.1892 71.0075 71.3673 73.0235 74.1892C75.0395 77.0111 72.0875 82.7273 66.8315 79.9777C66.8315 79.9777 66.3995 83.4508 59.1276 83.4508C51.8557 83.4508 31.9118 83.4508 31.9118 83.4508C31.9118 83.4508 31.5518 78.82 34.5758 78.0241C37.5278 77.1558 42.4237 80.1948 42.4237 80.1948C42.4237 80.1948 37.8158 76.577 38.3918 70.6438C38.9678 64.7106 46.0237 61.8887 46.0237 61.8887C46.0237 61.8887 41.9917 60.2968 35.5838 70.7161C35.5838 70.7161 34.2878 72.7421 32.4158 71.4397C30.5438 70.1373 33.4238 63.9146 39.5438 58.6326C39.5438 58.6326 37.5998 52.6271 38.2478 47.2003C38.2478 47.2003 32.6318 44.089 32.6318 41.2671C32.5598 39.82 35.7278 32.9462 44.5117 32.5844Z" stroke="#231F20" stroke-width="0.652542" stroke-miterlimit="10" stroke-linecap="round" stroke-linejoin="round"/>
<path fill-rule="evenodd" clip-rule="evenodd" d="M47.9071 0.721333C22.1138 0.721333 1.20416 21.6759 1.20416 47.5248C1.20416 73.3736 22.1138 94.3282 47.9071 94.3282C73.7004 94.3282 94.61 73.3736 94.61 47.5248C94.61 21.6759 73.7004 0.721333 47.9071 0.721333ZM0.484375 47.5248C0.484375 21.2776 21.7162 0 47.9071 0C74.0979 0 95.3297 21.2776 95.3297 47.5248C95.3297 73.772 74.0979 95.0495 47.9071 95.0495C21.7162 95.0495 0.484375 73.772 0.484375 47.5248Z" fill="#231F20"/>
</svg>
