<svg width="96" height="96" viewBox="0 0 96 96" fill="none" xmlns="http://www.w3.org/2000/svg">
<path d="M80.7292 55.6856C84.9122 37.7892 73.8563 19.8761 56.0351 15.6755C38.2139 11.4749 20.376 22.5774 16.193 40.4737C12.01 58.3701 23.066 76.2832 40.8871 80.4838C58.7083 84.6844 76.5462 73.5819 80.7292 55.6856Z" fill="#DFEDE3"/>
<path d="M47.8894 19.396C49.7731 19.396 51.493 20.384 52.8034 22.113C54.0319 23.7596 54.769 25.9826 54.769 28.5349C54.769 30.0992 54.4414 31.2519 54.0319 32.6515C53.6224 33.9689 53.131 35.4508 52.8034 37.7561C52.8034 38.0855 52.5577 38.2501 52.312 38.1678C52.2301 38.1678 52.1482 38.1678 52.1482 38.1678C51.493 37.8385 50.8378 37.5915 50.1007 37.4268C49.4455 37.3445 48.7084 37.2622 47.9713 37.2622C47.2342 37.2622 46.4971 37.3445 45.8419 37.4268C45.1049 37.5915 44.4497 37.8385 43.7945 38.1678C43.5488 38.2501 43.2212 38.1678 43.1393 37.9208C43.0574 37.8385 43.0574 37.8385 43.0574 37.7561C42.8117 35.5332 42.3203 34.0512 41.9108 32.6515C41.5013 31.2519 41.0918 30.0992 41.0918 28.5349C41.0918 26.0649 41.8289 23.7596 43.0574 22.113C44.1221 20.384 45.8419 19.396 47.8894 19.396ZM51.9844 22.6893C50.9197 21.2073 49.4455 20.384 47.8894 20.384C46.2514 20.384 44.8592 21.2073 43.7126 22.6893C42.566 24.2536 41.9108 26.3119 41.9108 28.5349C41.9108 29.9346 42.2384 31.0049 42.6479 32.3222C43.0574 33.5572 43.4669 34.9568 43.7945 37.0152C44.2859 36.7682 44.8592 36.6035 45.4325 36.5212C46.1695 36.3565 46.9885 36.2742 47.8075 36.2742C48.6265 36.2742 49.3636 36.3565 50.1826 36.5212C50.674 36.6035 51.2473 36.7682 51.8206 37.0152C52.0663 35.0392 52.5577 33.6395 52.8853 32.3222C53.2948 31.0049 53.6224 29.9346 53.6224 28.5349C53.7043 26.3119 53.0491 24.2536 51.9844 22.6893Z" fill="#231F20"/>
<path d="M71.9682 33.3923C72.8691 35.0389 72.8691 37.0149 72.0501 39.0732C71.2311 40.8845 69.675 42.6958 67.4638 44.0131C66.1534 44.7541 64.9249 45.0835 63.5326 45.4128C62.2222 45.6598 60.6661 46.0715 58.4549 46.8948C58.2092 46.9771 57.9635 46.8948 57.8816 46.6478C57.7997 46.5655 57.7997 46.5655 57.7997 46.4831C57.7178 45.7421 57.6359 45.0835 57.3902 44.3425C57.1445 43.6838 56.8988 43.0252 56.4893 42.3665C56.1617 41.7078 55.7522 41.1315 55.2608 40.6375C54.7694 40.0612 54.1961 39.5672 53.6228 39.1555C53.3771 39.0732 53.3771 38.7439 53.5409 38.4969C53.5409 38.4969 53.5409 38.4145 53.6228 38.4145C55.4246 37.0149 56.4893 35.8622 57.3902 34.8742C58.373 33.8039 59.192 32.8983 60.5023 32.0749C62.6317 30.8399 65.0887 30.4283 67.0543 30.5929C69.1018 30.5929 70.9854 31.5809 71.9682 33.3923ZM71.1492 38.5792C71.8044 36.9325 71.8863 35.2036 71.0673 33.8039C70.3302 32.4043 68.7742 31.5809 67.0543 31.3339C65.2525 31.1693 63.1231 31.5809 61.0756 32.7336C59.929 33.3923 59.1101 34.2156 58.2092 35.2859C57.3083 36.1916 56.3255 37.2619 54.7694 38.4969C55.2608 38.9085 55.6703 39.3202 56.0798 39.7319C56.5712 40.3082 57.0626 40.9668 57.4721 41.6255C57.8816 42.3665 58.2092 43.1075 58.4549 43.8485C58.6187 44.3425 58.7006 44.9188 58.7825 45.4951C60.6661 44.7541 62.0584 44.4248 63.3688 44.1778C64.7611 43.8485 65.8258 43.6015 67.0543 42.9428C68.938 41.9548 70.3302 40.3905 71.1492 38.5792Z" fill="#231F20"/>
<path d="M71.9682 61.2207C70.9854 62.9497 69.1837 63.9377 67.0543 64.1847C65.0887 64.3494 62.6317 63.9377 60.5023 62.7027V62.6204C59.192 61.8794 58.373 60.9737 57.3902 59.9034C56.4893 58.9154 55.4246 57.7628 53.6228 56.3631C53.3771 56.1984 53.3771 55.8691 53.5409 55.7044C53.5409 55.6221 53.6228 55.6221 53.6228 55.5398C54.1961 55.1281 54.7694 54.7164 55.2608 54.1401C55.7522 53.6461 56.1617 53.0698 56.4893 52.4111C56.8988 51.7525 57.1445 51.0938 57.3902 50.4352V50.3528C57.6359 49.6942 57.7178 49.0355 57.7997 48.2945C57.7997 48.0475 58.0454 47.8005 58.373 47.8828C58.373 47.8828 58.4549 47.8828 58.5368 47.8828C60.5842 48.7062 62.1403 49.1178 63.5326 49.3648C64.9249 49.6942 66.1534 49.9412 67.4638 50.7645C69.5931 51.9995 71.1492 53.7285 72.0501 55.7044C72.8691 57.5981 72.8691 59.5741 71.9682 61.2207ZM66.9724 63.1967C68.6923 62.9497 70.2483 62.1264 70.9854 60.7267C71.8044 59.4094 71.7225 57.6804 71.0673 55.9514C70.3302 54.2225 68.938 52.6581 66.9724 51.4231C65.7439 50.7645 64.6792 50.5175 63.2869 50.1882C62.0584 49.9412 60.6661 49.6118 58.7006 48.8708C58.6187 49.4472 58.5368 49.9412 58.373 50.5175C58.1273 51.2585 57.7997 51.9995 57.3902 52.7405C56.9807 53.3991 56.4893 54.0578 55.9979 54.6341C55.5884 55.0458 55.1789 55.4574 54.6875 55.8691C56.2436 57.1041 57.2264 58.1744 58.1273 59.0801C59.0282 60.1504 59.8471 60.9737 60.9937 61.6324C63.0412 62.9497 65.1706 63.3614 66.9724 63.1967Z" fill="#231F20"/>
<path d="M47.8901 75.2173C45.9246 75.2173 44.2047 74.2293 42.8943 72.5003C41.6658 70.8537 40.9287 68.6307 40.9287 66.0784C40.9287 64.5141 41.3382 63.3614 41.7477 61.8794C42.1572 60.5621 42.6486 59.0801 42.8943 56.7748C42.9762 56.4455 43.2219 56.2808 43.4676 56.3632C43.5495 56.3632 43.5495 56.3632 43.6314 56.3632C44.2866 56.6925 44.9418 56.9395 45.6789 57.0218C46.3341 57.1865 47.0711 57.2688 47.8082 57.2688C48.5453 57.2688 49.2824 57.1865 49.9376 57.0218C50.6747 56.9395 51.3299 56.6925 51.9851 56.3632C52.2308 56.2808 52.4765 56.3631 52.6403 56.6101C52.6403 56.6101 52.6403 56.6925 52.6403 56.7748C52.9679 58.9978 53.4593 60.4798 53.8688 61.8794C54.2783 63.2791 54.6059 64.4317 54.6059 66.0784C54.6059 68.5484 53.8688 70.8537 52.6403 72.5003C51.4937 74.2293 49.7738 75.2173 47.8901 75.2173ZM43.7133 71.8417C44.778 73.2413 46.1703 74.147 47.8901 74.147C49.4462 74.147 50.9204 73.2413 51.9851 71.8417C53.0498 70.3597 53.705 68.3014 53.705 65.9961C53.705 64.5964 53.3774 63.5261 52.9679 62.2088C52.6403 60.9738 52.1489 59.5741 51.9032 57.5158C51.3299 57.7628 50.7566 57.9275 50.2652 58.0098C49.4462 58.1745 48.7091 58.2568 47.8901 58.2568C47.0711 58.2568 46.2522 58.1745 45.5151 58.0098C44.9418 57.9275 44.3685 57.7628 43.8771 57.5158C43.5495 59.4918 43.14 60.8914 42.7305 62.2088C42.321 63.5261 41.9934 64.5964 41.9934 65.9961C41.9115 68.3014 42.5667 70.3597 43.7133 71.8417Z" fill="#231F20"/>
<path d="M23.8113 61.2209C22.8286 59.5743 22.9105 57.5159 23.7294 55.54C24.5484 53.6463 26.1045 51.9173 28.3158 50.6C29.6262 49.7767 30.7728 49.5297 32.3289 49.2004C33.6392 48.9534 35.1953 48.5417 37.3247 47.7184C37.5704 47.636 37.898 47.7184 37.9799 47.9654C37.9799 48.0477 37.9799 48.0477 37.9799 48.13C38.0618 48.871 38.2256 49.5297 38.4713 50.2707C38.6351 50.9293 38.9627 51.588 39.2903 52.2467C39.6998 52.9053 40.1093 53.4816 40.6007 53.9756C41.0921 54.552 41.5835 55.046 42.1568 55.4576C42.4024 55.54 42.4843 55.8693 42.3206 56.1163L42.2387 56.1986C40.4369 57.5983 39.3722 58.7509 38.4713 59.7389C37.4885 60.8092 36.6695 61.7149 35.2772 62.5382C33.1478 63.7732 30.7728 64.1849 28.7253 64.0202C26.514 63.9379 24.7941 62.9499 23.8113 61.2209ZM24.6303 55.9516C23.8932 57.5983 23.8932 59.3273 24.6303 60.7269C25.4493 62.1266 26.9235 62.9499 28.8072 63.1969C30.609 63.3616 32.7384 62.9499 34.7039 61.7972C35.9324 61.1386 36.6695 60.3152 37.6523 59.2449C38.4713 58.3393 39.4541 57.2689 41.0102 56.034C40.6007 55.6223 40.1912 55.2106 39.7817 54.799C39.2084 54.2226 38.7989 53.564 38.3894 52.9053C37.9799 52.1643 37.6523 51.4233 37.4066 50.6823C37.2428 50.1883 37.079 49.612 36.9971 49.0357C35.1953 49.7767 33.7211 50.106 32.4108 50.353C31.1004 50.6823 29.9538 50.9293 28.8072 51.588C26.7597 52.6583 25.3674 54.2226 24.6303 55.9516Z" fill="#231F20"/>
<path d="M23.8112 33.3924C24.794 31.6634 26.5139 30.6754 28.6433 30.4284C30.6907 30.2637 33.0658 30.6754 35.1952 31.9104L35.2771 31.9927C36.5875 32.7337 37.4065 33.6394 38.3893 34.7097C39.2901 35.6977 40.3548 36.8503 42.1566 38.25C42.3204 38.4146 42.4023 38.744 42.2385 38.9086C42.1566 38.991 42.1566 38.991 42.0747 39.0733C41.5014 39.485 41.01 39.8966 40.5186 40.473C40.0272 40.967 39.6177 41.5433 39.2082 42.2019C38.8806 42.8606 38.5531 43.5193 38.3893 44.1779L38.3074 44.2603C38.1436 44.9189 37.9798 45.5776 37.8979 46.3186C37.8979 46.5656 37.6522 46.8126 37.4065 46.7302C37.3246 46.7302 37.2427 46.7302 37.2427 46.7302C35.1952 45.8246 33.6391 45.4952 32.2468 45.2482C30.7726 44.9189 29.626 44.5896 28.2338 43.8486C26.1044 42.6136 24.5483 40.8846 23.6474 38.9086C22.9103 37.015 22.8284 35.039 23.8112 33.3924ZM28.7252 31.3341C26.9234 31.5811 25.4492 32.4044 24.5483 33.804C23.8112 35.1213 23.8112 36.8503 24.5483 38.5793C25.2854 40.3083 26.6777 41.8726 28.7252 43.1076C29.8717 43.7663 31.0183 44.0133 32.3287 44.3426C33.5572 44.5896 35.0314 44.9189 36.9151 45.6599C36.997 45.0836 37.1608 44.5896 37.3246 44.0133C37.5703 43.2723 37.8979 42.5313 38.3074 41.7903C38.7169 41.1316 39.1263 40.473 39.6996 39.8966C40.1091 39.485 40.5186 39.0733 40.9281 38.6616C39.372 37.4267 38.3893 36.3563 37.5703 35.4507C36.5875 34.3804 35.8504 33.557 34.7038 32.8984H34.6219C32.7382 31.5811 30.6088 31.1694 28.7252 31.3341Z" fill="#231F20"/>
<path d="M47.8895 36.2742C50.8379 36.2742 53.7044 37.5092 55.6699 39.4851C57.6355 41.4611 58.864 44.2604 58.864 47.2244C58.864 50.2707 57.6355 53.07 55.6699 55.046C53.7044 57.022 50.8379 58.257 47.8895 58.257C44.8593 58.257 42.0747 57.022 40.1091 55.046C38.1435 53.07 36.915 50.2707 36.915 47.2244C36.915 44.2604 38.1435 41.4611 40.1091 39.4851C42.0747 37.5092 44.7774 36.2742 47.8895 36.2742ZM54.9329 40.1438C53.1311 38.3325 50.5922 37.2622 47.8895 37.2622C45.105 37.2622 42.5661 38.3325 40.7643 40.1438C38.9625 41.9551 37.8978 44.5074 37.8978 47.2244C37.8978 50.0237 38.9625 52.576 40.7643 54.3873C42.5661 56.1986 45.105 57.269 47.8895 57.269C50.5922 57.269 53.1311 56.1986 54.9329 54.3873C56.7346 52.576 57.8812 50.0237 57.8812 47.2244C57.8812 44.5074 56.7346 42.0374 54.9329 40.1438Z" fill="#231F20"/>
<path d="M47.2346 40.3908C46.9889 40.3908 46.7432 40.2262 46.7432 39.8968C46.7432 39.6498 46.9889 39.4028 47.2346 39.4028C49.5277 39.4028 51.6571 40.3908 53.1313 41.8728C54.6874 43.3548 55.5883 45.4954 55.5883 47.8831C55.5883 48.1301 55.3426 48.3771 55.0969 48.3771C54.8512 48.3771 54.6055 48.1301 54.6055 47.8831C54.6055 45.8248 53.7865 44.0135 52.4761 42.6138C51.0838 41.2141 49.2001 40.3908 47.2346 40.3908Z" fill="#231F20"/>
<path fill-rule="evenodd" clip-rule="evenodd" d="M47.9996 0.721333C22.1873 0.721333 1.26231 21.6759 1.26231 47.5248C1.26231 73.3736 22.1873 94.3282 47.9996 94.3282C73.8119 94.3282 94.7369 73.3736 94.7369 47.5248C94.7369 21.6759 73.8119 0.721333 47.9996 0.721333ZM0.541992 47.5248C0.541992 21.2776 21.7895 0 47.9996 0C74.2098 0 95.4573 21.2776 95.4573 47.5248C95.4573 73.772 74.2098 95.0495 47.9996 95.0495C21.7895 95.0495 0.541992 73.772 0.541992 47.5248Z" fill="#231F20"/>
</svg>
