<svg width="120" height="123" viewBox="0 0 120 123" fill="none" xmlns="http://www.w3.org/2000/svg">
<circle cx="60" cy="61" r="51" fill="#DFEDE3"/>
<path d="M60.3816 99.5397C59.6205 102.961 58.8593 106.382 57.946 109.648C57.946 109.803 57.6416 109.959 57.6416 110.114C57.6416 110.114 57.6416 110.114 57.7938 110.114C57.7938 110.581 57.7938 111.047 57.6416 111.514C56.4238 114.624 55.0537 117.579 53.8359 120.689C53.8359 120.844 53.5315 120.844 53.3792 121C53.3792 120.533 53.5315 120.222 53.5315 119.756C53.3792 119.911 53.227 120.067 53.0748 120.222H52.9226C52.7703 120.222 52.7703 120.222 52.6181 120.067C53.6837 117.579 54.597 115.091 55.6626 112.602C56.576 110.27 57.4893 107.782 58.2505 105.449C58.7071 104.05 58.8594 102.339 59.3161 100.939C59.6205 99.5397 59.316 98.2956 58.7071 97.0516C57.0326 93.7859 55.5104 90.3647 53.8359 87.099C53.6837 86.788 53.6837 86.6325 53.5315 86.3215C56.1193 89.8982 58.0982 93.7859 59.6205 97.8291C59.6205 97.0516 59.7727 96.274 59.7727 95.4965C59.6205 90.8312 59.1638 86.3215 58.2505 81.6562C57.1849 76.9909 56.2715 72.3256 55.3582 67.5049C54.7493 64.0837 54.2926 60.507 53.6837 57.0858C53.6837 56.7748 53.5315 56.4637 53.3792 55.9972C53.3792 55.8417 53.5315 55.6862 53.5315 55.6862C53.3792 53.6646 53.227 51.4875 53.227 49.4659C53.227 46.5112 53.3792 43.401 53.5315 40.4463C53.6837 38.4247 52.7704 36.7141 52.3137 35.0035C51.7048 32.3598 50.7914 29.7162 50.0303 27.0725C49.8781 26.606 49.7259 26.1395 49.4214 25.673C48.2036 23.8069 46.6813 22.0962 45.6158 20.0746C44.2457 17.5865 43.4846 14.6318 43.6368 11.6771C43.6368 10.7441 43.6368 9.81106 43.789 8.87801C43.789 8.56699 44.0935 8.25596 44.3979 7.94494C44.7024 8.10045 45.1591 8.25595 45.3113 8.56697C48.0514 13.0767 49.8781 17.742 49.8781 23.1848C49.8781 23.8068 49.8781 24.4289 49.8781 25.0509C49.7258 24.8954 49.4214 24.7399 49.2692 24.5844C49.4214 24.5844 49.5736 24.4289 49.5736 24.4289C49.4214 19.6081 48.3558 14.9428 46.0724 10.7441C45.6157 9.96654 45.0068 9.189 44.5502 8.56697C44.5502 8.56697 44.7024 8.56696 44.7024 8.41145C44.7024 8.41145 44.5502 8.41146 44.5502 8.56697C44.3979 9.34451 44.2457 10.122 44.2457 10.7441C44.2457 13.5432 44.5501 16.1869 45.768 18.6751C46.8335 20.6967 48.2036 22.7183 49.4214 24.5844C49.5736 24.7399 49.8781 24.8954 50.0303 25.0509C51.2481 29.0942 52.4659 33.1374 53.8359 37.1806C53.9882 37.1806 53.9881 37.1806 54.1404 37.1806C54.4448 35.6255 54.7493 33.915 55.2059 32.3599C55.8149 29.7162 56.576 27.228 57.3371 24.7399H57.4893C57.3371 25.6729 57.0327 26.4505 56.8804 27.5391C58.0982 26.606 59.1638 25.673 60.2294 24.8954C60.2294 25.0509 60.3816 25.2064 60.3816 25.2064H60.2294V25.362L60.3816 25.2064C60.5338 25.0509 60.5338 25.0509 60.6861 24.8954C60.5338 24.8954 60.3816 24.8954 60.2294 24.8954C60.8383 24.5844 61.5994 24.2734 62.2083 23.9623H62.0561C63.8828 22.0962 65.7095 19.7636 67.8406 18.2085C71.1896 15.7204 74.9952 14.6318 79.2576 15.0984C80.3231 15.2539 81.2365 15.7204 82.1499 16.1869C82.4543 16.3424 82.4543 16.6534 82.7588 16.9644C82.6065 17.12 82.3021 17.2755 82.1499 17.431C79.2576 18.6751 76.3653 19.7636 73.6252 21.1632C71.0374 22.4073 68.4495 23.4958 65.5573 23.9623C65.1006 24.1179 64.6439 23.9624 64.035 23.8069C67.9929 23.1848 71.4941 21.6297 74.9953 19.7636C76.822 18.8306 78.8009 18.053 80.7798 17.2755C81.0843 17.12 81.2365 17.12 81.5409 16.9644C81.3887 16.8089 81.0843 16.4979 80.932 16.3424C80.7798 16.1869 80.6276 16.1869 80.4754 16.1869C78.0398 15.5649 75.7564 15.7204 73.473 16.4979C69.5151 17.8975 65.8617 19.4526 64.1872 23.8069C63.4261 24.1179 62.5128 24.4289 61.7516 24.8954C60.2294 25.8285 58.8594 26.606 57.4893 27.8501C56.7282 28.4721 56.2715 29.5607 56.1193 30.4937C55.3582 34.6925 54.7493 38.7357 54.1404 42.9345C53.9881 43.712 53.9882 44.4896 53.9882 45.2671C56.2715 43.09 58.4027 40.9128 60.6861 38.7357C62.0561 37.4916 63.2739 35.9366 64.6439 34.6925C66.1662 33.2929 67.8407 32.0488 69.6674 30.9603C71.4941 29.8717 73.3208 28.9387 75.2997 28.1611C77.5831 27.2281 80.1709 27.5391 82.4543 28.3166C82.6065 28.3166 82.7588 28.6276 82.7588 28.7831C82.7588 28.9386 82.4543 29.0942 82.3021 29.2497C79.7142 30.0272 77.4309 31.5823 75.2997 33.1374C73.6252 34.3815 72.103 35.781 70.4285 37.1806C67.6884 39.3577 64.9484 41.6904 61.4472 42.468C61.1427 42.6235 60.686 42.4679 60.2294 42.6234V42.468C60.5338 42.3125 60.8383 42.1569 61.1427 42.1569C63.4261 41.8459 65.1006 40.4463 66.9273 39.2023C68.9063 37.6472 70.8852 35.9366 72.8641 34.3815C75.4519 32.5154 77.8875 30.3383 80.932 29.2497C81.0843 29.2497 81.0843 29.0942 81.2365 28.9387C81.0843 28.9387 81.0843 28.7831 80.932 28.7831C79.7142 28.7831 78.4964 28.4721 77.2786 28.6276C74.0819 29.0941 71.3418 30.6492 68.9062 32.5153C65.5573 35.159 62.3605 38.1137 59.6205 41.3794C59.4683 41.6904 59.3161 42.0014 59.3161 42.3124C58.8594 42.3124 58.4027 42.1569 58.0982 42.468C57.4893 42.9345 56.8804 43.5565 56.2715 44.023C53.9882 45.7336 53.9881 48.0663 54.2926 50.5544C54.7493 54.7531 55.2059 58.9519 55.6626 62.9951C55.9671 64.8612 56.4238 66.8829 56.7282 68.749C56.7282 68.9045 56.8804 68.9044 56.8804 69.06C57.1849 71.2371 57.6415 73.2587 58.0982 75.4358C58.7071 78.857 59.6205 82.4338 60.0772 85.855C60.5339 88.8096 60.686 91.9198 60.9905 95.03C61.1427 96.4296 60.9905 97.9846 60.9905 99.3842C60.5338 99.3842 60.5338 99.3842 60.3816 99.5397ZM54.9015 117.112C54.9015 117.268 54.7493 117.268 54.7493 117.423C54.7493 117.579 54.9015 117.734 54.9015 117.89C54.7493 118.045 54.4448 118.045 54.2926 118.201C54.2926 118.512 54.1404 118.667 54.1404 118.823C54.1404 118.667 54.1404 118.356 54.2926 118.201C54.4448 118.045 54.7493 118.045 54.9015 117.89C54.9015 117.734 54.7493 117.579 54.7493 117.423C54.7493 117.423 54.7493 117.268 54.9015 117.112C54.9015 116.957 54.9015 116.801 54.9015 116.801C55.0537 116.646 55.206 116.49 55.3582 116.49C55.3582 116.335 55.3582 116.024 55.5104 115.868C55.5104 115.713 55.6626 115.557 55.6626 115.557C55.8148 115.402 55.9671 115.091 56.1193 114.935C56.1193 114.935 56.1193 114.78 55.9671 114.78C55.8149 115.091 55.8148 115.402 55.6626 115.557C55.6626 115.713 55.5104 115.868 55.5104 115.868C55.5104 116.024 55.5104 116.335 55.3582 116.49C55.206 116.646 55.0537 116.801 54.9015 116.801C54.9015 116.957 54.9015 117.112 54.9015 117.112ZM61.1427 25.2064C61.1427 25.0509 61.295 25.0509 61.295 25.0509C61.1427 25.0509 61.1427 25.0509 60.9905 25.0509L60.8383 25.2064C60.9905 25.2064 61.1427 25.2064 61.1427 25.2064ZM56.4237 113.847C56.2715 113.847 56.2715 113.847 56.1193 114.002C56.2715 114.002 56.2715 114.002 56.4237 113.847Z" fill="#231F20"/>
<path d="M61.5994 97.6737C62.2083 96.7406 62.665 95.8075 63.4261 94.8745C63.8828 94.4079 64.035 93.9414 64.035 93.1638C64.035 92.5418 64.4917 91.9198 64.9483 91.4533C66.3184 89.8982 67.9929 88.9651 69.8196 88.1876C72.2552 87.099 74.3864 85.6995 76.822 84.4554C79.562 83.0558 82.3021 81.6562 85.4988 81.8117C86.4121 81.8117 87.3255 81.8117 88.2389 81.8117C88.8478 81.9672 88.8478 82.4338 88.2389 82.7448C84.8899 84.6109 82.4543 87.7211 79.562 89.8982C77.1264 91.7643 74.5386 93.3194 71.3418 93.7859C69.2107 94.0969 67.2317 94.2525 65.1006 94.5635C64.4917 94.719 63.8828 95.1855 63.4261 95.652C62.665 96.1185 62.2083 96.8961 61.5994 97.6737ZM66.4706 93.6304C67.5362 93.4749 68.6018 93.3194 69.6673 93.1638C74.2341 92.8528 77.7353 90.3647 80.932 87.5656C83.0632 85.6995 84.8899 83.5223 87.6299 81.8117C86.4121 81.9672 85.4988 81.9672 84.5854 82.1227C82.4543 82.4338 80.3231 82.9003 78.3442 83.9888C75.2997 85.6994 72.103 87.2545 69.0585 88.9651C67.5362 89.7427 65.8617 90.6757 64.7961 92.2308C64.6439 92.5419 64.4917 93.0084 64.4917 93.3194C64.7961 93.3194 65.1006 93.3194 65.4051 93.4749C65.7095 93.6304 66.1662 93.6304 66.4706 93.6304C66.3184 93.7859 66.4706 93.7859 66.4706 93.6304Z" fill="#231F20"/>
<path d="M63.4261 78.546C65.2528 73.8808 67.6884 69.682 71.9507 66.7273C76.0608 63.9282 80.6276 62.2176 85.1944 60.507C86.1077 60.196 87.021 59.7295 87.9344 59.4184C88.2389 59.2629 88.5433 59.4184 89 59.4184C89 59.7295 89 60.196 88.8478 60.507C87.63 62.0621 86.5644 63.7727 85.0421 65.1722C82.1498 67.6604 79.2575 69.8376 76.213 72.0147C74.843 72.9477 73.1685 73.5698 71.4941 74.3473C69.9718 75.1249 68.4496 75.7469 66.9273 76.5244L66.7751 76.68C64.9484 76.3689 64.1872 77.4575 63.4261 78.546ZM73.7775 72.6367C76.3653 70.7706 79.1053 69.2155 81.5409 67.1939C83.3676 65.7943 84.8899 64.0837 86.4121 62.3731C86.8688 61.9066 87.1733 61.129 87.6299 60.507C86.8688 60.6625 86.2599 60.9735 85.4988 61.1291C80.0187 62.6841 74.843 64.8612 70.4285 68.438C68.1451 70.3041 66.3184 72.6367 65.1006 75.2803C64.9484 75.4358 65.1006 75.7469 64.9483 76.0579C65.1006 76.0579 65.405 76.0579 65.5572 75.9024C68.4495 74.9694 71.0374 73.7253 73.7775 72.6367Z" fill="#231F20"/>
<path d="M51.0958 76.2134C51.7047 79.0125 52.4659 81.6562 53.0748 84.4554C53.227 85.2329 53.227 85.544 52.1614 85.2329C49.7258 84.6109 48.0513 83.0558 46.6813 81.0342C45.0068 78.3905 43.3323 75.7468 42.1145 72.9477C40.2878 68.9044 38.6134 64.7057 37.7 60.3515C37.5478 60.0405 37.7 59.5739 37.8522 59.1074C38.1567 59.2629 38.6134 59.4184 38.7656 59.7294C42.419 64.5502 46.0724 69.371 49.5736 74.3473C50.0303 74.9693 50.3347 75.7469 50.6392 76.3689C50.9436 76.2134 50.9436 76.2134 51.0958 76.2134ZM52.7703 84.7664C52.3136 82.7448 51.857 80.8787 51.2481 79.0126C50.1825 75.9024 48.3558 73.2587 46.5291 70.6151C44.8546 68.2824 43.1801 66.1053 41.5056 63.9282C40.4401 62.5286 39.3745 61.2845 38.3089 59.8849C38.7656 62.2176 39.5267 64.3947 40.2879 66.5719C41.9623 71.3926 43.9413 76.0579 46.9858 80.2566C48.3558 82.4338 50.0303 84.4554 52.7703 84.7664Z" fill="#231F20"/>
<path d="M62.5127 57.2413C62.665 53.5091 64.4917 50.7099 67.0795 48.5328C70.2762 45.8892 73.6252 43.401 76.9741 40.9129C78.6486 39.6688 80.4753 38.5802 82.302 37.3362C82.4543 37.1806 82.911 37.3362 82.911 37.3362C82.911 37.6472 83.0632 38.1137 83.0632 38.4247C82.6065 39.6688 81.9976 40.7573 81.3887 41.8459C80.0187 44.023 78.6486 46.0446 76.9741 48.0663C74.9952 50.3989 72.7119 52.4205 69.9718 53.8201C67.9929 54.7532 66.0139 55.5307 64.035 56.4638C63.5783 56.6193 63.1216 56.9303 62.5127 57.2413ZM69.5151 53.1981C70.7329 52.265 72.2552 51.1765 73.7775 50.0879C75.9086 48.5328 77.4309 46.3557 78.9531 44.1785C80.0187 42.6234 80.7798 41.0684 81.6931 39.5133C81.8454 39.2022 81.8454 38.7358 81.9976 38.4247C81.6932 38.5802 81.3887 38.5802 81.0843 38.7357C79.2575 39.9798 77.4308 41.2239 75.6041 42.6234C71.6463 45.4226 67.384 48.0663 64.4917 52.265C63.8828 53.0426 63.5783 53.9756 63.2739 54.9087C62.9694 55.5307 63.1216 55.9972 64.035 55.5307C65.7095 54.7532 67.384 54.1311 69.5151 53.1981Z" fill="#231F20"/>
<path d="M53.3792 56.1527C52.6181 54.9087 51.857 53.6646 50.9436 52.4205C50.3347 51.643 49.5736 51.0209 48.8125 50.3989C48.6602 50.2434 48.3558 50.2434 48.2036 50.2434C47.2902 50.2434 46.2246 50.3989 45.3113 50.0879C43.0279 49.3104 40.8968 48.0663 39.3745 46.2002C37.3956 43.8675 35.7211 41.5349 33.8944 39.0468C33.1333 37.9582 32.6766 36.7141 32.0677 35.6255C31.9154 35.3145 32.0677 35.0035 32.0677 34.6925C32.3721 34.6925 32.8288 34.537 32.981 34.6925C37.2433 37.8027 42.1145 39.9798 45.7679 44.0231C45.9202 44.1786 46.0724 44.4896 46.2247 44.8006C45.768 44.4896 45.3113 44.1786 44.8546 43.8675C42.2668 41.0684 39.07 39.3578 35.8733 37.3362C34.8077 36.5586 33.7422 35.9366 32.3721 35.3146C32.6766 36.0921 32.981 36.8696 33.4377 37.4917C35.5689 40.9129 37.7 44.4896 41.049 46.9777C42.8757 48.3773 44.7024 49.6214 46.9858 49.9324C47.2902 49.9324 47.7469 49.6213 48.0513 49.6213C48.508 49.6213 48.9647 49.9324 49.2692 50.0879C50.9436 51.1765 51.857 52.8871 52.7703 54.4421C53.0748 54.9087 53.227 55.3752 53.5315 55.8417C53.5315 55.9972 53.3792 56.1527 53.3792 56.1527Z" fill="#231F20"/>
<path d="M59.4682 14.9429C59.6205 12.4547 60.6861 10.2776 62.0561 8.25599C64.035 5.45683 66.4706 3.12417 69.3629 1.56908C69.9718 1.25806 71.0374 0.791553 71.4941 1.10257C72.4074 1.72461 71.4941 2.50212 71.1896 2.96865C69.8196 5.76781 68.6018 8.72251 66.7751 11.2107C64.9484 13.5433 62.3605 15.4094 60.2294 17.431C59.9249 17.742 59.6205 18.053 59.316 18.5196C59.0116 17.5865 58.8594 16.6535 59.316 15.7204H59.4682C59.4682 16.1869 59.6205 16.6535 59.6205 17.12C59.7727 16.9645 60.0771 16.6535 60.2294 16.498C62.8172 14.6318 65.4051 12.7657 66.9273 9.96655C68.2973 7.47841 69.5152 4.99029 70.733 2.50214C70.8852 2.19112 70.8852 1.8801 71.0374 1.56908C70.7329 1.56908 70.2763 1.56909 69.9718 1.7246C68.754 2.50214 67.384 3.2797 66.3184 4.21275C63.2739 6.8564 60.9905 9.96656 59.9249 14.0098C59.7727 14.3208 59.6205 14.6318 59.4682 14.9429Z" fill="#231F20"/>
<path d="M57.0327 25.2064C57.1849 24.4289 57.3371 23.6514 57.6416 22.8738C58.0982 21.3187 57.6415 20.3856 56.4237 19.2971C53.6837 16.9644 51.5525 14.1653 51.2481 10.4331C51.0958 9.18902 51.2481 7.94495 51.2481 6.54537C51.2481 6.07884 51.7047 5.7678 51.857 5.30127C52.1614 5.61229 52.4659 5.76781 52.7703 6.23433C53.6837 7.47841 54.4448 8.87799 55.3582 10.1221C57.0327 12.4547 57.3371 15.2539 57.4893 18.053C57.4893 18.9861 57.7938 19.7636 58.0982 20.6967C58.0982 20.6967 58.5549 20.6967 58.5549 20.5412C58.8594 20.0747 59.0116 19.6081 59.1638 19.1416C58.7071 20.8522 58.2505 22.4073 57.7938 24.1179C57.4893 24.5844 57.3371 24.8954 57.0327 25.2064C57.1849 25.2064 57.1849 25.2064 57.0327 25.2064ZM55.5104 11.5216C54.4448 9.96654 53.5315 8.41145 52.4659 6.85636C52.3137 6.70085 52.1614 6.70088 52.0092 6.54537C52.0092 6.70088 51.857 6.85637 51.857 7.01188C51.5525 9.0335 51.7048 11.0551 52.4659 12.9212C53.3793 15.2539 54.9015 17.12 56.576 18.8306C56.576 18.8306 56.7282 18.9861 56.8804 18.9861C56.8804 18.8306 57.0327 18.675 57.0327 18.5195C56.8804 16.0314 57.0327 13.6988 55.5104 11.5216Z" fill="#231F20"/>
<path d="M56.7282 68.749C56.7282 68.2824 56.576 67.6604 56.7282 67.1939C58.2505 63.6172 60.0771 60.196 62.5127 57.2413C60.9905 59.885 59.4682 62.6841 57.946 65.3278C57.4893 66.4163 57.1849 67.6604 56.7282 68.749Z" fill="#231F20"/>
<path d="M46.0724 45.1116C46.6813 45.7336 47.2902 46.3557 47.7469 46.9777C48.508 47.9108 49.1169 48.8438 49.878 49.7769C49.7258 49.9324 49.7258 49.9324 49.5736 50.0879C49.2691 49.7769 48.9647 49.6214 48.8124 49.3103C48.0513 48.2218 47.138 47.1332 46.3769 46.0446C46.2246 45.7336 46.2246 45.4226 46.0724 45.1116Z" fill="#231F20"/>
<path d="M62.5127 80.1011C61.7516 81.5007 60.9905 83.0558 60.2293 84.4554C60.0771 84.4554 59.9249 84.2999 59.9249 84.2999C60.6861 82.9003 61.5994 81.5007 62.5127 80.1011Z" fill="#231F20"/>
<path d="M63.2739 78.546C62.9694 79.0125 62.665 79.6346 62.5127 80.1011H62.3605C62.665 79.6346 63.1216 79.1681 63.2739 78.546Z" fill="#231F20"/>
<path d="M61.5994 97.5181C61.295 97.8291 60.9905 98.2956 60.6861 98.6067C60.9905 98.2956 61.295 97.9847 61.5994 97.5181Z" fill="#231F20"/>
<path d="M59.9249 42.6234C59.4683 42.4679 59.1638 42.4679 58.8593 42.3124C59.1638 42.4679 59.6205 42.4679 59.9249 42.6234Z" fill="#231F20"/>
<path d="M53.0748 120.533C52.9226 120.689 52.7703 120.844 52.6181 120.844C52.6181 120.689 52.6181 120.533 52.6181 120.378C52.7703 120.378 52.7703 120.378 52.9225 120.533H53.0748Z" fill="#231F20"/>
<path d="M59.316 15.7204C59.316 15.4094 59.4682 15.0983 59.4682 14.7873C59.4682 15.2539 59.4683 15.5649 59.316 15.7204Z" fill="#231F20"/>
<path d="M60.6861 98.6067C60.6861 98.9177 60.6861 99.0732 60.6861 99.3842C60.6861 99.2287 60.5338 99.2287 60.5338 99.0732C60.5338 99.0732 60.6861 98.9177 60.6861 98.6067Z" fill="#231F20"/>
<path d="M60.6861 99.3842L60.5338 99.5397C60.5338 99.5397 60.5338 99.5397 60.6861 99.3842Z" fill="#231F20"/>
<path d="M56.5759 68.749C56.4237 68.9045 56.4237 68.9044 56.2715 69.06C56.2715 68.9044 56.1193 68.9045 56.1193 68.749C56.4237 68.749 56.5759 68.749 56.5759 68.749Z" fill="#231F20"/>
<path d="M53.3792 56.3083C53.3792 56.1527 53.227 56.1527 53.227 55.9972C53.3792 56.1527 53.3792 56.3083 53.3792 56.3083Z" fill="#231F20"/>
<path d="M59.0116 18.8306C59.0116 18.9861 59.0116 19.1416 59.0116 19.1416C59.1638 19.1416 59.1638 18.9861 59.0116 18.8306Z" fill="#231F20"/>
<path d="M59.1638 18.8306C59.1638 18.6751 59.316 18.6751 59.316 18.5196C59.1638 18.6751 59.1638 18.6751 59.1638 18.8306Z" fill="#231F20"/>
<path d="M44.5502 8.56697C45.0068 9.189 45.6157 9.96654 46.0724 10.7441C48.3558 14.9428 49.4214 19.6081 49.5736 24.4289C49.5736 24.4289 49.4214 24.5844 49.2692 24.5844C49.4214 24.7399 49.7258 24.8954 49.8781 25.0509C49.8781 24.4289 49.8781 23.8068 49.8781 23.1848C49.8781 17.742 48.0514 13.0767 45.3113 8.56697C45.1591 8.25595 44.7024 8.10045 44.3979 7.94494C44.0935 8.25596 43.789 8.56699 43.789 8.87801C43.6368 9.81106 43.6368 10.7441 43.6368 11.6771C43.4846 14.6318 44.2457 17.5865 45.6158 20.0746C46.6813 22.0962 48.2036 23.8069 49.4214 25.673C49.7259 26.1395 49.8781 26.606 50.0303 27.0725C50.7914 29.7162 51.7048 32.3598 52.3137 35.0035C52.7704 36.7141 53.6837 38.4247 53.5315 40.4463C53.3792 43.401 53.227 46.5112 53.227 49.4659C53.227 51.4875 53.3792 53.6646 53.5315 55.6862C53.5315 55.6862 53.3792 55.8417 53.3792 55.9972C53.5315 56.4637 53.6837 56.7748 53.6837 57.0858C54.2926 60.507 54.7493 64.0837 55.3582 67.5049C56.2715 72.3256 57.1849 76.9909 58.2505 81.6562C59.1638 86.3215 59.6205 90.8312 59.7727 95.4965C59.7727 96.274 59.6205 97.0516 59.6205 97.8291C58.0982 93.7859 56.1193 89.8982 53.5315 86.3215C53.6837 86.6325 53.6837 86.788 53.8359 87.099C55.5104 90.3647 57.0326 93.7859 58.7071 97.0516C59.316 98.2956 59.6205 99.5397 59.3161 100.939C58.8594 102.339 58.7071 104.05 58.2505 105.449C57.4893 107.782 56.576 110.27 55.6626 112.602C54.597 115.091 53.6837 117.579 52.6181 120.067C52.7703 120.222 52.7703 120.222 52.9226 120.222H53.0748C53.227 120.067 53.3792 119.911 53.5315 119.756C53.5315 120.222 53.3792 120.533 53.3792 121C53.5315 120.844 53.8359 120.844 53.8359 120.689C55.0537 117.579 56.4238 114.624 57.6416 111.514C57.7938 111.047 57.7938 110.581 57.7938 110.114C57.6416 110.114 57.6416 110.114 57.6416 110.114C57.6416 109.959 57.946 109.803 57.946 109.648C58.8593 106.382 59.6205 102.961 60.3816 99.5397C60.5338 99.3842 60.5338 99.3842 60.9905 99.3842C60.9905 97.9846 61.1427 96.4296 60.9905 95.03C60.686 91.9198 60.5339 88.8096 60.0772 85.855C59.6205 82.4338 58.7071 78.857 58.0982 75.4358C57.6415 73.2587 57.1849 71.2371 56.8804 69.06C56.8804 68.9044 56.7282 68.9045 56.7282 68.749M44.5502 8.56697C44.5502 8.56697 44.7024 8.56696 44.7024 8.41145C44.7024 8.41145 44.5502 8.41146 44.5502 8.56697ZM44.5502 8.56697C44.3979 9.34451 44.2457 10.122 44.2457 10.7441C44.2457 13.5432 44.5501 16.1869 45.768 18.6751C46.8335 20.6967 48.2036 22.7183 49.4214 24.5844C49.5736 24.7399 49.8781 24.8954 50.0303 25.0509C51.2481 29.0942 52.4659 33.1374 53.8359 37.1806C53.9882 37.1806 53.9881 37.1806 54.1404 37.1806C54.4448 35.6255 54.7493 33.915 55.2059 32.3599C55.8149 29.7162 56.576 27.228 57.3371 24.7399H57.4893C57.3371 25.6729 57.0327 26.4505 56.8804 27.5391C58.0982 26.606 59.1638 25.673 60.2294 24.8954M60.2294 24.8954C60.2294 25.0509 60.3816 25.2065 60.3816 25.2065M60.2294 24.8954C60.3816 24.8954 60.5338 24.8954 60.6861 24.8954C60.5338 25.0509 60.5338 25.0509 60.3816 25.2065M60.2294 24.8954C60.8383 24.5844 61.5994 24.2734 62.2083 23.9623H62.0561C63.8828 22.0962 65.7095 19.7636 67.8406 18.2085C71.1896 15.7204 74.9952 14.6318 79.2576 15.0984C80.3231 15.2539 81.2365 15.7204 82.1499 16.1869C82.4543 16.3424 82.4543 16.6534 82.7588 16.9644C82.6065 17.12 82.3021 17.2755 82.1499 17.431C79.2576 18.6751 76.3653 19.7636 73.6252 21.1632C71.0374 22.4073 68.4495 23.4958 65.5573 23.9623C65.1006 24.1179 64.6439 23.9624 64.035 23.8069C67.9929 23.1848 71.4941 21.6297 74.9953 19.7636C76.822 18.8306 78.8009 18.053 80.7798 17.2755C81.0843 17.12 81.2365 17.12 81.5409 16.9644C81.3887 16.8089 81.0843 16.4979 80.932 16.3424C80.7798 16.1869 80.6276 16.1869 80.4754 16.1869C78.0398 15.5649 75.7564 15.7204 73.473 16.4979C69.5151 17.8975 65.8617 19.4526 64.1872 23.8069C63.4261 24.1179 62.5128 24.4289 61.7516 24.8954C60.2294 25.8285 58.8594 26.606 57.4893 27.8501C56.7282 28.4721 56.2715 29.5607 56.1193 30.4937C55.3582 34.6925 54.7493 38.7357 54.1404 42.9345C53.9881 43.712 53.9882 44.4896 53.9882 45.2671C56.2715 43.09 58.4027 40.9128 60.6861 38.7357C62.0561 37.4916 63.2739 35.9366 64.6439 34.6925C66.1662 33.2929 67.8407 32.0488 69.6674 30.9603C71.4941 29.8717 73.3208 28.9387 75.2997 28.1611C77.5831 27.2281 80.1709 27.5391 82.4543 28.3166C82.6065 28.3166 82.7588 28.6276 82.7588 28.7831C82.7588 28.9386 82.4543 29.0942 82.3021 29.2497C79.7142 30.0272 77.4309 31.5823 75.2997 33.1374C73.6252 34.3815 72.103 35.781 70.4285 37.1806C67.6884 39.3577 64.9484 41.6904 61.4472 42.468C61.1428 42.6235 60.686 42.4679 60.2294 42.6234V42.468C60.5338 42.3124 60.8383 42.1569 61.1427 42.1569C63.4261 41.8459 65.1006 40.4463 66.9273 39.2023C68.9063 37.6472 70.8852 35.9366 72.8641 34.3815C75.4519 32.5154 77.8875 30.3383 80.932 29.2497C81.0843 29.2497 81.0843 29.0942 81.2365 28.9387C81.0843 28.9387 81.0843 28.7831 80.932 28.7831C79.7142 28.7831 78.4964 28.4721 77.2786 28.6276C74.0819 29.0941 71.3418 30.6492 68.9062 32.5153C65.5573 35.159 62.3605 38.1137 59.6205 41.3794C59.4683 41.6904 59.3161 42.0014 59.3161 42.3124C58.8594 42.3124 58.4027 42.1569 58.0982 42.468C57.4893 42.9345 56.8804 43.5565 56.2715 44.023C53.9882 45.7336 53.9881 48.0663 54.2926 50.5544C54.7493 54.7531 55.2059 58.9519 55.6626 62.9951C55.9671 64.8612 56.4238 66.8829 56.7282 68.749M60.3816 25.2065H60.2294V25.362L60.3816 25.2065ZM56.7282 68.749C56.7282 68.2824 56.576 67.6604 56.7282 67.1939C58.2505 63.6172 60.0771 60.196 62.5127 57.2413M56.7282 68.749C57.1849 67.6604 57.4893 66.4163 57.946 65.3278C59.4682 62.6841 60.9905 59.885 62.5127 57.2413M54.9015 117.112C54.9015 117.268 54.7493 117.268 54.7493 117.423M54.9015 117.112C54.7493 117.268 54.7493 117.423 54.7493 117.423M54.9015 117.112C54.9015 116.957 54.9015 116.801 54.9015 116.801M54.9015 117.112C54.9015 117.112 54.9015 116.957 54.9015 116.801M54.7493 117.423C54.7493 117.579 54.9015 117.734 54.9015 117.89C54.7493 118.045 54.4448 118.045 54.2926 118.201M54.2926 118.201C54.2926 118.512 54.1404 118.667 54.1404 118.823C54.1404 118.667 54.1404 118.356 54.2926 118.201ZM54.9015 116.801C55.0537 116.646 55.206 116.49 55.3582 116.49M54.9015 116.801C55.0537 116.801 55.206 116.646 55.3582 116.49M55.3582 116.49C55.3582 116.335 55.3582 116.024 55.5104 115.868M55.3582 116.49C55.5104 116.335 55.5104 116.024 55.5104 115.868M55.5104 115.868C55.5104 115.713 55.6626 115.557 55.6626 115.557M55.5104 115.868C55.5104 115.868 55.6626 115.713 55.6626 115.557M55.6626 115.557C55.8148 115.402 55.9671 115.091 56.1193 114.935C56.1193 114.935 56.1193 114.78 55.9671 114.78C55.8149 115.091 55.8148 115.402 55.6626 115.557ZM66.4706 93.6304C67.5362 93.4749 68.6018 93.3194 69.6673 93.1639C74.2341 92.8528 77.7353 90.3647 80.932 87.5656C83.0632 85.6995 84.8899 83.5223 87.6299 81.8117C86.4121 81.9672 85.4988 81.9672 84.5854 82.1228C82.4543 82.4338 80.3231 82.9003 78.3442 83.9888C75.2997 85.6994 72.103 87.2545 69.0585 88.9651C67.5362 89.7427 65.8617 90.6757 64.7961 92.2308C64.6439 92.5419 64.4917 93.0084 64.4917 93.3194C64.7961 93.3194 65.1006 93.3194 65.4051 93.4749C65.7095 93.6304 66.1662 93.6304 66.4706 93.6304ZM66.4706 93.6304C66.3184 93.7859 66.4706 93.7859 66.4706 93.6304ZM62.5127 57.2413C62.665 53.5091 64.4917 50.7099 67.0795 48.5328C70.2762 45.8892 73.6252 43.401 76.9741 40.9129C78.6486 39.6688 80.4753 38.5802 82.302 37.3362C82.4543 37.1806 82.911 37.3362 82.911 37.3362C82.911 37.6472 83.0632 38.1137 83.0632 38.4247C82.6065 39.6688 81.9976 40.7573 81.3887 41.8459C80.0187 44.023 78.6486 46.0446 76.9741 48.0663C74.9952 50.3989 72.7119 52.4205 69.9718 53.8201C67.9929 54.7532 66.0139 55.5307 64.035 56.4638C63.5783 56.6193 63.1216 56.9303 62.5127 57.2413ZM59.316 18.5195C59.6205 18.053 59.9249 17.742 60.2294 17.431C62.3605 15.4094 64.9484 13.5433 66.7751 11.2107C68.6018 8.72251 69.8196 5.76781 71.1896 2.96865C71.4941 2.50212 72.4074 1.72461 71.4941 1.10257C71.0374 0.791553 69.9718 1.25806 69.3629 1.56908C66.4706 3.12417 64.035 5.45683 62.0561 8.25599C60.6861 10.2776 59.6205 12.4547 59.4682 14.9429C59.6205 14.6318 59.7727 14.3208 59.9249 14.0098C60.9905 9.96656 63.2739 6.8564 66.3184 4.21275C67.384 3.2797 68.754 2.50214 69.9718 1.7246C70.2763 1.56909 70.7329 1.56908 71.0374 1.56908C70.8852 1.8801 70.8852 2.19112 70.733 2.50214C69.5152 4.99029 68.2973 7.47841 66.9273 9.96655C65.4051 12.7657 62.8172 14.6318 60.2294 16.498C60.0771 16.6535 59.7727 16.9645 59.6205 17.12C59.6205 16.6535 59.4682 16.1869 59.4682 15.7204H59.316M59.316 18.5195C59.0116 17.5865 58.8594 16.6535 59.316 15.7204M59.316 18.5195C59.316 18.6751 59.1638 18.6751 59.1638 18.8306C59.1638 18.6751 59.1638 18.6751 59.316 18.5195ZM59.316 15.7204C59.316 15.4094 59.4682 15.0983 59.4682 14.7873C59.4682 15.2539 59.4683 15.5649 59.316 15.7204ZM57.0327 25.2065C57.1849 24.4289 57.3371 23.6514 57.6416 22.8738C58.0982 21.3187 57.6415 20.3856 56.4237 19.2971C53.6837 16.9644 51.5525 14.1653 51.2481 10.4331C51.0958 9.18902 51.2481 7.94495 51.2481 6.54537C51.2481 6.07884 51.7047 5.7678 51.857 5.30127C52.1614 5.61229 52.4659 5.76781 52.7703 6.23433C53.6837 7.47841 54.4448 8.87799 55.3582 10.1221C57.0327 12.4547 57.3371 15.2539 57.4893 18.053C57.4893 18.9861 57.7938 19.7636 58.0982 20.6967C58.0982 20.6967 58.5549 20.6967 58.5549 20.5412C58.8594 20.0747 59.0116 19.6081 59.1638 19.1416C58.7071 20.8522 58.2505 22.4073 57.7938 24.1179C57.4893 24.5844 57.3371 24.8954 57.0327 25.2065ZM57.0327 25.2065C57.1849 25.2065 57.1849 25.2065 57.0327 25.2065ZM62.5127 80.1011C61.7516 81.5007 60.9905 83.0558 60.2293 84.4554C60.0771 84.4554 59.9249 84.2999 59.9249 84.2999C60.6861 82.9003 61.5994 81.5007 62.5127 80.1011ZM62.5127 80.1011C62.665 79.6346 62.9694 79.0125 63.2739 78.546C63.1216 79.1681 62.665 79.6346 62.3605 80.1011H62.5127ZM60.6861 98.6067C60.9905 98.2956 61.295 97.8292 61.5994 97.5181C61.295 97.9847 60.9905 98.2956 60.6861 98.6067ZM60.6861 98.6067C60.6861 98.9177 60.6861 99.0732 60.6861 99.3842M60.6861 98.6067C60.6861 98.9177 60.5338 99.0732 60.5338 99.0732C60.5338 99.2287 60.6861 99.2287 60.6861 99.3842M60.6861 99.3842L60.5338 99.5397C60.5338 99.5397 60.5338 99.5397 60.6861 99.3842ZM57.0327 111.825C57.0327 111.669 57.0327 111.669 57.0327 111.825ZM61.1427 25.2065C61.1427 25.0509 61.295 25.0509 61.295 25.0509C61.1427 25.0509 61.1427 25.0509 60.9905 25.0509L60.8383 25.2065C60.9905 25.2065 61.1427 25.2065 61.1427 25.2065ZM56.4237 113.847C56.2715 113.847 56.2715 113.847 56.1193 114.002C56.2715 114.002 56.2715 114.002 56.4237 113.847ZM61.5994 97.6737C62.2083 96.7406 62.665 95.8075 63.4261 94.8745C63.8828 94.4079 64.035 93.9414 64.035 93.1639C64.035 92.5418 64.4917 91.9198 64.9483 91.4533C66.3184 89.8982 67.9929 88.9651 69.8196 88.1876C72.2552 87.099 74.3864 85.6995 76.822 84.4554C79.562 83.0558 82.3021 81.6562 85.4988 81.8117C86.4121 81.8117 87.3255 81.8117 88.2389 81.8117C88.8478 81.9672 88.8478 82.4338 88.2389 82.7448C84.8899 84.6109 82.4543 87.7211 79.562 89.8982C77.1264 91.7643 74.5386 93.3194 71.3418 93.7859C69.2107 94.0969 67.2317 94.2525 65.1006 94.5635C64.4917 94.719 63.8828 95.1855 63.4261 95.652C62.665 96.1185 62.2083 96.8961 61.5994 97.6737ZM63.4261 78.546C65.2528 73.8808 67.6884 69.682 71.9507 66.7273C76.0608 63.9282 80.6276 62.2176 85.1944 60.507C86.1077 60.196 87.021 59.7295 87.9344 59.4184C88.2389 59.2629 88.5433 59.4184 89 59.4184C89 59.7295 89 60.196 88.8478 60.507C87.63 62.0621 86.5644 63.7727 85.0421 65.1723C82.1498 67.6604 79.2575 69.8376 76.213 72.0147C74.843 72.9477 73.1686 73.5698 71.4941 74.3473C69.9718 75.1249 68.4496 75.7469 66.9273 76.5244L66.7751 76.68C64.9484 76.3689 64.1872 77.4575 63.4261 78.546ZM73.7775 72.6367C76.3653 70.7706 79.1053 69.2155 81.5409 67.1939C83.3676 65.7943 84.8899 64.0837 86.4121 62.3731C86.8688 61.9066 87.1733 61.129 87.6299 60.507C86.8688 60.6625 86.2599 60.9735 85.4988 61.1291C80.0187 62.6841 74.843 64.8612 70.4285 68.4379C68.1451 70.3041 66.3184 72.6367 65.1006 75.2803C64.9484 75.4358 65.1006 75.7469 64.9483 76.0579C65.1006 76.0579 65.405 76.0579 65.5572 75.9024C68.4495 74.9694 71.0374 73.7253 73.7775 72.6367ZM51.0958 76.2134C51.7047 79.0125 52.4659 81.6562 53.0748 84.4554C53.227 85.2329 53.227 85.5439 52.1614 85.2329C49.7258 84.6109 48.0513 83.0558 46.6813 81.0342C45.0068 78.3905 43.3323 75.7468 42.1145 72.9477C40.2878 68.9044 38.6134 64.7057 37.7 60.3515C37.5478 60.0405 37.7 59.5739 37.8522 59.1074C38.1567 59.2629 38.6134 59.4184 38.7656 59.7294C42.419 64.5502 46.0724 69.371 49.5736 74.3473C50.0303 74.9693 50.3347 75.7469 50.6392 76.3689C50.9436 76.2134 50.9436 76.2134 51.0958 76.2134ZM52.7703 84.7664C52.3136 82.7448 51.857 80.8787 51.2481 79.0126C50.1825 75.9024 48.3558 73.2587 46.5291 70.615C44.8546 68.2824 43.1801 66.1053 41.5056 63.9282C40.4401 62.5286 39.3745 61.2845 38.3089 59.8849C38.7656 62.2176 39.5267 64.3947 40.2879 66.5719C41.9623 71.3926 43.9413 76.0579 46.9858 80.2566C48.3558 82.4338 50.0303 84.4554 52.7703 84.7664ZM69.5151 53.1981C70.7329 52.265 72.2552 51.1765 73.7775 50.0879C75.9086 48.5328 77.4309 46.3557 78.9531 44.1785C80.0187 42.6234 80.7798 41.0684 81.6931 39.5133C81.8454 39.2022 81.8454 38.7358 81.9976 38.4247C81.6932 38.5802 81.3887 38.5802 81.0843 38.7357C79.2575 39.9798 77.4308 41.2239 75.6041 42.6234C71.6463 45.4226 67.384 48.0663 64.4917 52.265C63.8828 53.0426 63.5783 53.9756 63.2739 54.9087C62.9694 55.5307 63.1216 55.9972 64.035 55.5307C65.7095 54.7532 67.384 54.1311 69.5151 53.1981ZM53.3792 56.1527C52.6181 54.9087 51.857 53.6646 50.9436 52.4205C50.3347 51.643 49.5736 51.0209 48.8125 50.3989C48.6602 50.2434 48.3558 50.2434 48.2036 50.2434C47.2902 50.2434 46.2246 50.3989 45.3113 50.0879C43.0279 49.3104 40.8968 48.0663 39.3745 46.2002C37.3956 43.8675 35.7211 41.5349 33.8944 39.0468C33.1333 37.9582 32.6766 36.7141 32.0677 35.6255C31.9154 35.3145 32.0677 35.0035 32.0677 34.6925C32.3721 34.6925 32.8288 34.537 32.981 34.6925C37.2433 37.8027 42.1145 39.9798 45.7679 44.0231C45.9202 44.1786 46.0724 44.4896 46.2247 44.8006C45.768 44.4896 45.3113 44.1786 44.8546 43.8675C42.2668 41.0684 39.07 39.3578 35.8733 37.3362C34.8077 36.5586 33.7422 35.9366 32.3721 35.3146C32.6766 36.0921 32.981 36.8696 33.4377 37.4917C35.5689 40.9129 37.7 44.4896 41.049 46.9777C42.8757 48.3773 44.7024 49.6214 46.9858 49.9324C47.2902 49.9324 47.7469 49.6213 48.0513 49.6213C48.508 49.6213 48.9647 49.9324 49.2692 50.0879C50.9436 51.1765 51.857 52.887 52.7703 54.4421C53.0748 54.9087 53.227 55.3752 53.5315 55.8417C53.5315 55.9972 53.3792 56.1527 53.3792 56.1527ZM55.5104 11.5216C54.4448 9.96654 53.5315 8.41145 52.4659 6.85636C52.3137 6.70085 52.1614 6.70088 52.0092 6.54537C52.0092 6.70088 51.857 6.85637 51.857 7.01188C51.5525 9.0335 51.7048 11.0551 52.4659 12.9212C53.3793 15.2539 54.9015 17.12 56.576 18.8306C56.576 18.8306 56.7282 18.9861 56.8804 18.9861C56.8804 18.8306 57.0327 18.675 57.0327 18.5195C56.8804 16.0314 57.0327 13.6988 55.5104 11.5216ZM46.0724 45.1116C46.6813 45.7336 47.2902 46.3557 47.7469 46.9777C48.508 47.9108 49.1169 48.8438 49.878 49.7769C49.7258 49.9324 49.7258 49.9324 49.5736 50.0879C49.2691 49.7769 48.9647 49.6214 48.8124 49.3103C48.0513 48.2218 47.138 47.1332 46.3769 46.0446C46.2246 45.7336 46.2246 45.4226 46.0724 45.1116ZM59.9249 42.6234C59.4682 42.4679 59.1638 42.4679 58.8593 42.3124C59.1638 42.4679 59.6205 42.4679 59.9249 42.6234ZM53.0748 120.533C52.9226 120.689 52.7703 120.844 52.6181 120.844C52.6181 120.689 52.6181 120.533 52.6181 120.378C52.7703 120.378 52.7703 120.378 52.9225 120.533H53.0748ZM56.5759 68.749C56.4237 68.9045 56.4237 68.9044 56.2715 69.06C56.2715 68.9044 56.1193 68.9045 56.1193 68.749C56.4237 68.749 56.5759 68.749 56.5759 68.749ZM53.3792 56.3082C53.3792 56.1527 53.227 56.1527 53.227 55.9972C53.3792 56.1527 53.3792 56.3082 53.3792 56.3082ZM59.0116 18.8306C59.0116 18.9861 59.0116 19.1416 59.0116 19.1416C59.1638 19.1416 59.1638 18.9861 59.0116 18.8306Z" stroke="#231F20"/>
</svg>
