<svg xmlns="http://www.w3.org/2000/svg">

    <!-- width="24" height="24" viewBox="0 0 24 24" -->
    <g id="arrow_right">
        <path d="M12.96 7.5L16.71 11.25V12.3L12.96 16.05L11.895 15L14.355 12.525H6V11.025H14.355L11.88 8.55L12.96 7.5Z"/>
    </g>

    <!-- width="24" height="24" viewBox="0 0 24 24" -->
    <g id="arrow_left">
        <path d="M11.04 7.5L7.29 11.25V12.3L11.04 16.05L12.105 15L9.645 12.525H18V11.025H9.645L12.12 8.55L11.04 7.5Z"/>
    </g>

    <!-- width="24" height="24" viewBox="0 0 24 24" -->
    <g id="paper_plane">
        <path d="M20.176 5.51985L20.584 5.84157C20.6485 5.7601 20.687 5.66115 20.6947 5.55751C20.7023 5.45388 20.6787 5.35034 20.6269 5.26028C20.575 5.17022 20.4974 5.09779 20.4039 5.05236C20.3104 5.00693 20.2055 4.9906 20.1027 5.00547L20.176 5.51985ZM4.51963 7.75514L4.44633 7.24076C4.35153 7.25419 4.26229 7.29357 4.18848 7.35456C4.11467 7.41554 4.05916 7.49575 4.02809 7.58632C3.99702 7.67689 3.99161 7.77428 4.01244 7.86773C4.03327 7.96119 4.07954 8.04706 4.14613 8.11585L4.51963 7.75514ZM10.3802 17.936L9.8807 18.0778C9.90674 18.1699 9.95776 18.2531 10.0281 18.318C10.0985 18.383 10.1854 18.4272 10.2793 18.4458C10.3732 18.4644 10.4705 18.4567 10.5603 18.4235C10.6501 18.3903 10.729 18.3329 10.7882 18.2577L10.3802 17.936ZM20.1027 5.00547L4.44633 7.24076L4.59294 8.26952L20.2493 6.03423L20.1027 5.00547ZM4.14586 8.11686L8.34875 12.4747L9.09575 11.7533L4.89287 7.39543L4.14586 8.11686ZM8.22201 12.2545L9.87969 18.0775L10.8787 17.7939L9.22102 11.9709L8.22201 12.2545ZM10.7872 18.2574L20.583 5.8413L19.767 5.19786L9.9712 17.614L10.7872 18.2574ZM19.9164 5.07035L8.46292 11.6635L8.98185 12.5635L20.4353 5.97035L19.9166 5.06935L19.9164 5.07035Z"/>
    </g>

    <g id="eye">
        <path d="M12 3.75C19.5 3.75 24 12 24 12C24 12 19.5 20.25 12 20.25C4.5 20.25 0 12 0 12C0 12 4.5 3.75 12 3.75ZM12 5.25C6.72 5.25 2.997 10.1265 1.7625 12C2.9955 13.872 6.7185 18.75 12 18.75C17.28 18.75 21.003 13.8735 22.2375 12C21.0045 10.128 17.2815 5.25 12 5.25ZM12 6.75C13.3924 6.75 14.7277 7.30312 15.7123 8.28769C16.6969 9.27226 17.25 10.6076 17.25 12C17.25 13.3924 16.6969 14.7277 15.7123 15.7123C14.7277 16.6969 13.3924 17.25 12 17.25C10.6076 17.25 9.27226 16.6969 8.28769 15.7123C7.30312 14.7277 6.75 13.3924 6.75 12C6.75 10.6076 7.30312 9.27226 8.28769 8.28769C9.27226 7.30312 10.6076 6.75 12 6.75ZM12 8.25C11.0058 8.25119 10.0527 8.64666 9.34966 9.34966C8.64666 10.0527 8.25119 11.0058 8.25 12C8.25 14.067 9.9315 15.75 12 15.75C14.0685 15.75 15.75 14.067 15.75 12C15.75 9.933 14.0685 8.25 12 8.25Z"/>
    </g>

    <g id="instagram">
        <path d="M12 7.6875C11.1471 7.6875 10.3133 7.94042 9.6041 8.41429C8.89492 8.88815 8.34217 9.56167 8.01577 10.3497C7.68937 11.1377 7.60396 12.0048 7.77036 12.8413C7.93676 13.6779 8.34749 14.4463 8.9506 15.0494C9.55372 15.6525 10.3221 16.0632 11.1587 16.2296C11.9952 16.396 12.8623 16.3106 13.6503 15.9842C14.4383 15.6578 15.1118 15.1051 15.5857 14.3959C16.0596 13.6867 16.3125 12.8529 16.3125 12C16.3125 10.8563 15.8581 9.75935 15.0494 8.9506C14.2406 8.14185 13.1437 7.6875 12 7.6875ZM12 15.1875C11.3696 15.1875 10.7533 15.0006 10.2291 14.6503C9.70494 14.3001 9.29639 13.8022 9.05513 13.2198C8.81388 12.6374 8.75076 11.9965 8.87375 11.3781C8.99674 10.7598 9.30032 10.1919 9.7461 9.7461C10.1919 9.30032 10.7598 8.99674 11.3781 8.87375C11.9965 8.75076 12.6374 8.81388 13.2198 9.05513C13.8022 9.29639 14.3001 9.70494 14.6503 10.2291C15.0006 10.7533 15.1875 11.3696 15.1875 12C15.185 12.8446 14.8484 13.6539 14.2512 14.2512C13.6539 14.8484 12.8446 15.185 12 15.1875ZM16.125 2.8125H7.875C6.53234 2.8125 5.24467 3.34587 4.29527 4.29527C3.34587 5.24467 2.8125 6.53234 2.8125 7.875V16.125C2.8125 17.4677 3.34587 18.7553 4.29527 19.7047C5.24467 20.6541 6.53234 21.1875 7.875 21.1875H16.125C17.4677 21.1875 18.7553 20.6541 19.7047 19.7047C20.6541 18.7553 21.1875 17.4677 21.1875 16.125V7.875C21.1875 6.53234 20.6541 5.24467 19.7047 4.29527C18.7553 3.34587 17.4677 2.8125 16.125 2.8125ZM20.0625 16.125C20.0625 17.1693 19.6477 18.1708 18.9092 18.9092C18.1708 19.6477 17.1693 20.0625 16.125 20.0625H7.875C6.83071 20.0625 5.82919 19.6477 5.09077 18.9092C4.35234 18.1708 3.9375 17.1693 3.9375 16.125V7.875C3.9375 6.83071 4.35234 5.82919 5.09077 5.09077C5.82919 4.35234 6.83071 3.9375 7.875 3.9375H16.125C17.1693 3.9375 18.1708 4.35234 18.9092 5.09077C19.6477 5.82919 20.0625 6.83071 20.0625 7.875V16.125ZM17.8125 7.125C17.8125 7.31042 17.7575 7.49168 17.6545 7.64585C17.5515 7.80002 17.4051 7.92018 17.2338 7.99114C17.0625 8.06209 16.874 8.08066 16.6921 8.04449C16.5102 8.00831 16.3432 7.91902 16.2121 7.78791C16.081 7.6568 15.9917 7.48975 15.9555 7.3079C15.9193 7.12604 15.9379 6.93754 16.0089 6.76623C16.0798 6.59493 16.2 6.44851 16.3542 6.3455C16.5083 6.24248 16.6896 6.1875 16.875 6.1875C17.1236 6.1875 17.3621 6.28627 17.5379 6.46209C17.7137 6.6379 17.8125 6.87636 17.8125 7.125Z"/>
    </g>

    <g id="facebook">
        <path d="M16.1945 19.6386C15.7165 19.9012 15.2123 20.1209 14.6899 20.2907C14.1735 20.4581 13.6374 20.5796 13.0899 20.6491L12.641 20.7065V13.681H14.809L15.1293 12.3989H12.641V10.2789C12.641 10.0399 12.6446 9.83987 12.6513 9.66851C12.6579 9.50029 12.6693 9.36234 12.6843 9.24639C12.7008 9.11433 12.7244 9.00939 12.7527 8.91899C12.7817 8.82741 12.8171 8.74881 12.858 8.67217C12.8839 8.6195 12.9162 8.56841 12.9504 8.52124C12.9869 8.47093 13.0262 8.42495 13.0659 8.38525C13.106 8.34516 13.1528 8.30547 13.2035 8.26852C13.2518 8.23394 13.3033 8.2021 13.3548 8.17576C13.4365 8.13253 13.5305 8.09598 13.6401 8.06728C13.7451 8.03977 13.8689 8.01777 14.0163 8.00204C14.1503 7.9875 14.3067 7.97689 14.4887 7.97021L15.2418 7.96038V6.73372L14.8802 6.70188L14.5874 6.69087L14.3366 6.69756C14.1295 6.71014 13.9463 6.72782 13.7856 6.74904C13.624 6.77027 13.4794 6.7966 13.3505 6.82647C13.2302 6.85398 13.1194 6.88739 13.0184 6.92473C12.9185 6.96128 12.8285 7.00216 12.746 7.04657C12.6367 7.10513 12.5326 7.16998 12.4367 7.24112C12.3404 7.31226 12.2472 7.39284 12.16 7.48009C12.0739 7.56459 11.9937 7.65696 11.9214 7.75482C11.8503 7.85151 11.785 7.95449 11.7284 8.06179C11.6691 8.1738 11.616 8.2862 11.5712 8.40804C11.5264 8.53028 11.4875 8.66509 11.4576 8.8223C11.4258 8.98856 11.401 9.18468 11.3845 9.42208C11.3676 9.66144 11.359 9.94324 11.359 10.2801V12.3989H9.27902V13.681H11.359V20.7065L10.9117 20.6503C10.3646 20.5819 9.82809 20.4617 9.30928 20.2934C8.78536 20.124 8.27913 19.9051 7.80041 19.6426C7.32052 19.3792 6.86499 19.0707 6.44209 18.7209C6.02233 18.3743 5.63243 17.9851 5.28027 17.5607C4.9289 17.1362 4.61919 16.6803 4.35625 16.2027C4.09213 15.7224 3.87359 15.2174 3.7042 14.697C3.53519 14.1778 3.41493 13.6401 3.34575 13.0938C3.27737 12.5522 3.25889 12.0031 3.29348 11.4541C3.32767 10.9046 3.41453 10.3614 3.55013 9.83319C3.68651 9.29984 3.87359 8.78183 4.10627 8.28778C4.33895 7.79295 4.61918 7.31973 4.94187 6.8752C5.26258 6.435 5.62615 6.02154 6.02822 5.64422C6.43226 5.26495 6.86814 4.92732 7.32681 4.63687C7.79059 4.34288 8.2811 4.09291 8.78851 3.89246C9.29552 3.69201 9.82415 3.53873 10.365 3.43614C10.8999 3.33513 11.4478 3.28286 12 3.28326C12.5506 3.28365 13.0977 3.3371 13.6315 3.43929C14.1699 3.54266 14.6986 3.69712 15.2068 3.89875C15.7158 4.10077 16.2063 4.35075 16.6681 4.64434C17.1256 4.93519 17.5599 5.27202 17.962 5.65012C18.3636 6.02782 18.726 6.44051 19.0448 6.87993C19.3671 7.32366 19.6473 7.79806 19.88 8.29328C20.1119 8.78772 20.2986 9.30495 20.4345 9.83634C20.5701 10.3642 20.6566 10.9066 20.6912 11.4552C20.7254 12.0043 20.7073 12.5538 20.6389 13.0946C20.5697 13.6394 20.4499 14.1762 20.2813 14.6947C20.1126 15.215 19.8945 15.7193 19.6308 16.1996C19.3686 16.6763 19.0601 17.1319 18.7095 17.5563C18.3589 17.9808 17.9694 18.3695 17.5504 18.7162C17.1279 19.066 16.6728 19.3753 16.1945 19.6386ZM4.9289 19.0711C6.73804 20.8802 9.23853 22 12 22C13.3552 22 14.6475 21.7304 15.8246 21.243C17.047 20.7372 18.1486 19.9936 19.0711 19.0711C19.9936 18.1486 20.7372 17.047 21.243 15.8246C21.7304 14.6475 22 13.3552 22 12C22 10.6448 21.7304 9.35251 21.2434 8.17537C20.7372 6.95342 19.9936 5.85136 19.0711 4.9289C18.1486 4.00645 17.047 3.26282 15.8246 2.75699C14.6475 2.26962 13.3552 2 12 2C10.6448 2 9.35251 2.26962 8.17537 2.75659C6.95342 3.26282 5.85136 4.00645 4.9289 4.9289C3.11976 6.73804 2 9.23853 2 12C2 13.3552 2.26962 14.6475 2.75699 15.8246C3.26282 17.047 4.00645 18.1486 4.9289 19.0711Z"/>
    </g>

    <g id="watsup">
        <path fill-rule="evenodd"
              d="M19.0944 4.9228C18.1488 3.98029 17.0466 3.249 15.8487 2.75471C14.6501 2.26042 13.3507 2 12.0115 2C9.25193 2.00117 6.74885 3.11899 4.93685 4.92201C3.12406 6.72621 2.00039 9.21719 2 11.9623C2 12.8377 2.1148 13.7052 2.33969 14.5435C2.56419 15.3814 2.89878 16.1884 3.33607 16.9427L3.39386 17.0419L2.03006 22L7.12758 20.6694L7.22323 20.7213C7.95295 21.1172 8.7307 21.4206 9.53577 21.6248C10.3405 21.8286 11.1717 21.934 12.0076 21.934L12.0119 21.9328C14.7715 21.9328 17.2742 20.8154 19.0862 19.0116C20.8986 17.2078 22.0226 14.7161 22.0234 11.9705C22.0234 10.6407 21.7642 9.34876 21.2679 8.15442C20.7721 6.96086 20.0389 5.86413 19.0944 4.9228ZM12.0119 20.7549C11.2197 20.7549 10.4357 20.6483 9.67751 20.4418C8.92123 20.236 8.19346 19.9291 7.51723 19.5297L7.30327 19.4036L3.7183 20.3399L4.67565 16.8576L4.53704 16.6382C4.09624 15.9401 3.75812 15.1854 3.53089 14.3975C3.30405 13.6111 3.18732 12.7916 3.18771 11.9631C3.18888 9.54125 4.1794 7.34388 5.77784 5.75403C7.37628 4.16418 9.58224 3.17873 12.015 3.17873C13.1926 3.18068 14.3366 3.40986 15.3931 3.84558C16.4504 4.28209 17.4214 4.92592 18.2534 5.7552C19.0862 6.58488 19.7328 7.55276 20.1696 8.60498C20.6069 9.6572 20.8361 10.7965 20.8357 11.9701C20.8346 14.392 19.844 16.5886 18.2464 18.1788C16.6487 19.7695 14.442 20.7549 12.0119 20.7549ZM16.7014 14.1062C16.4441 13.9781 15.1807 13.3593 14.9452 13.2742C14.7094 13.1887 14.538 13.1461 14.3666 13.4022C14.1956 13.658 13.7029 14.2343 13.553 14.4053C13.403 14.5759 13.2531 14.5974 12.9962 14.4689C12.7393 14.3412 11.9112 14.0711 10.9292 13.1996C10.1652 12.521 9.64939 11.6836 9.49947 11.4274C9.34954 11.1713 9.48345 11.0327 9.6123 10.9054C9.72787 10.7906 9.86921 10.6063 9.99766 10.4572C10.1261 10.3077 10.1691 10.2011 10.2546 10.0305C10.3405 9.85945 10.2975 9.7103 10.2331 9.58224C10.1691 9.45418 9.65486 8.19502 9.4409 7.68277C9.23241 7.18419 9.0204 7.25173 8.86267 7.24393C8.71274 7.23651 8.54134 7.23456 8.36994 7.23456C8.19854 7.23456 7.92016 7.29859 7.68473 7.55471C7.44891 7.81083 6.78517 8.42968 6.78517 9.68883C6.78517 10.948 7.7062 12.1646 7.83466 12.3352C7.96311 12.5058 9.64705 15.0897 12.2251 16.1978C12.8385 16.4613 13.3171 16.6186 13.6904 16.7366C14.3061 16.9314 14.8664 16.9037 15.3091 16.8381C15.803 16.7647 16.8299 16.2192 17.0438 15.6215C17.2582 15.0241 17.2582 14.5119 17.1941 14.4053C17.1297 14.2983 16.9583 14.2343 16.7014 14.1062Z"/>
    </g>

    <g id="no">
        <path d="M9 18C4.02353 18 0 13.9765 0 9C0 4.02353 4.02353 0 9 0C13.9765 0 18 4.02353 18 9C18 13.9765 13.9765 18 9 18ZM9 1.05882C4.60588 1.05882 1.05882 4.60588 1.05882 9C1.05882 13.3941 4.60588 16.9412 9 16.9412C13.3941 16.9412 16.9412 13.3941 16.9412 9C16.9412 4.60588 13.3941 1.05882 9 1.05882Z"
              fill="#D0A0A0"/>
        <path d="M12.8555 4.39517L13.6041 5.14429L5.1441 13.6043L4.39551 12.8557L12.8555 4.39517Z" fill="#D0A0A0"/>
        <path d="M5.1441 4.39517L13.6041 12.8552L12.8555 13.6043L4.39551 5.14429L5.1441 4.39517Z" fill="#D0A0A0"/>
    </g>

    <g id="vegan">
        <path d="M17.6246 0.731261C17.6222 0.637526 17.5839 0.548286 17.5176 0.481983C17.4513 0.415681 17.3621 0.377386 17.2683 0.375012C10.2558 -0.0374885 4.65897 2.05314 2.28709 5.96251C0.665217 8.64376 0.749591 11.8219 2.53084 14.9344L0.487092 16.9875C0.451937 17.0216 0.423987 17.0624 0.404899 17.1075C0.385812 17.1526 0.375977 17.201 0.375977 17.25C0.375977 17.299 0.385812 17.3474 0.404899 17.3925C0.423987 17.4376 0.451937 17.4784 0.487092 17.5125C0.521176 17.5477 0.561975 17.5756 0.607067 17.5947C0.652159 17.6138 0.700626 17.6236 0.749591 17.6236C0.798557 17.6236 0.847024 17.6138 0.892116 17.5947C0.937208 17.5756 0.978007 17.5477 1.01209 17.5125L3.06522 15.4688C4.69647 16.3969 6.34647 16.8656 7.93084 16.8656C9.37967 16.8668 10.8007 16.4677 12.0371 15.7125C15.9465 13.3406 18.0371 7.74376 17.6246 0.731261ZM11.6433 15.0656C9.26209 16.5094 6.42147 16.4531 3.60897 14.9156L12.2621 6.26251C12.3051 6.23028 12.3406 6.18918 12.3663 6.14201C12.3921 6.09483 12.4073 6.04269 12.4111 5.98909C12.415 5.9355 12.4072 5.88172 12.3884 5.83138C12.3696 5.78105 12.3402 5.73534 12.3023 5.69735C12.2643 5.65936 12.2186 5.62997 12.1682 5.61119C12.1179 5.5924 12.0641 5.58465 12.0105 5.58845C11.9569 5.59226 11.9048 5.60754 11.8576 5.63326C11.8104 5.65898 11.7693 5.69453 11.7371 5.73751L3.08397 14.3906C1.54647 11.5781 1.49022 8.73751 2.93397 6.35626C5.11834 2.74689 10.3215 0.796886 16.8933 1.10626C17.2027 7.67814 15.2527 12.8813 11.6433 15.0656Z"
              fill="#76A483"/>
    </g>

    <g id="ok">
        <path d="M9.39209 17.9189L2.8623 11.7972L3.88821 10.7028L9.35843 15.8311L20.0949 5.0947L21.1556 6.15529L9.39209 17.9189V17.9189Z"
              fill="#76A483"/>
    </g>


</svg>
